/* XPM */
static char *_9bccf384a4246a69011359611a1e663A7Yd4cz9VZtUfWZb[] = {
/* columns rows colors chars-per-pixel */
"50 50 256 2 ",
"   c #092639",
".  c #19283B",
"X  c #1A3439",
"o  c #222C3D",
"O  c #2F493A",
"+  c #255F39",
"@  c #55733B",
"#  c #062A48",
"$  c #1D2C4A",
"%  c #182946",
"&  c #08374C",
"*  c #173348",
"=  c #0C3553",
"-  c #0D3B55",
";  c #0D345B",
":  c #063D5B",
">  c #0C3C5B",
",  c #053C54",
"<  c #123554",
"1  c #133A55",
"2  c #113C5B",
"3  c #193657",
"4  c #0F2D55",
"5  c #242848",
"6  c #23334C",
"7  c #273849",
"8  c #253B52",
"9  c #2A3C54",
"0  c #2B3D5B",
"q  c #263756",
"w  c #343D59",
"e  c #2B2D54",
"r  c #0B3965",
"t  c #123C63",
"y  c #133C6A",
"u  c #1A3B66",
"i  c #1A3D73",
"p  c #223966",
"a  c #231D4B",
"s  c #0C425C",
"d  c #074659",
"f  c #13435B",
"g  c #164458",
"h  c #0F5152",
"j  c #385749",
"k  c #2C4559",
"l  c #34485B",
"z  c #36555C",
"x  c #28484C",
"c  c #19705B",
"v  c #2D6E56",
"b  c #0C4463",
"n  c #0B4B64",
"m  c #0D446A",
"M  c #084B67",
"N  c #134264",
"B  c #134A63",
"V  c #14426A",
"C  c #134D6A",
"Z  c #1B4568",
"A  c #0C5265",
"S  c #0E556C",
"D  c #0B5B6D",
"F  c #045768",
"G  c #14536C",
"H  c #145B6D",
"J  c #185667",
"K  c #0B4B73",
"L  c #144A73",
"P  c #154B79",
"I  c #194E7B",
"U  c #174675",
"Y  c #085876",
"T  c #165875",
"R  c #2A4868",
"E  c #374C66",
"W  c #3A5567",
"Q  c #285678",
"!  c #375877",
"~  c #235270",
"^  c #0A666D",
"/  c #096675",
"(  c #166776",
")  c #08757A",
"_  c #14757C",
"`  c #156E66",
"'  c #3D6669",
"]  c #267566",
"[  c #377564",
"{  c #266576",
"}  c #3C7575",
"|  c #2D6C70",
" . c #48545C",
".. c #4C4F53",
"X. c #557856",
"o. c #4F6C51",
"O. c #6A7757",
"+. c #425464",
"@. c #475A68",
"#. c #535167",
"$. c #4A656D",
"%. c #59696A",
"&. c #48776B",
"*. c #577667",
"=. c #4A6877",
"-. c #586873",
";. c #567575",
":. c #47767A",
">. c #66696A",
",. c #6A736A",
"<. c #757769",
"1. c #646C75",
"2. c #687776",
"3. c #757A75",
"4. c #736968",
"5. c #6A4C54",
"6. c #917256",
"7. c #A87A5A",
"8. c #A2794B",
"9. c #85796A",
"0. c #867A76",
"q. c #92756D",
"w. c #AA7B6B",
"e. c #2F8470",
"r. c #15957E",
"t. c #4F8E57",
"y. c #718D4F",
"u. c #77A54D",
"i. c #498767",
"p. c #489368",
"a. c #538F70",
"s. c #718D6B",
"d. c #69A86B",
"f. c #988B54",
"g. c #B78458",
"h. c #A68E5B",
"j. c #89A954",
"k. c #848669",
"l. c #969868",
"z. c #888877",
"x. c #978A79",
"c. c #9A9579",
"v. c #93886B",
"b. c #A78867",
"n. c #B78665",
"m. c #A9976A",
"M. c #BB9769",
"N. c #A69879",
"B. c #B59978",
"V. c #AB8A76",
"C. c #90AB6D",
"Z. c #BCA47D",
"A. c #BDAB7D",
"S. c #B6A578",
"D. c #B2A970",
"F. c #C88B56",
"G. c #CE8C53",
"H. c #C99669",
"J. c #C59876",
"K. c #CE8F69",
"L. c #C4A77B",
"P. c #D0A86E",
"I. c #E39C66",
"U. c #0E5189",
"Y. c #315689",
"T. c #0A6885",
"R. c #097787",
"E. c #157687",
"W. c #077594",
"Q. c #116C88",
"!. c #386A88",
"~. c #327589",
"^. c #025AA2",
"/. c #0349A0",
"(. c #096AA7",
"). c #487499",
"_. c #4E728B",
"`. c #6B788B",
"'. c #0877C3",
"]. c #08848B",
"[. c #15868B",
"{. c #0C8799",
"}. c #168995",
"|. c #169798",
" X c #0D9A93",
".X c #278A99",
"XX c #26999A",
"oX c #359395",
"OX c #28A59C",
"+X c #1898A7",
"@X c #0C8EA6",
"#X c #239AA5",
"$X c #369DA8",
"%X c #1AA4A8",
"&X c #27A8A7",
"*X c #32ACB0",
"=X c #1FA89E",
"-X c #508C96",
";X c #748E8B",
":X c #4FA49C",
">X c #4D9DA4",
",X c #7192AB",
"<X c #4FACB0",
"1X c #69B7BA",
"2X c #77B7B9",
"3X c #6FA7B2",
"4X c #73C2BC",
"5X c #3AB3C4",
"6X c #30ADC4",
"7X c #5DB6C4",
"8X c #7AC5C5",
"9X c #48C3D2",
"0X c #9B9694",
"qX c #928C87",
"wX c #B59984",
"eX c #A4958A",
"rX c #BCA685",
"tX c #BCAB84",
"yX c #BCAB8A",
"uX c #B7A787",
"iX c #BBB089",
"pX c #BAA993",
"aX c #ABA489",
"sX c #8C98AB",
"dX c #91AEB5",
"fX c #A7ACBF",
"gX c #C2AB84",
"hX c #C1A689",
"jX c #C2AA8B",
"kX c #C9A886",
"lX c #C3A794",
"zX c #CCB28C",
"xX c #EBAE86",
"cX c #8FC2B9",
"vX c #90B4C7",
"bX c #A3B9C2",
"nX c #AFBFCF",
"mX c #97CBCD",
"MX c #8FCACB",
"NX c #A8C5C8",
"BX c #A9CAD5",
"VX c #B7CDD3",
"CX c #B7D7DA",
"ZX c #B5CCCD",
"AX c #BBDAE6",
"SX c #B4E3E6",
"DX c #C4CED9",
"FX c #C8D8DC",
"GX c #D3D9DE",
"HX c #C9DBE5",
"JX c #D4DAE9",
"KX c #D7E4E9",
"LX c #D9E8F3",
"PX c #C8E4E6",
"IX c #E5E8EF",
"UX c #C2E3DC",
/* pixels */
"+X+XXX$X:XmXNXLXIXKXUXFXIXLXSX:X+X*X&X#X*X&X%X%X%X>X2XZXGXKXGXNXCXJXKXJXFXMX2X<X&X#X#X+X%X%X&X&X+X+X",
"oX>XBXLXIXIXFXZXDXCXMX8XmXmXHXHXHXVX2XoX.X[.}..X-XAXKXPXmX1X8X<X4X8X1XMXSXCXLXCX>X$X}.}..X.X.X}..X.X",
"DXFXFXVXFXBX1XOX*X*X&X=X&XOX<X8XNXVXHXAXAXvXvXBXHXDXZXMX*X*X&X*X&X&X*X*X<X1XdXmXHXBXdXdXbXZXNXBXVXPX",
"3X1XoXoX<X<XXX|. X|..X}.|.|.|.XX&XXX>X<X1X$X$X<X&XOX<X*X|.|. Xr.+X}. X X|.+X}.OX>XoX|.$X2X2X>XXX>X1X",
"].}.R.}.].}.R.E.].R.[.R.].].{.].{.].{.W.}.{.{.{.{.@X{.R.].[.].}.E.[.) [.[.[.}.].].{.{.{.}.[.].}.].[.",
"E.E._ _ ) ) ) _ _ ^ _ _ / T.R.T./ R.R.) ) ) E..Xe.e.a.a.a.| R.W./ ) _ ) ) ) ) E._ _ ) ) _ _ ) ) ) _ ",
"H ( ^ ^ _ ( ^ ^ ( ^ ^ D D F F Y D D D ` ` c c e.p.d.u.j.u.u.C.a.} ^ Y Y / ( / / ^ ^ ( ( ^ ^ ^ ( ^ ^ ",
"H F / D A H H D A H A A D F M n c c c ] ] e.] ] t.c.N.l.l.D.M.C.d.p.J S F A D G ( H D D D H D S G G ",
"J B G F A J g d A Z h n d M J c c c c X.t.s.P.N.a.} 3.`.x.xXP.I.M.s.t. .P d F n F A B B G A n A B f ",
"n B B A d - B n d 2 d d ' { c c v k.D.S.N.N.V.0.9.`.qX1.4.qXqXM.L.wXwX0.O g M g t Z Z n M B g g f f ",
"d g g g g g Z > f d d :.&.c t.i.s.H.I.V.eXs.aXwXlXuXiXjXS.<.%.x.B.s.s.S.B.#.* r d d d d f 2 2 b g g ",
", g ! _.1 Z # N 4 l i.[ [ ] t.m.L.P.N.,.x.tXyXL.uXkXgXrXtXA.qX1.J.z.C.wX`.s.9.x 4 ; > 2 2 & & 1 < < ",
"z -.GXKXVX_.l 7 l =.a.p.v d.s.P.xXm.z.x.zXkXjXL.gXrXkXpXaXzXuXz.;.v.m.c.2.l.z.qX0XdXdX`.W h & % 2 1 ",
"VXFXGXKXCXBXVXnX1.:.p.a.e.t.s.l.H.S.q.kXD.aXlXhXc.-XrXzXZ.hXzXS.2.*.Z.;X3.0.9.z.;XcXSXHXJXDXNXbXbXfX",
"5X9X5X5X6X6X5XoXz } p.i.<.L.x.xXxX<.qXiXyXlXuXtXsX'.N.kXkXlXlXkXwX$.B.c.x.*.<.2.3.-X$X6X5X5X6X6X5X*X",
"+X+X+X+X+X@X.X!.{ | i.t.&.k.z.l.N.>.pXyXrXL.A.gXeX'.Z.yXA.A.D.yXyX3.&.s.;Xi.`.,.<.2.).}.@X+X+X+X+X+X",
"@X{.{.{.@XW.!.W z [ *.m.P.k.' i.2.s.uXgXhXjXgXL.0X^.uXjXA.jXtXtXgXx.[ i.[ a.&.%.:.*.%.~.W.{.}.@X{.{.",
"W.W.R.W.W.Q.Q W ' 2.z.S.m.v.%.&.z.v.rXgXjXyXyXA.0X^.uXjXgXjXyXtXuXx.*.*.' [ ' %.=.*.%.~.W.R.Q.W.W.W.",
"T.T./ T.T.Y R +.@.-.x.v.m.,.-.s.N.N.hXgXyXyXyXrX0X^.S.hXA.jXyXrXiXwX3.3.1.W $.>.=.%.%.! T.Y ( T.T.T.",
"T Y T T Y C E @.$.1.0.q.9.-.$.z.m.m.hXhXtXtXtXjX0X^.S.jXA.jXyXhXtXwX1.3.1.+.$.%.=.$.@.R Y Y T Y Y Y ",
"P K K L K N k W =.%.z.>.2. .>.<.l.N.yXhXgXgXgXkX0X^.uXjXtXjXyXjXL.N.W %.%. .W @.W W l R K K L M K K ",
"L K m V m t 0 E ' %.3.;X$.@.1.<.s.x.yXtXgXgXL.kX0X^.S.jXtXjXtXgXL.N.Q $.@.+.z W W W z k m m V m m m ",
"V m V y t 2 9 l  .%.1.1.@.E -.,.<.x.jXrXtXyXrXgX0X^.B.hXtXjXtXgXL.eX! @.+.W z E W W l 8 r r y N N N ",
"t m y u 2 3 9 l  .z.4.@.l  .#.;.,.x.jXZ.yXpXyXyX0X^.B.jXgXjXtXgXyXwXE ..E E z +.l l k 9 t y y 2 t t ",
"m u 3 ; > 3 0 k +.-.-.@.W E @.$.>.v.tXyXyXL.L.yXqX/.rXkXlXtXkXuXyXN.W W l R w l  .x l q r r ; 2 t t ",
"b = i y r 3 6 x k +.@.l 0 0 l +.%.x.gXrXjXZ.gXuX0X/.N.gXjXA.kXyXgXN.l E l R 0 k k k 8 q t y i r 1 t ",
"= Z r r y p 6 7 0 W W E 0 0 l @.-.x.Z.kXyXrXrXjXqXU.N.tXjXS.gXuXL.c.E W l k 9 k 0 8 7 sX,XR t L _.`.",
"`.R t L r 4 $ 6 9 l E E 0 q k +.=.<.gXL.rXpXuXjXwX`.A.tXZ.tXlXpXL.9.E E k 7 6 9 0 9 6 bXLXDXbXsXGXIX",
"JXsX;X,X,XE q e 8 x l k 8 $ 9 l @.%.yXZ.gXyXyXZ.kXaXgXpXL.gXpXZ.uX#.w 8 8 7 8 6 7 e 6 3XmXNXZXHXZXZX",
"PXFXGXIXKXHX6 5 7 7 l k 9 $ 9 l z  .z.jXjXuXyXA.hXtXrXlXL.L.jXA.z.w l 8 8 7 6 6 X 6 : [.|.}.|.XX>X>X",
"2X-X3X,XvX3Xk 5 6 6 9 9 6 % 6 9 l E  .c.rXjXrXjXhXiXrXhXtXZ.zXN...q 9 7 6 5 % $ X 5 N Q.R.Q.E.E.E.E.",
"_ E..XQ.R.R.G % 5 $ 6 9 % % 6 6 w k E ..B.jXyXgXrXiXtXL.lXuXB...o p o X $ 5 % % % 5 u F F F / / / / ",
"/ D H D Y Y G < % 5 % 1 $ . . e 7 9 8 k l 0.rXA.tXuXuXZ.m.l...% $ 5 . . e a   . % = d M M n A h A A ",
"A G n d d d , - $ $ . o . % % . $ 5 7 k 0 9 e >.q.9.<.y.j.P.h.O.$ # % $   % 5   . 3 > : f g - C f s ",
"f - 2 g * 1 < =   x 7 % # j O.t.j X 5 5 6 7 * * $ X j s.k.m.wXV.o.O . . + x $ * 4 4 3 = & s > = 2 - ",
"g & g N = = # = j y.@ v o.v.J.N.z.j   # % . 5 a $ x X.Z.P.m.l.x.f.f.X.@ f.m.o.O ; # = = ; 2 = g < < ",
"R W E < r # .  .q.q.k.k.b.M.B.B.wXO.X.s.... %   + t.l.P.K.H.B.b.n.w.wXM.H.M.h.b.O.X   < % $ * & 1 < ",
"~.-X-X_.).! ..6.8.7.6.6.n.b.c.N.m.H.K.F.6.O.o.O.y.M.K.w.b.w.7.7.7.6.b.b.b.M.M.f.7.6.5.#._.-X_.-X~.~.",
"( ^ ( ( E.~.i.a.z.x.b.g.H.H.K.K.h.7.b.V.n.K.g.h.g.n.h.7.g.F.F.F.F.G.I.J.m.7.7.q.<.0.qX`.~.E.Q.{ ( D ",
"K Y F S C m m L J Q._.,.;.} ;Xm.J.K.F.F.G.G.G.g.H.K.K.F.G.G.H.J.q.n.c.-X:.2._.) { ( F F D S S K Q T ",
"{ ~ J J J C B C b b d b n n n n J W %.3.2.%.$.;.( ( ( { ~.T T T S S G G C n d n n n C Q { { { ~ G C ",
"f s s s b s : : C C B C G G G G Y K m C G M b m n n A B G b b M S S G T T G C G C n b b B f f f n d ",
"> > > s s > > - > : : > : : s s b > > > d d f N B s B B N > b b : : s b b : : s b d : : s s b B s s ",
"> f s > - - - - > > - > > - > > & - 1 < = = - - 2 = - > = > > , s > > > > > > s : : > s s > - > - - ",
"- - - - - - - - - - - - - - - - d > - ; ; ; = = < = = = = < 2 - 2 - - - - - - s g - - - 1 - - - 2 - ",
"- - - - - - 2 2 - - 2 2 2 2 2 f 1 1 - > 2 < 3 q < 2 2 2 2 1 2 2 2 > 2 2 2 2 > 2 2 - = < 1 2 2 2 2 2 ",
"2 > > > > > > > > > > 2 2 > > t y N V V V t t t 2 > y t Z t t > > 2 2 t t > > > 2 2 2 2 2 > - - - > ",
"t t t V V V y V N N V V V V V V V V V u u Z C M Z y U U Y.Q U y y t N N V V V V N N N N N t N N > N ",
"m U U V P P V ! Y.! Q i U U V U.P P P P P P P U U Y._.dXvX).!.Q I ! R U I I m P L L L L L L L V y V ",
"L U U L P U.).vXHXAXNX,X).!.Q I I I I I I I I I _.BXDXIXKXHXBX,X,XnXvX,X).).Q P P P I I I P L L U I "
};
