/* XPM */
static char *_d569a189d82420cae839de34e1625fc04AWtFwhDWZtSpQ6[] = {
/* columns rows colors chars-per-pixel */
"50 50 256 2 ",
"   c #161C39",
".  c #17283C",
"X  c #103039",
"o  c #2C3338",
"O  c #2F5639",
"+  c #2F6937",
"@  c #155135",
"#  c #44653C",
"$  c #082A49",
"%  c #1A2848",
"&  c #09374C",
"*  c #17364A",
"=  c #172A55",
"-  c #0C3554",
";  c #0D3B55",
":  c #0C3C5B",
">  c #09395A",
",  c #123553",
"<  c #123A55",
"1  c #1A3C54",
"2  c #123C5B",
"3  c #183458",
"4  c #072E53",
"5  c #242A48",
"6  c #23334C",
"7  c #27384A",
"8  c #363A4A",
"9  c #253A53",
"0  c #2B3D54",
"q  c #273957",
"w  c #333857",
"e  c #242B5B",
"r  c #0B3965",
"t  c #133C63",
"y  c #163B67",
"u  c #1A3D73",
"i  c #2A3C65",
"p  c #171F43",
"a  c #19474B",
"s  c #0B425C",
"d  c #084859",
"f  c #124153",
"g  c #14435B",
"h  c #174659",
"j  c #0B5758",
"k  c #165957",
"l  c #12544B",
"z  c #2A4748",
"x  c #2D435B",
"c  c #2D4657",
"v  c #36495B",
"b  c #265659",
"n  c #39525C",
"m  c #315348",
"M  c #0C665B",
"N  c #166358",
"B  c #07745B",
"V  c #0E6D54",
"C  c #346D4F",
"Z  c #0C4463",
"A  c #0C4A63",
"S  c #0D446A",
"D  c #084967",
"F  c #134164",
"G  c #134A63",
"H  c #14426A",
"J  c #134D6B",
"K  c #1A4567",
"L  c #0B5264",
"P  c #09586A",
"I  c #14536C",
"U  c #155769",
"Y  c #0C4B72",
"T  c #144A73",
"R  c #154B79",
"E  c #194E7B",
"W  c #174675",
"Q  c #085776",
"!  c #155875",
"~  c #2A4767",
"^  c #384C64",
"/  c #285968",
"(  c #3D5364",
")  c #395767",
"_  c #275878",
"`  c #335477",
"'  c #086669",
"]  c #196765",
"[  c #057768",
"{  c #147669",
"}  c #086676",
"|  c #156676",
" . c #097579",
".. c #14757B",
"X. c #35656A",
"o. c #2C7568",
"O. c #377869",
"+. c #2C6C76",
"@. c #43575C",
"#. c #4F5155",
"$. c #586B5C",
"%. c #4F6E54",
"&. c #727354",
"*. c #455766",
"=. c #51576A",
"-. c #4A6469",
";. c #576769",
":. c #577568",
">. c #596B76",
",. c #457677",
"<. c #587979",
"1. c #497070",
"2. c #686867",
"3. c #677866",
"4. c #757669",
"5. c #6A7678",
"6. c #767875",
"7. c #6B696F",
"8. c #6A4C54",
"9. c #B15A27",
"0. c #F0741D",
"q. c #CF6C2F",
"w. c #EC7423",
"e. c #EB7829",
"r. c #F57B2A",
"t. c #F0752D",
"y. c #907253",
"u. c #B07753",
"i. c #897A6E",
"p. c #AB7A6A",
"a. c #CE724C",
"s. c #118D6E",
"d. c #38886A",
"f. c #1DA872",
"g. c #21A267",
"h. c #6F8C55",
"j. c #5B8775",
"k. c #4F8D6C",
"l. c #6A866A",
"z. c #779768",
"x. c #6E9076",
"c. c #5AA66B",
"v. c #61A05D",
"b. c #71C76E",
"n. c #F89D1C",
"m. c #EB8529",
"M. c #F68327",
"N. c #F79935",
"B. c #EE9531",
"V. c #F4AB32",
"C. c #949356",
"Z. c #BA8656",
"A. c #AF9358",
"S. c #8FAC5C",
"D. c #8B8668",
"F. c #979467",
"G. c #8A8575",
"H. c #9B8778",
"J. c #90916F",
"K. c #A68968",
"L. c #B58566",
"P. c #A99968",
"I. c #BA9867",
"U. c #B48B72",
"Y. c #AA997C",
"T. c #B38F77",
"R. c #93A56A",
"E. c #8DAE69",
"W. c #B6AA66",
"Q. c #A9B36B",
"!. c #AFB45D",
"~. c #CC8B56",
"^. c #F59642",
"/. c #CBAE5A",
"(. c #C69566",
"). c #D09771",
"_. c #D6A76A",
"`. c #D9B66A",
"'. c #CCAF6F",
"]. c #E8B66C",
"[. c #EDB36F",
"{. c #AAC363",
"}. c #95C564",
"|. c #D5C26C",
" X c #EAC276",
".X c #125081",
"XX c #365C86",
"oX c #096886",
"OX c #146D83",
"+X c #087788",
"@X c #167687",
"#X c #077694",
"$X c #0D7692",
"%X c #357288",
"&X c #147FA3",
"*X c #497598",
"=X c #4E718A",
"-X c #6D748A",
";X c #907A87",
":X c #09858A",
">X c #12868B",
",X c #0C8699",
"<X c #138B94",
"1X c #198897",
"2X c #169798",
"3X c #139690",
"4X c #278A9A",
"5X c #259B9B",
"6X c #39979A",
"7X c #1898A7",
"8X c #0D90A8",
"9X c #269BA5",
"0X c #379DAA",
"qX c #1CA4A8",
"wX c #1CABB9",
"eX c #26A5A8",
"rX c #37A9A6",
"tX c #2FB1B1",
"yX c #28A79D",
"uX c #4F8E93",
"iX c #738D8E",
"pX c #4F9DA7",
"aX c #7191AB",
"sX c #50ABB0",
"dX c #77B6B9",
"fX c #6CACB5",
"gX c #48A19B",
"hX c #76C2BB",
"jX c #51C5B0",
"kX c #33AFC4",
"lX c #60B6C5",
"zX c #65C7C7",
"xX c #908986",
"cX c #AE9885",
"vX c #8A99AB",
"bX c #90B0B7",
"nX c #9DAA9D",
"mX c #8BC1BA",
"MX c #8CB2C5",
"NX c #A7BBC6",
"BX c #91C9C9",
"VX c #A8C7CB",
"CX c #A9C9D4",
"ZX c #B7CDD5",
"AX c #BAD7DA",
"SX c #B1D0D2",
"DX c #B6DFE5",
"FX c #C7D8DC",
"GX c #C7CFDB",
"HX c #CBDBE6",
"JX c #D5DAEB",
"KX c #CBE6E8",
"LX c #D9E5E8",
"PX c #D8E8F3",
"IX c #E3E7EA",
"UX c #E3EDF0",
/* pixels */
"7X7X5XrXgXBXVXPXIXIXLXKXUXLXDXsX9XqXqX9X9XqXeX9XwXpXdXSXLXFXKXCXFXLXKXKXFXBXdXsXeX9X9X9XqXqXeXeX7X7X",
"6XpXSXPXIXUXFXVXAXSXBXdXBXVXAXJXFXAXdX6X5X1X1X7XgXSXKXJXVXzXhXjXhXhXsXBXAXAXPXAXsX9X<X<X4X4X4X<X4X4X",
"GXFXFXZXFXCXfXrXrXyXtXqXtXtXsXhXVXSXFXFXAXmXBXCXFXFXVXMXtXwXeXtXeXrXrXsXsXsXMXBXHXSXbXbXVXVXVXCXZXLX",
"dXdX6X6XsXsX5X2X2X3X5X1X2X2X3X3XeX5XgXfXfX0X0XsXeXeXsX0X2X2X2X3X7X<X2X2X2X7X2X5XpX6X2XrXdXdXpX5XpXfX",
":X<X+X1X:X<X+X@X:X>X+X .:X+X:X,X$X1X:X:X2X<X:X3X<X+X:X:X .:X:X:X>X:X .>X>X>X>X>X:X<X<X,X<X>X:X1X:X>X",
"@X@X.... . . ... ..... . .| @XoX+X+X+X#XoX .+.uXJ.nXnXx.j.uX+X+X . .| OX . . .OX.... . ..... . . . .",
"U | } ' ..| ' ' | P | U P P } ' } ' O.iXx.c.Q.`.].`.].|.`.'.z.z.,.] Q } Q | }  .' } | | ' ' } | ' ' ",
"U P } P L U ! P P L U J Q Q j ,.,.j.E.Q.`.`.[.[. X`.].].`.]. X'.R.j.U Q P j P I | U P P P U P P I I ",
"U G I L L U h d j A G J d N O.c.c.v.R.b.}.{.Q.{.Q.Q.Q.}.}.!.Q.W./.R.j.) D s d Q P L G G I L A L G d ",
"d G G L d ; G A G H & f O.k.k.k.c.z.$.s.c.E.E.S.S.S.S.b.f.f.g.j.'.S.v.x.#.s : d t K K A A G h h g g ",
"d g h h g h K : > > a X.k.d.o.uXo.:.b s.W.N.V.N.V.V.V.V.f.f.J.[.`.|.S.k.Y.%.; & d d d d g 2 2 D h h ",
"& h ` =X1 K $ F < / O.O.o.o.| o.d.-.c { K.^.n.V.N.N.N.V.g.s.v.Q.`.`._.E.v.h.4.x = 2 : 2 < & & 1 < < ",
"n >.FXLXZX=Xc 7 w 1.k.k.o.o.1.z.T.=.g ] C.B.n.B.B.n.N.B.f.s.z.!.S._.A.!.C.cXxXx.xXbXvX-X( a & % 2 < ",
"ZXFXFXLXAXCXZXNX-X1.k.k.O.o.:.J.J.-.f ]  .[ ..OXs.m.N.N.s.s.z./.W.G.Y./.S.4.G.i.iXmXDXHXJXZXVXNXNXbX",
"kXlXkXkXkXkXkX6XX.o.k.k.C O.j.J./.2.q q 1 * 1 g [ B.B.B.s.s.z.'.I.:.6.P.P.G.j.3.6.uX0XkXkXkXkXkXkXtX",
"7X7X7X7X7X8X4X%XX.+.d.l.z.z.z.P._.2.) m v ^ * a [ N.m.M.s.s.k.H.l.l.J.D.p.i.>.5.4.5.*X1X8X7X7X7X7X7X",
"8X,X,X,X8X&X%X) ] ,.$.Q.'.R.z.R.W.3.-.;.n ^ w d { r.B.B.[ { D._.C.F.A.F.6.5.*.>.,.:.;.%X#X,X1X8X,X,X",
"#X#X+X#X#X$X_ ) -.3.J.F.W.h.P.`.`.'.D.;.) ^ w l [ r.m.M.s.{ l.).z.i.G.j.:.:./ >.1.:.>.%X#X+X@X#X$X$X",
"oXoX} oXoXQ / *.*.3.D.J.6.5.K._.[.[.`.P.&.n i a [ r.M.M.s.[ o.l.x.4.:.O.:.%.X.7.1.>.;.` oXQ | oXoXoX",
"! Q ! ! Q J ~ *.1.<.i.G.-X>.xXF._.].].[./.#.i a [ m.m.M.[ { O.:.h.x.j.@.i.U.2.;.1.-.*.~ Q Q ! Q Q Q ",
"R Y Y T Y F x *.=.;.i.3.>.-.i.4.D.).)._.`.&.w a { w.r.M.[ [ o.C C O.$.x.;.7.>.( ) ( n ~ Y Y T D Y Y ",
"T Y S H S t q ^ =.;.6.-X;.1.-.uX6.G.D.K.W.&.8 3 [ m.t.e.[ B O.G.2.+.-.-.*.6.=.` ( ( v ~ S S H Z S S ",
"H S y y t 2 0 v / ;.7.>.=.) *.<.7.-.:.J.C.%.0 y M r.r.M.[ M ] 5.=.) @.=.>.*.( b ( ^ v 0 r r y F F F ",
"t S y y 2 1 0 v n xX2.-.( *.6.7.4.-.) 2.3.-.8 l { e.r.w.B ] +.*.*.-.=.*.^ *.` *.v c c 0 y r y 2 t t ",
"S y 3 > : 3 q x @.>.>.=.0 ( *.*.7.@.*.>.*.v 7 1 ' r.r.t.B M ] ( *.( n ( *.( ^ x v z v e r r - 2 t t ",
"Z 4 u y r 3 6 z z *.*.^ q ^ *.*.=.n v *.v c 6 1 ' w.0.r.B M ] *.*.( n ( ( ^ v c c b 9 3 y y u r 2 t ",
"- K r r y i 6 7 c ( ( ^ q ^ ( ( *.n c v 0 0 6 * ' w.w.m.[ M ] *.n n n n v x x 0 w 9 7 vXaX~ t Y =X-X",
"-X~ t T r = % 6 c v ^ ^ q q x v v ^ x x 0 0 5 1 ' w.w.e.B j k @.v v v v v x 0 9 q 0 6 NXPXGXNXvXFXIX",
"JXvXiXaXaX^ q 5 9 c v x 9 9 q x 0 x 0 w 0 0 % 1 M w.w.w.M k b v c 0 0 0 x 0 0 6 7 8 5 fXBXVXZXHXSXSX",
"KXFXFXIXLXHX6 5 6 0 x x 9 9 q 0 7 9 6 7 6 6 . 1 M e.w.t.M k k 7 0 7 6 0 0 0 6 6 X 6 : $X2X3X2X6XpXgX",
"dXuXfXaXMXfXb 5 6 6 0 9 3 = 3 6 7 9 6 6 * 6 . < j w.w.w.M l l z 6 6 6 6 6 6 % % X 5 y oX$XOX@X@X@X@X",
"..@X4XoX$X+XI % % % 6 6 * = 6 6 5 * 6 6 * 7 * f ' w.w.t.M k N b 6 6 6 6 6 % % % % 5 K P P L | } } } ",
"} P U P Q Q I - = 5 . * % e = % e X m * . a V ' j w.0.q.] V B B 5 m 6 . % 5   5 % , d D D A L j L L ",
"L I A d d d ; ; . . . 5 % $ % % % @ + C . h l u.q.w.0.r.a.y.k b O + O 6 % = $ X . 1 : > h h ; J g s ",
"g > 2 g & f , - X z . = $ O &.O . b O + . & V 9.q.a.q.9.q.y.d k 8 z m & @ z 5 $ - , 3 & & s : - < ; ",
"f & h F - - $ - %.h.h.C C F.(.K.%.8 o z O * & b d d a d l l #.%.h.U.h.+ A.P.#.m > $ - - > 2 - f , , ",
"~ ( ^ , r 4 . #.y.i.D.y.K.U.U.T.W.h.# $.m   5     $ % 8 %.3.F.H.Y.(.K.I.).(.I.C.3.X X , % % * & < , ",
"%XuXuX=X*X` #.y.u.L.y.C.I.K.cXP.cX(.).I.y.&.#.* *   a p.A.u.I.p.;X'.U.Z.L.K.I.u.y.y.8.=.=XuX*XuX%X%X",
"| | | | OX%Xk.j.xXH.L.u.~.(.(.~.K.u.p.U.T.Z.(.a.u.u.y.K.K.y.Z.Z.Z.A.(.).P.u.p.i.4.i.xX-X%X@XOX+.| P ",
"Y P L I Y S S T / | =X5.<.%XiXT.I.(.~.~.~.~.~.Z.L.D.u.u.Z.~.u.~.(.U.cXuXd.5.*X .+.| P P P P Q Y _ ! ",
"+./ U U U J G J Z s Z Z Z A A L ] / ;.6.5.;.-.<.+.] +.X.<.5.5.>.U I I I L Z D Z A A J _ +.+.+./ I J ",
"g s s s Z s : : J J J J I I I I Q S S J I J S H D D Y D G s G J I I I ! ! I J J J A Z Z G g g g A s ",
": : : s s : : > > > > > : : s s Z s s s s A Z F K H S Z Z s D d > > s Z Z : : s Z s : : : s Z G s s ",
": 2 s : ; ; ; > > > > : : > : : & ; 1 3 - & - ; * , ; < & & - ; s : : : : : : : > > : g s : > : ; ; ",
"; ; ; ; ; ; ; ; ; ; ; ; ; ; ; ; s : 2 2 , - , , & - - - - < 2 t ; ; > > ; ; ; : g ; ; ; ; ; > : < ; ",
"; ; ; ; ; ; 2 2 ; ; < 2 2 2 2 g g ; & : : < 3 3 2 2 2 > 2 2 t : : : : 2 2 2 ; ; 2 ; - , < 2 2 2 2 2 ",
"2 : : : : : : : : : : 2 2 : : t y y F H y y t y 2 2 y y K 2 2 2 2 2 : 2 2 2 : : 2 2 2 2 2 : > > > : ",
"t t t H H H y H F F H H H H H H H H F y y K J Y J S W W XX_ ~ y y y t F H H H H F F F F F t F F : F ",
"S W W H R R H ) XX` _ u W W H .XR R R R R R R R W XX=XvXMX*XXX_ E ` ~ W E E S R T T T T T T T H y H ",
"T W W T R .X*XMXHXDXVXaX*X%X_ E E E E E E E E E *XCXGXIXLXHXCXaXaXNXNXaX*X*X_ R R R R E E R T T W E "
};
