/* XPM */
static char *_67021d800794c2da7c18673a2e4dcc7doi7xTBNiz8uhInK[] = {
/* columns rows colors chars-per-pixel */
"50 50 256 2 ",
"   c #17273D",
".  c #17373D",
"X  c #072E36",
"o  c #1A2338",
"O  c #5E3A38",
"+  c #10443A",
"@  c #2F6637",
"#  c #6E4D3C",
"$  c #43693A",
"%  c #131B48",
"&  c #092949",
"*  c #182748",
"=  c #09364B",
"-  c #12344C",
";  c #18344A",
":  c #092B56",
">  c #172A53",
",  c #0D3454",
"<  c #0D3B55",
"1  c #0D345B",
"2  c #053C5B",
"3  c #0C3C5B",
"4  c #043854",
"5  c #133453",
"6  c #123A54",
"7  c #14345A",
"8  c #123C5C",
"9  c #1A3756",
"0  c #252C48",
"q  c #24374A",
"w  c #242B56",
"e  c #283957",
"r  c #333550",
"t  c #0B3965",
"y  c #133C63",
"u  c #163B67",
"i  c #1A3D73",
"p  c #273A63",
"a  c #643F46",
"s  c #493D4B",
"d  c #04445D",
"f  c #0C425C",
"g  c #094857",
"h  c #14445B",
"j  c #164559",
"k  c #185657",
"l  c #0F5352",
"z  c #284658",
"x  c #37495B",
"c  c #385559",
"v  c #2E494C",
"b  c #38684E",
"n  c #336F50",
"m  c #0C4463",
"M  c #0B4B63",
"N  c #0D446B",
"B  c #074966",
"V  c #134164",
"C  c #1B4263",
"Z  c #134A63",
"A  c #14426A",
"S  c #134D6B",
"D  c #1B4867",
"F  c #0C5264",
"G  c #09586A",
"H  c #14536C",
"J  c #135B6D",
"K  c #165567",
"L  c #0C4B72",
"P  c #144A73",
"I  c #154B79",
"U  c #194E7B",
"Y  c #174675",
"T  c #045273",
"R  c #095977",
"E  c #155875",
"W  c #294666",
"Q  c #384A67",
"!  c #285968",
"~  c #395666",
"^  c #285879",
"/  c #385877",
"(  c #2A4B76",
")  c #08666C",
"_  c #196569",
"`  c #086575",
"'  c #166776",
"]  c #097579",
"[  c #13757C",
"{  c #366867",
"}  c #256775",
"|  c #2F7370",
" . c #57454B",
".. c #505356",
"X. c #714F4F",
"o. c #507550",
"O. c #6C6B53",
"+. c #455666",
"@. c #4D526C",
"#. c #48686B",
"$. c #586868",
"%. c #55786A",
"&. c #5D6B73",
"*. c #4D7372",
"=. c #687479",
"-. c #747978",
";. c #6E716C",
":. c #977857",
">. c #8D6F51",
",. c #A47957",
"<. c #B27C51",
"1. c #987B66",
"2. c #8D776F",
"3. c #AE7B6B",
"4. c #865647",
"5. c #5D8F3F",
"6. c #5CA937",
"7. c #38836C",
"8. c #228862",
"9. c #4E8D4E",
"0. c #758A4E",
"q. c #478666",
"w. c #51916F",
"e. c #73916F",
"r. c #7BA36D",
"t. c #988659",
"y. c #919253",
"u. c #A5885B",
"i. c #B58E56",
"p. c #8DA74E",
"a. c #ACA855",
"s. c #988B66",
"d. c #8C8873",
"f. c #A98967",
"g. c #B98B66",
"h. c #B79769",
"j. c #A68874",
"k. c #B59775",
"l. c #AC9372",
"z. c #8EA86B",
"x. c #B6A473",
"c. c #B1AC6E",
"v. c #C58A5A",
"b. c #CE9256",
"n. c #D2AD5C",
"m. c #C4896B",
"M. c #C89A67",
"N. c #D0956C",
"B. c #C8AD65",
"V. c #D5A86B",
"C. c #C7A778",
"Z. c #D7A977",
"A. c #D8B777",
"S. c #CDB56F",
"D. c #E6B979",
"F. c #F6BB77",
"G. c #E7B56C",
"H. c #DAC279",
"J. c #D1C671",
"K. c #EDC369",
"L. c #F9C768",
"P. c #EAC779",
"I. c #FDC373",
"U. c #F6C879",
"Y. c #FBD27B",
"T. c #105283",
"R. c #365C86",
"E. c #096885",
"W. c #097888",
"Q. c #167587",
"!. c #077694",
"~. c #0B6E8B",
"^. c #347189",
"/. c #147FA3",
"(. c #4D728F",
"). c #69798F",
"_. c #425F87",
"`. c #09868B",
"'. c #13858A",
"]. c #0B8698",
"[. c #168996",
"{. c #169699",
"}. c #14938F",
"|. c #278A9A",
" X c #269C9B",
".X c #379A9B",
"XX c #3F8B97",
"oX c #1DA19F",
"OX c #2FA89B",
"+X c #1798A6",
"@X c #0D90A8",
"#X c #279CA7",
"$X c #2E9FAF",
"%X c #1BA4A8",
"&X c #1FB2AC",
"*X c #26A4A9",
"=X c #36A9A7",
"-X c #30AFB0",
";X c #4F8D94",
":X c #758E91",
">X c #519DA4",
",X c #7191AB",
"<X c #48A8AC",
"1X c #54AEB0",
"2X c #71AFB5",
"3X c #48A19B",
"4X c #71C1BB",
"5X c #33AFC4",
"6X c #74B6C3",
"7X c #42B3C3",
"8X c #78C5C5",
"9X c #48C3D2",
"0X c #918F85",
"qX c #97AC85",
"wX c #B9AA8A",
"eX c #8A99AB",
"rX c #8EB0B8",
"tX c #AB9B98",
"yX c #D5AC85",
"uX c #C8B984",
"iX c #D9B784",
"pX c #C6A984",
"aX c #F0BD8B",
"sX c #C58F83",
"dX c #8FC2B9",
"fX c #D7C589",
"gX c #E9C786",
"hX c #F3CB8A",
"jX c #F8C886",
"kX c #E9D487",
"lX c #F7D389",
"zX c #EBC894",
"xX c #F5CB94",
"cX c #F1D594",
"vX c #F3CEA1",
"bX c #8FB6C5",
"nX c #A7BBC6",
"mX c #98CAC7",
"MX c #90CBCD",
"NX c #A7C6CA",
"BX c #A9C9D4",
"VX c #B8CCD5",
"CX c #BAD7D9",
"ZX c #AFD1D0",
"AX c #B2E2E5",
"SX c #BFDAE5",
"DX c #C8D7DD",
"FX c #C7CFDB",
"GX c #CDE1DD",
"HX c #CBDCE5",
"JX c #D6DAED",
"KX c #CCE4E4",
"LX c #D8E6E8",
"PX c #D8E8F3",
"IX c #E4E7EB",
"UX c #E3EDF0",
/* pixels */
"+X+X X=X3XMXNXPXIXIXJXKXUXLXAX1X$X$X*X#X+X%X%X#X*X=XrXVXPXHXKXZXDXJXKXHXDXmX6X<X*X#X#X#X%X%X*X*X+X#X",
".X>XZXPXIXUXDXNXCXZXMX2XMXNXCXJXKXZX2XXX|.[.{.|.;XAXKXGXmX4X8X1X4X8X1XMXCXCXLXCX<X#X{.[.|.|.|.[.|.|.",
"FXDXDXVXDXBX2XOX=X-X&XoX-X-X1X4XNXZXGXDXSXbXbXZXHXVXVXbX=X-X*X-X&X*X=X<X1X1XrXmXHXZXrXrXnXNXNXBXCXGX",
"2X2X.X.X<X1X X{.{.}.{.[.{.{.{.}.*X#X<X1X6X.X.X<XOXOX<X=X+X+X%X}.+X[.{.{.{.+X[. X>X.X{.=X2X2X>X X<X1X",
"`.}.W.[.`.[.W.Q.`.'.W.] `.W.'.].].].'.'.{.`.`.}.`.].].W.'.8.] `.'.'.[ '.'.'.'.'.`.[.[.].[.`.`.[.`.'.",
"Q.Q.[ [ ] ] ] [ ] [ [ ] ] [ Q.E.] W.W.W.E.` ^.).0XqXqXe.q.;X~.!.] ] ' Q.] ] ] [ [ [ ] ] [ [ ] ] ] [ ",
"J ' ) ) [ ' ) ) ' J ' ) G ` ) ) T.R | w.e.z.c.A.D.hXjXkXn.i.r.e.*._ R R ` ' ` ] ) ` ' ' ) ) ` ' ) ) ",
"J G ` G F J J G G F K H R T g *.| q.z.G.I.P.gXiXP.U.gXA.jXP.A.D.z.w.K T G F G H ' J J G G J G G H H ",
"K Z H F F K k g Z M T A d k | w.q.h.hXkXhXvXA.Z.lXU.cXy.H.U.lXc.P.wX9.+.g B F B G F K K H F M F Z h ",
"M Z Z F g < Z M g g d C | w.7.n :.Z.hXU.I.Y.K.zXP.Y.jXs.A.K.G.C.iXiXd.2.c 4 , M y D D M M Z j j h h ",
"g h j j h j C 3 h < D #.| 7.} b M.x.x.F.I.gXP.U.U.I.I.P.jXiXZ.A.l.V.fXe.M.#., < g g g g h 8 8 B h j ",
"4 j / (.9 C & V u z { *.| 7.' ..gXuXuXU.P.uXhXG.g.,.,.C.F.P.S.S.U.uXzXe.%.d.d.+ 7 1 3 8 6 = = 6 6 5 ",
"x &.DXLXVX(.x q q o.w.q.| | _ O.gXjXgXB.iXB.U.f.r q e ..N.lXhXlXP.yXaXx.*.d.d.:X0XrXeX).~ l = * 8 6 ",
"VXDXGXLXCXBXVXnX).#.w.w.| } J X.U.V.s.c.xXjXlX;.- 4 4 ; 4.Z.iXD.0.lXlXwX| | s.2.:XdXAXHXJXVXNXnXnXrX",
"5X9X-X5X5X5X7XXX_.n 9.w.{ c k X.G.s.O.gXF.lXaXO.= + < & O S.H.pX$ A.kXn.' | O.-.-.;X$X5X5X5X5X5X5X-X",
"+X+X+X+X+X@X|.^.! | 7.q.r.e.l X.F.yXC.U.P.U.F.O.N h y 1  .uXA.P.h.jXY.pX' _ #.=.;.=.(.[.@X+X+X+X+X+X",
"@X].].].@X/.^.~ ~ { o.x.B.z.q...f.<.v.i.g.v.f...V J g 7  .V.j.jXK.F.jXyXk { | &.*.%.$.^.!.].[.@X].].",
"!.!.W.!.!.~.^ ~ { %.0Xf.x.e.%.r > < X & 7 & & j k l d 7 4.a.P.gXlXuXgXC.l k | $.#.$.&.^.!.~.Q.!.!.!.",
"E.E.` E.E.R ! +.{ =.d.s.1.;.+.e X & 2 & X , 3 6 j h 6 e m.n.Y.hXK.C.A.M.l D ~ &.*.&.$./ E.R ' E.E.E.",
"E R E E R S Q +.$.=.d.-.-.&.+.( > & * v o.$ o.n b z c y.gXL.jXlXY.D.gX:.D / +.#.#.$.+.W T R E R R R ",
"I L L P L V z ~ $.&.:X;.=.+.x p & @ 9.p.a.p.0.a.a.0.p.n.aXP.P.D.M.A.A.v Z +.{ c ~ ~ x W L L P B L L ",
"P L N A N y e Q #.#.=.-.@./ z q k 9.a.Z.xXhXhXkXlXt.L.kXxXhXzXc.A.iX>.W W x W c ~ ~ x W N N A m N N ",
"A N u u V 8 e x ~ $.$.&.@.W h q >.D.gXt.S.Y.P.U.V.e.hXY.U.c.qXfXiX2.. p e Q W Q ~ ~ x e t t u V V V ",
"y N u u 8 9 e x ..d.;.~ Q W 8 x Z.Y.lXyXA.P.xXxXlXU.zXI.F.P.F.M.# : u C v W W Q x x z e u t u 8 y y ",
"N u 7 1 3 9 e z Q &.&.+.p C 7 X.F.G.jXK.P.jXzXI.F.D.D.V.b.,.X.w > > e e W p e Q x v x w t t 1 8 y y ",
"m : i u 1 9 0 v z +.+.c p C 8 >.C.B.hXfXh.I.P.>. .X.a s 0 : & X & j W W W W z z z z q 9 u u i t 7 y ",
", C t t u p e q z Q +.c e 7 5 ,.iXH.hXwXk.U.gX0 X & * & - & 9 * 8 z ; e r e e W r e q eX,XW y L (.).",
").W y P t 7 * q v Q Q c e 9 & u.jXC.lXzXgXcXxX* = 6 : : - b n n n c z u p e e e e e q nXPXFXnXeXDXIX",
"JXeX:X,X,XQ e 0 q e Q z e 9 & u.A.x.U.U.Y.P.F.O.* * 7 = n p.n.n.B.V.1.e > ; 5 9 q r 0 2XMXmXVXHXZXZX",
"KXGXDXIXLXHX0 0 q e W z e > & >.gXzXF.F.U.U.I.A.5.9.9.5.p.G.aXjXwXyX0X9 9 > > 0 . 0 3 [.{.}.}..X>X3X",
"2X;X2X,XbX,Xz 0 0 q e ; w ; > X.jXjXS.lXgXP.lXgXc.h.B.B.C.x.gXL.c.K.u.* w w * 0 . 0 C ~.!.~.Q.Q.Q.Q.",
"[ Q.|.~.W.W.H * 0 0 q ; w * & a Z.uXz.gXjXH.gXI.jXU.I.jXaXM.gXA.0XaXj.* * * &   * 0 C T G F ' ` ` ` ",
"` J J G R T H , * * * 0 w & * r u.zXZ.gXJ.x.hXY.U.I.xXlXJ.c.jXP.A.L.s.  * > % o * - g B B M F g F F ",
"F H M g g g g <     * * o * * * O m.jXjXD.A.P.jXA.c.U.A.k.Z.kXG.F.F.f.& * * % &   9 3 2 h j < S h f ",
"h 3 8 j - j 5 , . v q % & b $ 9.n  .3.C.A.jXhXaXgXD.K.D.aXgXc.9.6.c.3.& 0 + * - 7 5 9 , = f 3 5 < < ",
"j = h V , < & , b 9.o.b o.y.y.C.y.@ . s a X.# X.X.# X.X.# O.d.j.g.M.:.o.l.y...v < & = 4 1 8 , j 5 5 ",
"W ~ Q 5 t :   ..1.1.1.t.s.l.l.x.V.0.o.0.s * & X & > % . o.0.t.u.j.h.h.x.B.b.i.1.O.X X 5 * * ; = 6 5 ",
"^.;X;X(.(./  .>.,.:.:.>.f.k.k.h.k.N.b.g.1.>. .r * o v s.sX2.m.f.d.h.u.f.f.g.h.3.:.>.X.@.(.;X(.;X^.^.",
"' ' ' ' Q.^.q.w.2.tXg.<.N.v.M.b.i.,.f.g.v.v.v.v.i.i.:.t.u.,.i.u.j.N.N.C.m.,.:.0X;.2.0X).^.Q.Q.} ' J ",
"T R F J L N N P ) ^ _.=.w.| :Xj.g.N.<.b.b.b.b.i.3.:.<.3.i.b.<.b.M.g.l.;X(.;X(.' } ' G G G G R T ^ E ",
"} ! K E E S Z S m m d f M M M M _ ! $.-.=.$.#.*.} _ } { =.=.=.&.J H H H F M B M M M S ^ } } } ! H S ",
"h f f f m f 2 2 S S M S H H H H R N V S H S N A B B T B Z f Z S H H H E E H S S S M m m Z h h h M f ",
"3 3 3 f f 3 3 3 2 2 2 2 2 2 f f m f f f d d f V D A N m m f B d 2 2 d m m 2 2 f m d 2 3 2 f m Z f f ",
"3 8 f 3 < < < < 3 3 < 3 3 3 3 3 = < 9 7 , , , < - - < < - - , < f 3 3 3 3 3 3 3 3 3 f f f 3 3 3 < < ",
"< < < < < < < < < < < < < < < < f 3 8 7 7 , 7 5 = , , < < 6 8 y < < < < < < < 3 h < < < 6 < < 3 6 < ",
"< < < < < < 8 8 < < 6 8 8 8 8 h h < 4 3 3 6 9 9 8 7 1 1 y 3 3 3 8 3 3 8 8 8 < < 8 < , 5 6 8 8 8 8 8 ",
"8 3 3 3 3 3 3 3 3 3 3 8 8 3 8 y u u V A u u u u 8 8 u u C 8 h 8 8 8 3 8 8 8 3 3 8 8 8 8 8 3 < < < 3 ",
"y y y A A A u A V V A A A A A A A A V y u A S L S N Y Y R.^ ( u u u y y A A A A V V V V V y V V 3 V ",
"N Y Y A I I A ~ R./ ( i Y Y A T.I I I I I I I I Y R._.eXbX).R.( U / ( Y U U N I P P P P P P P A u A ",
"P Y Y P I T.(.bXHXSXNX,X(.^.^ U U U U U U U U U (.BXFXIXLXHXBX,X,XnXbX,X(.(.^ I I I I U U I P P Y U "
};
