/* XPM */
static char *_5acfe0dce6a4c0ac9f8bfae897f72cbSAT5o3V1pwspdp6c[] = {
/* columns rows colors chars-per-pixel */
"50 50 256 2 ",
"   c #191F3E",
".  c #091E39",
"X  c #17283D",
"o  c #0F303B",
"O  c #2A263F",
"+  c #72323B",
"@  c #1A523C",
"#  c #2E6A39",
"$  c #7C5A3C",
"%  c #141C46",
"&  c #091A49",
"*  c #241C55",
"=  c #08294B",
"-  c #182749",
";  c #09374C",
":  c #15344A",
">  c #182B55",
",  c #0C3554",
"<  c #0D3B55",
"1  c #0D345B",
"2  c #0C3C5B",
"3  c #063C59",
"4  c #133453",
"5  c #1C3455",
"6  c #123A55",
"7  c #13335A",
"8  c #1C335C",
"9  c #123C5B",
"0  c #1B395B",
"q  c #1A3B55",
"w  c #092E56",
"e  c #252B47",
"r  c #24374A",
"t  c #252A58",
"y  c #243B5C",
"u  c #263956",
"i  c #363355",
"p  c #0A3965",
"a  c #133C63",
"s  c #173966",
"d  c #18366D",
"f  c #233A66",
"g  c #181860",
"h  c #533150",
"j  c #6F364A",
"k  c #563262",
"l  c #0C425C",
"z  c #07475A",
"x  c #14435C",
"c  c #164458",
"v  c #134D54",
"b  c #29445B",
"n  c #37495C",
"m  c #2D4D4E",
"M  c #366C4A",
"N  c #0C4463",
"B  c #0B4A64",
"V  c #0D446A",
"C  c #0B4C6B",
"Z  c #054864",
"A  c #134164",
"S  c #134B63",
"D  c #14426A",
"F  c #134D6B",
"G  c #1C4567",
"H  c #0C5263",
"J  c #0C5B6C",
"K  c #075769",
"L  c #14536C",
"P  c #155869",
"I  c #0C4B72",
"U  c #144A73",
"Y  c #154B79",
"T  c #194E7B",
"R  c #174675",
"E  c #085876",
"W  c #155875",
"Q  c #294464",
"!  c #284967",
"~  c #344B63",
"^  c #374B67",
"/  c #2A5669",
"(  c #375667",
")  c #285779",
"_  c #385875",
"`  c #2D4D76",
"'  c #07666C",
"]  c #16656C",
"[  c #096775",
"{  c #156676",
"}  c #0A7579",
"|  c #15757A",
" . c #396868",
".. c #287B67",
"X. c #286677",
"o. c #316F71",
"O. c #504F51",
"+. c #704F52",
"@. c #537352",
"#. c #6F6E56",
"$. c #455866",
"%. c #505469",
"&. c #486569",
"*. c #57696A",
"=. c #496877",
"-. c #596A78",
";. c #5A7678",
":. c #4F766A",
">. c #677677",
",. c #777A78",
"<. c #6B716D",
"1. c #7F4460",
"2. c #AF5B30",
"3. c #B26539",
"4. c #D3723A",
"5. c #EA7A2F",
"6. c #C0583D",
"7. c #81314A",
"8. c #8A534E",
"9. c #B25445",
"0. c #987B59",
"q. c #907151",
"w. c #AD724C",
"e. c #8E7A6C",
"r. c #B07C68",
"t. c #955E64",
"y. c #C7734B",
"u. c #D47E51",
"i. c #568E33",
"p. c #31866B",
"a. c #3D815C",
"s. c #508D53",
"d. c #728F54",
"f. c #4C8D6E",
"g. c #759073",
"h. c #5FA461",
"j. c #E7971B",
"k. c #D58C33",
"l. c #E8852D",
"z. c #F58928",
"x. c #E9982B",
"c. c #F58A36",
"v. c #E99735",
"b. c #F19232",
"n. c #E8A829",
"m. c #F5A728",
"M. c #F5B52C",
"N. c #EAA636",
"B. c #F4A735",
"V. c #EBB837",
"C. c #F5BB3D",
"Z. c #ECB329",
"A. c #E9A728",
"S. c #F9C439",
"D. c #F2D038",
"F. c #F3E23A",
"G. c #948658",
"H. c #B88758",
"J. c #AF8F56",
"K. c #99AD5C",
"L. c #938679",
"P. c #8F8E70",
"I. c #BA9467",
"U. c #AD8D6D",
"Y. c #B0A569",
"T. c #9CAF67",
"R. c #CA8A49",
"E. c #C7885A",
"W. c #D09051",
"Q. c #CCAD53",
"!. c #F0AF48",
"~. c #C38865",
"^. c #CB986B",
"/. c #D0B168",
"(. c #EBA956",
"). c #B0C87C",
"_. c #F7C944",
"`. c #F7D54A",
"'. c #F7CB55",
"]. c #F9D655",
"[. c #EBD04D",
"{. c #D8C96C",
"}. c #F3D365",
"|. c #F2E253",
" X c #125081",
".X c #355D85",
"XX c #096886",
"oX c #087786",
"OX c #157687",
"+X c #067694",
"@X c #0F6E88",
"#X c #2B6C86",
"$X c #357288",
"%X c #147FA3",
"&X c #4C728F",
"*X c #6C798C",
"=X c #0A848A",
"-X c #13868B",
";X c #0B8798",
":X c #178996",
">X c #169697",
",X c #129490",
"<X c #278A99",
"1X c #269C9B",
"2X c #389A9B",
"3X c #3E8898",
"4X c #1899A6",
"5X c #0F8FA7",
"6X c #249CA5",
"7X c #369BA8",
"8X c #1BA3A7",
"9X c #1FB2AC",
"0X c #26A7A6",
"qX c #37A8A5",
"wX c #30AFB2",
"eX c #29A69D",
"rX c #508991",
"tX c #758C92",
"yX c #519DA4",
"uX c #7191AB",
"iX c #48A8AC",
"pX c #50AEAF",
"aX c #78B8BB",
"sX c #6DACB4",
"dX c #48A19B",
"fX c #76C1B9",
"gX c #33AFC4",
"hX c #60B6C5",
"jX c #76C8C9",
"kX c #48C3D2",
"lX c #958A89",
"zX c #B3918A",
"xX c #8A99AB",
"cX c #88B7BA",
"vX c #96A8B4",
"bX c #9AAD99",
"nX c #90C2BC",
"mX c #8EAFC5",
"MX c #A7BBC6",
"NX c #92CACA",
"BX c #A5C5CA",
"VX c #A9CAD4",
"CX c #B7CCD3",
"ZX c #BBD7DB",
"AX c #AFCFCE",
"SX c #BDDBE8",
"DX c #B3E4E6",
"FX c #C8D6DC",
"GX c #C7CFDB",
"HX c #CADAE5",
"JX c #D7DAEB",
"KX c #D2DBF1",
"LX c #D8E5E7",
"PX c #D2E8F0",
"IX c #E3EAEC",
"UX c #CC9C88",
/* pixels */
"4X4X1XqXdXNXBXPXIXLXJXLXIXLXDXiX7X0X8X0X6X4X0X8X8X7XaXCXLXFXLXAXFXJXPXHXFXNXaXiX0X6X6X6X8X8X0X0X4X4X",
"2XyXVXLXIXIXFXAXZXVXNXaXNXBXGXJXZXZXcX<X4X:X<X:X2XSXPXJXBXjXjXpXfXjXpXNXZXZXLXZXiX7X>X:X<X<X<X:X<X<X",
"GXFXFXCXHXVXsXqXqX0X9X0XwXwXpXfXVXVXHXGXHXcXnXAXFXGXBXNXiX9X8XwX9X0XwXiXpXpXcXBXHXAXcXcXMXAXAXVXCXLX",
"sXsX2X2XiXpX1X>X>X,X1X:X>X>X>X,X2X1XiXpXsX7X7XiX0XeXpXqX,X1X,X>X4X,X>X>X>X4X>XeXyX2X>XqXaXaXyX1XyXsX",
"=X,XoX:X=X:XoXOX=X-XoXoX=XoX=X;XOX:X;XoX,X;X=X,X;X=X;X=X=X=X-X=XOX-X} -X-X-X-X-X=X;X;X;X:X-X=X:X=X=X",
"OXOX| | } } } | } | | } } | OXoXoX+X+X+XoXXX#XtXT.bXbXg.rXrXoXoX} } { @X} } } | | } } } | | } } } } ",
"P ] ' ' | { ' ' { ] ] J K ' ' ' ' [ o.L.P.T.).{.(.{.}./.{.{.d.d.:.] E E [ { ' } ' [ { ] ' ' [ { ' ] ",
"P K [ J K J J J J K P B E E z ;.f.f.P.{.'.}.}.].}.|.].`.].].}./.T.f.H E K H J L ] P J J J J J K L L ",
"P S L H H P v z S B H C Z P p.h.p.d.}.].`.].}.`.].`.[.`.[.}.`.].].K.f.$.Z z B H K H H H L H B H S B ",
"B S S H z < S B v x < A  .h.f.p.:.{.].'.]._.].'.'.'.'.].`.[.`.[.`.}.g.e.O.3 V 2 a G G B z S c c x x ",
"v x c c c c G 2 z p G  .a.f.p...g.!.M.C.C.V.S.Q.R.k.k.N.C._.`.[.`._.!...UX%.; l z z z z x 0 9 Z c c ",
"; c _ &Xq G = A 2 ! :.o.p.p.| | G.v.x.B.!.!.B.w.8.9.9.R.x.M.S._._.[.m.o.s.g.e.r 7 1 2 9 6 ; ; q 6 6 ",
"n -.FXLXCX&Xn r r *.h.f...p.] o.*.y.2.2.2.9.y.8.k +.+.0.k.S.S._.S.D.N.0.,.e.P.g.lXvXvX*X( v ; - 0 6 ",
"CXFXFXLXZXVXCXMX>.&.s.f...#X#Xp./ O.%.+.j j +.k s 5 - m 3.S.S.V.M.Z.v.t.=.L.e.e.tXnXDXKXJXGXBXMXMXvX",
"gXkXgXgXgXgXgX3X.X .s.f.X.X.o.p.o.8 f s 8 y 5 s s 7 s 7 w.D.C.S.B.m.j.! ` <.g.>.,.rXqXgXgXgXgXgXgXwX",
"4X4X4X4X4X5X<X$Xm o.a.f.g.g.f.p. .` s 1 d 5 ; s > 5 s s w.`.V.Z.!.z.4.b )  .-.>.<.>.&X5X5X4X4X4X5X4X",
"5X;X;X;X5X;X#X( (  .:.Y./.K.g.e. .( b d s c 2 e t p 1 #.[._.N.Z.N.b.8.f P X..X*.=.*.*.#X+X;X:X5X;X;X",
"+X+XoX+X+X@X) (  .>.L.P.Y.Y.g.>.=._ b d s 0 a %./.Q.Q.V.M.A.B.B.k.8.u Q ^ / / -.=.*.*.$X+XoX@X+X+X+X",
"XXXX[ XXXXE / $.$.*.L.L.P.P.<.-.&./ ~ ! f 8 0 #.F.`.C.N.B.A.x.R.+.i 9 ! (  .( >.=.*.*.) XXE { XXXXXX",
"W E W W E F ~ $.*.>.e.e.,.<.>.-.&._ ( G y f 8 #.S.B.B.B.B.m.R.8.k - 6 Q ~ _ %.&.=.&.$.! E E W E E E ",
"Y I I U I A b $.$.*X,.<.;.-.*.( $._ ~ G 0 f 8 +.n.B.B.n.B.m.j.x.w.h 0 b ~ Q $._ ( $.n Q I I U C I I ",
"U I V D V a y n &.=.tX,.&.=.=.( ( ! Q ! Q 8 > +.x.v.B.Z.M.B.B.B.B.y.+.c ! b ( ^ ( ( n Q V C D N V D ",
"D V a s a 0 u n $.%.<.>.n ! _ ( _ / b G y 5 s %.3.9.9.2.v.B.n.B.n.B.R.O.! ~ n ~ ( ( n y p p d A A A ",
"a V a s 9 q u n ~ L.#.&.( ^ ` / ( / b s 5 q 1 t h i i +.k.M.M.M.B.x.B.w.n ! O.) n n b u s p s 9 a a ",
"V s 7 1 2 8 u b $.-.-.$.b _ ! b ! Q q Q s 8 4 : 8 : 7 t w.j.M.B.m.Z.x.c.%.b ^ b n b n t p p 1 0 a a ",
"N w d a p 8 r m b $.$.~ u ^ ! Q b y y f 8 8 8 4 8 0 7 t 8.k.M.B.B.x.z.l.1.~ y n b ! r 5 s d d p 7 a ",
", G p p d f u r u $.~ ^ y Q ^ Q Q y 8 8 > > 8 f 0 : 0 e q.k.B.m.v.v.5.5.1.y y i i u r xXuXQ p I &X*X",
"*XQ a U p > - r u ~ ~ ~ y f Q y f : 8 8 5 4 4 7 f > y O./.N.N.x.x.b.5.4.i y u 0 y u r MXPXGXMXxXFXIX",
"JXxXtXuXuX^ u e u u n n y f 5 5 1 r 5 - - : : 5 t t O.Y.Q.C.m.x.b.z.5.7.7 5 u 0 r i e sXNXBXCXHXAXAX",
"HXFXFXIXLXHXe e u u n b 5 y > 5 +.Q./.^.Q./.Q.J.J.Y.{.[.}.N.b.b.c.5.9.e t > t r o e < -X>X,X>X2XyXdX",
"sXrXsXuXmXsXb e r r u u 4 > - - $ [._.S.D.[.D.D.D.F.D.C.V.B.c.l.4.y.h > - > - e o e A @X+X@XOXOXOXOX",
"| OX<X@X+XoXL - X e r u > - > - 8._.m.m.m.N.Z.S.S._.S.m.N.x.z.5.6.h t % = = X - - e G K K H { ' [ [ ",
"[ J P J E E L , - - - 4 - - = % +.v.z.c.c.z.x.v.c.c.l.l.l.l.4.9.h > & - - - . - - , z Z Z B K z H H ",
"H L H z z z 3 <   : X   X m m e + 3.2.9.9.3.3.y.3.3.9.9.6.9.1.e : . * g &   % % X q 2 3 x c < F x l ",
"x 2 x c : c 4 , o m e % = M @.# i j 7.j j 7.7.+ + j 7.j h h M i.s.@ - & @ v - o 7 4 0 ; ; l 2 7 < < ",
"c ; x A , , = , # d.s.M M P.I.G.*.M v u * t : O >   i - ; @ @.@.#.W.d.M J.J.O.m 1 = < , 1 9 , c 4 4 ",
"Q ( ^ 4 p w X O.e.e.q.G.J.U.U.Y.^.d.@.#.O.% & > - % = r @.i.G.U.zX^.U.^.^.Y.U.J.#.o o 4 - - : ; 6 4 ",
"$XrXrX&X&X_ O.q.0.r.0.q.r.zXzXI.U.I.^.I.G.#.O.O = - m G.I.0.U.G.L.I.J.U.U.E.E.G.0.q.+.%.&XrX&XrX$X$X",
"{ ] { | OX#Xf.f.P.U.H.H.W.~.^.W.H.G.0.H.I.I.R.H.y.H.q.0.U.0.H.E.~.J.W.^.J.w.r.e.<.e.lX*X$XOX| X.{ J ",
"I E K J C C V U W { &X*XrXo.g.U.~.I.E.W.^.R.R.~.U.q.r.r.u.E.H.E.I.I.zXrX3X;.rX| X.{ K K J K E I ) W ",
"X./ P P P F S F N l l N B B B B ] / *.,.>.*.&.;.X.] X. .;.>.>.-.P L L L H B Z B B B F ) X.X.X./ L F ",
"x l l l N l 2 2 F F C F L L L L E C A F L C V D Z Z I Z S l S C L L L W W L F F F B N N S x x x B l ",
"2 2 2 l l 2 2 2 3 3 3 3 3 2 l l N l l l l z l A G D V N N l Z z 3 3 l N N 2 3 l N l 3 2 2 l N S l l ",
"2 9 l 2 < < < < 2 2 2 2 2 2 2 2 ; < q 7 , ; , < : : < 6 : : ; < l 2 2 2 2 2 2 2 3 3 2 l l 2 2 2 < < ",
"< < < < < < < < < < < < < < < < l 2 9 7 7 , 4 7 ; , , , , 6 9 9 < < < < < < < 2 c < < < < < < < 6 < ",
"< < < < < < 9 9 < < 6 9 9 9 9 x c < 3 2 2 6 5 5 0 9 1 1 a 2 a 2 9 2 2 9 9 9 < < 9 < , 7 6 9 9 x 9 9 ",
"9 2 2 2 2 2 2 2 2 2 2 9 9 2 2 a s s A D a s s s 0 9 s s G 2 9 9 9 9 2 9 9 9 2 2 9 9 9 9 9 2 < < < 2 ",
"a a a D D D s D A A D D D D D D D D A a s D F C F V R R .X) ` s s s a a D D D D A A A A A a A A 2 A ",
"V R R D Y Y D ( .X_ ) d R R D  XY Y Y Y Y Y Y Y R .X&XvXmX*X.X` T _ ` R T T V Y U U U U U U U D a D ",
"U R R U Y  X&XmXKXSXBXuX&X$X) T T T T T T T T T &XVXGXIXLXHXVXuXuXMXMXuX&X&X) Y Y Y Y Y T Y U U R T "
};
