/* XPM */
static char *ba0b960a4c924724eaa4e7b3d8a32f26nNekop6dT4w70P5a[] = {
/* columns rows colors chars-per-pixel */
"50 50 256 2 ",
"   c #1C1F39",
".  c #0A273B",
"X  c #18283A",
"o  c #1A3636",
"O  c #232439",
"+  c #284835",
"@  c #225A3B",
"#  c #51713B",
"$  c #616F3C",
"%  c #062A4A",
"&  c #1C2C45",
"*  c #1C2C4B",
"=  c #172747",
"-  c #07374C",
";  c #183549",
":  c #172C55",
">  c #0C3553",
",  c #0D3B55",
"<  c #0D345B",
"1  c #063D5B",
"2  c #0C3C5B",
"3  c #053C54",
"4  c #123554",
"5  c #133A55",
"6  c #123C5B",
"7  c #1A3657",
"8  c #072E53",
"9  c #252849",
"0  c #23334C",
"q  c #273849",
"w  c #2B3C54",
"e  c #2B3D5B",
"r  c #253855",
"t  c #2C3254",
"y  c #0B3965",
"u  c #123C63",
"i  c #163C69",
"p  c #1A3D73",
"a  c #2A3565",
"s  c #211C4C",
"d  c #0C425C",
"f  c #074759",
"g  c #13435C",
"h  c #164459",
"j  c #095152",
"k  c #2E425B",
"l  c #2B4759",
"z  c #33445C",
"x  c #334A5C",
"c  c #37495A",
"v  c #3A565A",
"b  c #304F4B",
"n  c #13725C",
"m  c #2D7058",
"M  c #0C4463",
"N  c #0B4B63",
"B  c #0D446A",
"V  c #084B67",
"C  c #134264",
"Z  c #134A63",
"A  c #14426A",
"S  c #134D6A",
"D  c #1B4568",
"F  c #0C5265",
"G  c #0D556C",
"H  c #0C5B6D",
"J  c #055868",
"K  c #14536C",
"L  c #165869",
"P  c #0B4B72",
"I  c #144A73",
"U  c #154B79",
"Y  c #194E7B",
"T  c #174675",
"R  c #085876",
"E  c #155875",
"W  c #2A4867",
"Q  c #354B62",
"!  c #3A4D63",
"~  c #384866",
"^  c #3D5264",
"/  c #395668",
"(  c #285679",
")  c #2F5474",
"_  c #09676C",
"`  c #086674",
"'  c #166776",
"]  c #07757A",
"[  c #13757C",
"{  c #156B67",
"}  c #277663",
"|  c #387666",
" . c #366779",
".. c #2E6B70",
"X. c #46545E",
"o. c #4D4E58",
"O. c #516F54",
"+. c #647455",
"@. c #475867",
"#. c #525B69",
"$. c #495067",
"%. c #4D676C",
"&. c #586869",
"*. c #577869",
"=. c #496776",
"-. c #596876",
";. c #477974",
":. c #597976",
">. c #417465",
",. c #676A6A",
"<. c #76776B",
"1. c #676B72",
"2. c #687578",
"3. c #70736F",
"4. c #6A4C54",
"5. c #9D6A32",
"6. c #917155",
"7. c #A6795A",
"8. c #B37A4D",
"9. c #887668",
"0. c #847C75",
"q. c #91736D",
"w. c #A87B71",
"e. c #855C5A",
"r. c #398366",
"t. c #2D8871",
"y. c #2A8C5B",
"u. c #508D54",
"i. c #6F8957",
"p. c #4A8564",
"a. c #569768",
"s. c #478377",
"d. c #598677",
"f. c #4E906C",
"g. c #788668",
"h. c #659674",
"j. c #728D6E",
"k. c #76A967",
"l. c #6DA773",
"z. c #55A26A",
"x. c #F7B904",
"c. c #F5B917",
"v. c #EFB10B",
"b. c #CF942F",
"n. c #F9C836",
"m. c #F3C62F",
"M. c #F4C014",
"N. c #958C55",
"B. c #B0885A",
"V. c #85876A",
"C. c #998667",
"Z. c #97976B",
"A. c #888977",
"S. c #998776",
"D. c #8C9B74",
"F. c #979A78",
"G. c #899363",
"H. c #A68968",
"J. c #B58865",
"K. c #A79768",
"L. c #BA976A",
"P. c #A89A77",
"I. c #B69976",
"U. c #B18E7A",
"Y. c #95A86F",
"T. c #A8A56B",
"R. c #B8A579",
"E. c #B1AD72",
"W. c #94A05E",
"Q. c #CB8956",
"!. c #CF8E50",
"~. c #CB9668",
"^. c #C89B76",
"/. c #CE916C",
"(. c #C7A669",
"). c #C7AA77",
"_. c #D7B477",
"`. c #CEAE70",
"'. c #EAAE76",
"]. c #DFA460",
"[. c #F8CF46",
"{. c #D3CF73",
"}. c #F3D170",
"|. c #155283",
" X c #375C87",
".X c #0A6885",
"XX c #0A7787",
"oX c #167687",
"OX c #077594",
"+X c #166B85",
"@X c #357189",
"#X c #147FA3",
"$X c #4C738E",
"%X c #6B7890",
"&X c #08848C",
"*X c #13868B",
"=X c #0C8699",
"-X c #158995",
";X c #169697",
":X c #099B97",
">X c #268A99",
",X c #269A9A",
"<X c #3A9B9C",
"1X c #348B92",
"2X c #1798A7",
"3X c #0F8FA7",
"4X c #249CA5",
"5X c #379FAC",
"6X c #1BA2A9",
"7X c #26A6AA",
"8X c #35A6A7",
"9X c #30B0B1",
"0X c #28A99C",
"qX c #518E91",
"wX c #768E8C",
"eX c #4FA49C",
"rX c #519DA4",
"tX c #7192AB",
"yX c #50ACB1",
"uX c #78B5B8",
"iX c #6CACB5",
"pX c #71C2BB",
"aX c #33AFC4",
"sX c #61B5C5",
"dX c #54C3CA",
"fX c #77C6C6",
"gX c #8D8D88",
"hX c #B09683",
"jX c #B3B089",
"kX c #8C98AB",
"lX c #90B0B7",
"zX c #9FB0A5",
"xX c #CDB385",
"cX c #DDA282",
"vX c #8FC2B9",
"bX c #C5C484",
"nX c #90B4C5",
"mX c #A7BBC6",
"MX c #97C9C9",
"NX c #93CBCC",
"BX c #A9C5CA",
"VX c #A9CAD3",
"CX c #B7CCD3",
"ZX c #B8D5D9",
"AX c #B5CDCC",
"SX c #BEDBE5",
"DX c #B4E3E6",
"FX c #C7D8DC",
"GX c #C9D1DC",
"HX c #C9DAE6",
"JX c #D2D7ED",
"KX c #CBE4E8",
"LX c #D8E5E8",
"PX c #D9E8F3",
"IX c #E5E8EF",
"UX c #C2E3DC",
/* pixels */
"2X2X,X8XeXNXBXPXIXLXUXFXIXPXDXeX4X7X7X4X7X6X7X7X6X8XuXCXLXFXKXAXFXLXKXKXFXMXuXyX7X4X4X4X6X6X7X7X2X2X",
"<XrXVXPXIXIXFXBXGXZXNXfXNXMXHXHXHXVXuX1X>X*X-X>XqXSXKXKXNXdXfXyXpXfXyXNXZXZXPXZXyX4X;X-X>X>X>X-X>X>X",
"GXFXFXCXFXVXiX0X9X9X7X0X9X0XyXfXBXCXHXHXSXnXnXVXZXZXBXNXyX9X7X8X7X8X8XyXyXyXlXMXHXVXlXlXmXAXBXVXZXKX",
"uXiX<X<XyXyX,X:X:X;X>X-X;X;X;X,X7X4XyXyXiX<X<X9X9X4XyX8X;X;X:X;X2X-X;X;X;X2X;X,XrX<X;X8XuXuXrX,XrXiX",
"&X-XXX-X&X-XXXoX&XXX*XXX&X&X=X&X&X&X=XOX3X=X=X=X=X3X=X=X-X&X*X&X*X*X] *X*X*X-X*X&X=X=X=X-X*X&X-X&X*X",
"oXoX[ [ ] ] ] [ [ ` [ [ ` .XXX.X` .XXX] ] ] oX1Xt.t.t.qXd.;.' ] ] ] ' [ ] ] ] +X[ [ ] ] [ [ ] ] ] [ ",
"L ' _ _ [ ' _ _ ' _ _ H H J J R G H H { { n n t.r.y.a.l.k.Y.l.h.;.{ R R ` ' ` ] _ _ ' ' _ _ _ ' _ _ ",
"L J ` H F H H H F L F F J J V F { } } } } t.} y.t.r.f.D.jXE.).E.Y.d.L R J j J K ' L H H F H H G K K ",
"L Z K J F L h j F D j S f V L m } m | r.p.a.a.z.k.a.r.wXR.`.xX`.xXY.f./ f S V Z J F Z Z K F N F Z f ",
"N Z Z F f , Z N f 6 f 1 / ..n n } g.L.(.).T.T.`.P.D.h.t.s.F.).cX`.Y.hXV.v - 6 f u D D N f Z h h g g ",
"f h h h h h D 2 2 d d =.>.} p.p.G.I._._.'.`.E.`.(.P.E.T.h.t.s.P.hXxXF.P.I.&.2 f f f f f g 6 6 M h h ",
"3 h  .$X5 D % C 4 x ;.| | } u.K.'.).Y.T.).).xXL.F.Z.P.P.Z.wX$Xf.h.l.Z.U.0.gX<.w : < 2 6 h - - 5 5 4 ",
"c -.FXLXCX$Xx q c =.a.f.m z.j.`.'.'.'.`.T.^.F.z.k.k.D.jXY.f. .2.U.(.(.hXd.w.C.j.gXzXkX%X^ h - = 6 5 ",
"CXFXFXLXZXVXCXmX1.;.f.f.r.u.h.W.T.`.]._./.i.f.d.^._._.xXE.E.k.:.gXZ.jXl.j.g.A.g.wXvXDXJXJXCXBXmXmXlX",
"aXdX9XaXaXaXaX<Xm | f.p.3.).S.cXcX^.k.W.K.C.} @XjX{.{.T.E._.xXY.h.;.A.Z.A.,.3.2.3.qX8XaXaXaXaXaXaX9X",
"2X2X2X2X2X3X>X@X .} p.u.*.g.j.T.T.K.L.R.H.S.3.qX}.x.v.7.hX).).R.`.P.j.0.h.d.2.2.<.2.$X3X3X2X2X2X2X2X",
"3X=X=X=X3X#X@X/ v | *.K.(.V.| p.gXA.Z.I.g.:.| xXc.[.c.6.0.hX).S.g.A.j.p.| qX%.1.;.*.&.@XOX=X-X3X=X=X",
"OXOXXXOXOXOX) / =.2.A.R.K.S.&.s.i.V.*.d.d...wXn.b.n.v.0.{ *.Z.Y.I.R.F.j.| | | :.=.&.&.@XOXXXoXOXOXOX",
".X.X` .X.XR ) @.%.-.gXC.H.3.-.j.T.P.9.<.,.>.bXx.e.n.v.q.b *.D.W.K.E.Z.V.:.@.#.,.=.&.&.) .XR ' .X.X.X",
"E R E E R S Q @.%.2.0.9.9.-.%.A.L.E.9.,.=.jX[.b.K n.v.6.t $.2.g.L.I.C.<.-./ =.%.=.%.X.W R R E R R R ",
"U P P I P C k @.=.&.A.,.2.X.,.<.U.C.1.%.;.{.x.6.R m.x.6.a ~ ,.<.V.<.3.#.#.X.@.@./ ^ v W P P I V P P ",
"I P B A B u e Q =.&.3.wX%.@.1.<.V.0.,.#.jXn.v.J.E.n.c.].jXH ! 2.1.&.-.$X-.X.v / ^ ^ c k B B A B B B ",
"A B i i u 6 w x X.&.1.1.@.! -.,.i.,.&.X.`.x.x.M.x.x.c.x.c.G a &.-.#.@.@.@.x x Q ^ Q c r y y i C C C ",
"u B i i 6 7 w x X.A.,.@.x X.#.:.3.:.1.$.S.B.8.8.8.c.c.!.5.R e #.#.#.v v Q ~ / Q c x z w u y i 6 u u ",
"B i 7 < 2 7 e k $.%.-.@.^ ~ @.%.1.&.&.@.w r 7 7 B n.x.6.t 7 l / @.@.^ ! Q z k Q o.l z 7 y y < 6 u u ",
"M 8 p i < 7 0 l z @.@.! e e z @.&.&.#.#.z e r : E n.x.9.: 7 z ) ^ ! ! Q Q k w z k l r r u i p y < u ",
"> D y y i a 0 q e ^ ^ ! e e z @.&.#.$.#.$.~ e t E m.x.9.= ; z ~ ! ! Q Q z w w k e r q kXtXW y I $X%X",
"%XW u I y : * 0 w x Q Q e r k @.&.#.#.#.$.X.z w |.n.v.q.9 r e x Q Q Q Q k w w w r w q mXPXGXmXkXFXIX",
"JXkXwXtXtX~ t 9 w w x k r * w c @.%.%.@.@.v z w E [.x.q.s r e l W Q z k w w 0 q t t 0 iXNXBXCXHXAXAX",
"KXFXFXIXLXHX0 9 q q z k w & w c ^ @.%.@.@.v z q _ [.v.9.= ; q r k k k w w 0 0 0 o 0 3 *X;X-X;X,XrXrX",
"uXqXuXtXnXiXl 9 0 0 w w 0 & 0 w z ^ @.^ @.! z t L 6.5.$.= : 0 a r w w 0 0 & & 0 o 9 C .XXX+XoXoXoXoX",
"[ oX>X.XXXXXK = 9 & 0 w & & * 0 w z c x @.c w t r s = = O % * 9 0 0 0 & & = = & & 9 i J J J ' ` ` ` ",
"` H L H R R K > = 9 = 5 * X X t o b q c z w w q 9 * : . o b v 9 * 9 X X t s . X = > d V V N F j F F ",
"V K N f f f 3 , * * X O X = = X a : e l w e 0 & 5 * q + G.L.T.u.; % = * . = 9 . X 7 2 1 g h , S g d ",
"g 2 6 h ; h 4 > . b o = % b +.u.v X 9 = ; ; ; : * . v j.G.K.R.H.O.+   X @ b * ; 4 4 7 - - d 2 4 6 , ",
"h - h C > > % > m i.$ m O.C.^.P.h.b . * 9   9 = X @ O.).~.I.C.H.N.N.+.# N.K.O.+ > % > > < 6 > h 4 4 ",
"W ^ ! 4 y 8 X o.q.w.V.V.H.L.I.I.I.N.$ +.b X = = @ u.W.`.].^.J.H.J.w.hXI.^.^.N.B.+.o . 4 = * ; - 5 4 ",
"@XqXqX$X$X/ o.6.7.7.6.6.J.H.F.P.I.L.^.^.6.+.# O.6.L./.7.S.C.7.J.7.6.H.H.H.L.L.N.7.e.4.$.$XqX$XqX@X@X",
"' ' ' ' +X@Xs.d.A.S.J.B.~.~././.B.7.C.H.J.~.J.J.J.C.7.J.8.Q.Q.8.Q.!.].^.H.7.7.q.<.0.gX%X@XoX+X' ' H ",
"P R J G P B B I L +X$X3.:. .wXK.L.~.Q.Q.!.!.Q.B.B./.Q.Q.!.!.~.^.C.J.F.qX$X2.$XXX..' J J H G G P ( E ",
"..L L L L S Z S M d d M N N N F L / &.2.2.&.%.:.' ' ' ' @XE E R G G K K S N f N N N S (  . ...L K S ",
"g d d d M d 1 1 S S N S K K K K R P B S K V M B N N F Z K M M V G G K E E K S K K N M M Z g g g N f ",
"2 2 2 d d 2 2 2 2 1 1 1 1 1 d d M 2 2 2 f f g C Z M Z Z C 2 M M 1 1 d M M 1 1 d M d 1 1 2 d M Z d d ",
"2 6 d 2 , , , , , , , 2 2 2 2 2 - , 5 4 > > , , 6 > , , > , 2 3 d 2 2 2 2 2 2 d 2 2 2 d d 2 2 2 , , ",
", , , , , , , , , , , , , , , , d 2 2 < < < > > 4 > > > > 4 6 , 6 , , , , , , d h , , , , , , , 6 , ",
", , , , , , 6 6 , , 6 6 6 6 6 g 5 5 , , 6 4 7 r 4 6 6 6 6 6 6 g 6 , 6 6 6 6 2 6 6 , > 4 5 6 6 6 6 6 ",
"6 2 2 2 2 2 2 2 , , 2 6 6 2 2 u u C A A C u u u 6 2 u u D u u 2 2 6 6 u u 2 2 2 6 6 6 6 6 , , , , , ",
"u u u A A A i A C C A A A A A A A A A i i D S P D i T T  X( T i u u C C A A A A C C C C C u C C 2 C ",
"B T T A U U A )  X) ) p T T A |.U U U U U U U U T  X$XkXnX%X X( Y ) W T Y Y B U I I I I I I I A i A ",
"I T T I U |.$XnXJXSXBXtX$X@X( Y Y Y Y Y Y Y Y Y $XVXGXIXLXHXVXtXtXmXnXtX$X$X|.U U U Y Y Y U I T T Y "
};
