/* XPM */
static char *b804b32f37754234e0035a8bb8c43bb7mOCRWMMLueGgLqxb[] = {
/* columns rows colors chars-per-pixel */
"50 50 255 2 ",
"   c #151C3A",
".  c #09273B",
"X  c #19273A",
"o  c #1E343D",
"O  c #0F3138",
"+  c #25273B",
"@  c #254B34",
"#  c #52733E",
"$  c #63753B",
"%  c #062949",
"&  c #182946",
"*  c #08364C",
"=  c #17354A",
"-  c #0C3554",
";  c #0D3B55",
":  c #0C345B",
">  c #063D5B",
",  c #0C3C5B",
"<  c #063B53",
"1  c #133553",
"2  c #123A55",
"3  c #123C5B",
"4  c #183558",
"5  c #102E58",
"6  c #252948",
"7  c #283748",
"8  c #323648",
"9  c #2A3A57",
"0  c #343B55",
"q  c #222C56",
"w  c #0C3965",
"e  c #133C63",
"r  c #163C68",
"t  c #1A3D73",
"y  c #273867",
"u  c #0C1F47",
"i  c #0C425C",
"p  c #084759",
"a  c #124155",
"s  c #14435C",
"d  c #16465A",
"f  c #135256",
"g  c #274949",
"h  c #29455B",
"j  c #36495B",
"k  c #38545B",
"l  c #2F514F",
"z  c #34694F",
"x  c #0C4463",
"c  c #0C4B64",
"v  c #0D446A",
"b  c #084967",
"n  c #134264",
"m  c #124B64",
"M  c #14426A",
"N  c #134D6B",
"B  c #1A4667",
"V  c #095768",
"C  c #14536C",
"Z  c #135C6D",
"A  c #175568",
"S  c #0B4B72",
"D  c #144A74",
"F  c #154B79",
"G  c #194E7B",
"H  c #174675",
"J  c #085776",
"K  c #155875",
"L  c #2A4767",
"P  c #374A65",
"I  c #295869",
"U  c #375567",
"Y  c #275679",
"T  c #395878",
"R  c #284C73",
"E  c #06666C",
"W  c #18646A",
"Q  c #0A6675",
"!  c #156676",
"~  c #097579",
"^  c #13757C",
"/  c #376578",
"(  c #387874",
")  c #316C6D",
"_  c #484956",
"`  c #48575B",
"'  c #555050",
"]  c #665957",
"[  c #6C5751",
"{  c #536D55",
"}  c #68665A",
"|  c #776859",
" . c #677658",
".. c #7C755A",
"X. c #716E4A",
"o. c #465867",
"O. c #575A67",
"+. c #575A75",
"@. c #4C4B6A",
"#. c #675B68",
"$. c #4B636B",
"%. c #596868",
"&. c #467568",
"*. c #476774",
"=. c #5A6975",
"-. c #5A777A",
";. c #4F746C",
":. c #676A67",
">. c #766865",
",. c #637268",
"<. c #7B7767",
"1. c #666976",
"2. c #726B77",
"3. c #697678",
"4. c #787974",
"5. c #876C59",
"6. c #887758",
"7. c #937D5D",
"8. c #997A58",
"9. c #90704F",
"0. c #A57B57",
"q. c #B27652",
"w. c #887966",
"e. c #9C7D64",
"r. c #977768",
"t. c #867A76",
"y. c #937271",
"u. c #A57B67",
"i. c #A37E75",
"p. c #C57F55",
"a. c #3A8759",
"s. c #0E877F",
"d. c #539255",
"f. c #7D8556",
"g. c #6E8F56",
"h. c #528E71",
"j. c #728770",
"k. c #77A470",
"l. c #52A271",
"z. c #B9853C",
"x. c #CD8B3D",
"c. c #858658",
"v. c #98865A",
"b. c #908E54",
"n. c #B8814D",
"m. c #A58657",
"M. c #BA8858",
"N. c #B09259",
"B. c #8A8465",
"V. c #978667",
"C. c #8B8576",
"Z. c #958475",
"A. c #8F9672",
"S. c #A68667",
"D. c #B48766",
"F. c #AA9467",
"G. c #B59868",
"H. c #B38774",
"J. c #AA9879",
"K. c #B79A78",
"L. c #A7877A",
"P. c #8FAB75",
"I. c #B2AD75",
"U. c #C88849",
"Y. c #D99649",
"T. c #C48859",
"R. c #D88C56",
"E. c #CA9556",
"W. c #D89758",
"Q. c #D69046",
"!. c #E4984A",
"~. c #E79A55",
"^. c #D9A45A",
"/. c #D3A24D",
"(. c #E6A454",
"). c #EAA44C",
"_. c #D58966",
"`. c #C79666",
"'. c #D59766",
"]. c #C6906E",
"[. c #D0AA71",
"{. c #E89E6B",
"}. c #125081",
"|. c #325785",
" X c #096785",
".X c #097788",
"XX c #167688",
"oX c #087695",
"OX c #176A85",
"+X c #347288",
"@X c #147FA3",
"#X c #447888",
"$X c #4E728F",
"%X c #6A798F",
"&X c #0A858A",
"*X c #12868B",
"=X c #0C8799",
"-X c #168A97",
";X c #169797",
":X c #129694",
">X c #26899B",
",X c #279D9B",
"<X c #38999B",
"1X c #2F9196",
"2X c #2EA699",
"3X c #1897A6",
"4X c #0E8DA8",
"5X c #269CA7",
"6X c #2F92B1",
"7X c #1BA5A6",
"8X c #0EA9A7",
"9X c #26A8A9",
"0X c #35A7A7",
"qX c #25B1A9",
"wX c #31B0B8",
"eX c #508C96",
"rX c #728C8B",
"tX c #519DA4",
"yX c #7393AB",
"uX c #50ACAF",
"iX c #77B9B9",
"pX c #6BAEB3",
"aX c #48A19B",
"sX c #71C2BC",
"dX c #2BADC4",
"fX c #38B1C4",
"gX c #79BCC9",
"hX c #42B3C3",
"jX c #61C6CB",
"kX c #8E8D87",
"lX c #B19885",
"zX c #8FAFB8",
"xX c #96A497",
"cX c #C6B383",
"vX c #92C6BB",
"bX c #91B2C4",
"nX c #A9B9C6",
"mX c #96C7C8",
"MX c #90CDCD",
"NX c #A7C7CA",
"BX c #A9C9D4",
"VX c #B6CCD4",
"CX c #BAD7DA",
"ZX c #B2D1D3",
"AX c #B6E8E5",
"SX c #BFDAE5",
"DX c #C7D8DB",
"FX c #CED3DB",
"GX c #C8D8E5",
"HX c #D5D9EB",
"JX c #CBE4E6",
"KX c #D8E5E8",
"LX c #D8E8F2",
"PX c #E2E7EA",
"IX c #E2EDF0",
/* pixels */
"3X3X,X0XaXMXNXLXPXPXHXJXIXKXAXuX9X9X7X5X5X5X7X7X5X9XgXZXKXHXAXNXDXKXJXJXDXmXgXuX9X5X5X3X7X7X9X9X3X3X",
"<XtXZXLXPXIXDXNXCXCXMXiXMXNXGXHXDXVXzX<X3X-X>X>XaXGXFXJXMXgXgXuXsXsXuXMXCXCXLXCXuX5X-X-X>X>X>X*X>X1X",
"FXDXDXVXGXBXpX2X0XqXqX7XwX9XuXiXNXZXDXFXDXvXmXVXGXGXvXMXuXqXqXqXqX0X0XuXuXuXbXmXGXZXzXzXnXNXNXBXCXJX",
"pXpX<X<XuXuX,X;X;X:X;X-X3X:X:X:X6X5X0XuXpX2X,XuX0X5XuX0X;X:X;X;X3X-X;X:X;X3X;X,XtX<X;X0XiXiXtX,XtXpX",
"&X*X.X-X&X*X.XXX&X*X.X&X*X~ &X=Xs.&X&X=X4X=X=X-Xs.*X=X.X*X&X*XoX*X*X~ *X*X*X*X*X&X-X-X=X-X*X&X-X&X*X",
".XXX^ ^ ~ ~ ~ ^ ~ ^ Q ~ ~ ! XX X.X.X.X.X.X~ ( %XA.kXxXrX-.#X^ ^ ~ ~ ! ^ ~ ~ ~ OX^ ^ ~ ~ ^ ^ ~ ~ ~ ^ ",
"Z ! E E ^ ! E E ! Z W W V Q Q E Q E ) j.A.k.P.I.I.I.cXP.k.xXk.h.&.W J J Q ! E ~ E Q ! ! E E Q ! E W ",
"Z V Q Z V Z Z V J V A m J J p &.( &.j.A.lXlXlXk.K.P.l.P.cXI.[.I.P.h.A J V f V C ! Z Z Z V Z Z V C C ",
"A m A V V A f p m d c J m f a.h.l.( +X( kXA.t.C.t.j.3.C.F.I.cX[.[.A.h.k D p p J V V m m V c c V m p ",
"c m m m p ; m c c a x * ) l.h.h.h.<.C.F.8.b.B.Z.F.V.V.V.C.4.J.`.[.J.I.kXj x v ; w N N c s m d 9 s s ",
"p a d d a s B , < s d &.&.l.a./ ,.V.B.7.y.w.7.e.m.v.w.i.u.v.B.j.t.Z.b.F.K.@.* 3 a p p p s s , x d s ",
"< d T $X3 B % n 4 g ( ( ( ( z C.V.F.v.N.D.L.V.S.S.F.J.r.S.7.V.V.,.-.C.m.A.A.t.7 : 3 3 i a 1 1 a 2 1 ",
"k =.FXKXVX$Xj 7 j *.d.h.W / A.u.v.>.0.W.Q.R.W.Y.~.Q.Y.Y.'.E.`.e.S.%.-.-.1.H.u.j.xXzXzX%XU d * & 3 2 ",
"VXDXFXKXCXBXVXnX=.) d.l.&.%.9.D.v.+.r.W.(.q.H.m.y.0.U.W.W.(.Y.E.V.S.:.I $.2.A.j.rXvXAXHXHXVXNXnXnXzX",
"fXhXwXfXdXdXhX<X) ( d.d.) | F.w.7.=.e.!.W.y.o.|.|.L R R w.E.W.^.6.V.F.} z &.%.,.4.eX0XdXfXfXdXdXfXwX",
"3X3X3X3X3X4X>X+XI ) ( a.A t.9.B.<.+.u.~./.e.b.e...w.w.1.@.t.5.>.8.V.7.G.:.=.3.1.,.2.$X4X8X3X3X3X4X3X",
"4X=X=X=X4X@X+XU I ) ,.j.P V.r.7.0.>.u.!.W.u.8.w.q...V.<.w.%.%.t.v.V.B.e.m.%.$.$.*.%.%.+XoX=X-X4X=X=X",
"oXoX.XoXoXoXY U *.h.A.j.+.6.w.w.t.1.0.R.W.^.~.'.'.(.~.].m.v.u.V.m.w.N.8.7.<.$.=.*.%.,.+XoXoXXXoXoXoX",
" X XQ  X XJ I o.o.,.Z.C.+.X.w.6.B.#.u.'.E.^.U./.E./.).!.^.W.u.v.m.V.m.8.v.w.o.$.*.%.%.T  XJ K  X X X",
"K J K K J N P o.$.:.w.kXO.c.w.e.w.1.@.>.] @.#.P o.>._.W.[.).E.B.8.V.m.8.m.V.o.o.*.$.o.L S J K J J J ",
"F S S D S n h o.*.,.t.%.:.v.7.0.V.} } } :.2.2.3.1.@.L M.!.'.Y.c.8.<.T.m.7.m.k o.U k j L S S D S S S ",
"D S v M v e 9 P / %.4.O.<.8.7.u.y.u.m.e.C.6.v.9.v.v.1.#.U.W.~.u.v.B.m.m.7.m.` U U U j L v S M v v M ",
"M v r r e 3 9 j k %.%.$.} 9.6.w.v.e.v.b.c.<.>.b.q.V.w.y W.!.'.n.w.m.6.v.m.v.#.j P U j 9 w w r n e n ",
"e v r r , 4 9 j _ kX:.o.>.v.<.| w.m.X. .b.m.m.r.B.6.0.Y E.x.^.8.e.8.m.v.8.0.] 9 P j j 9 e w r 3 e e ",
"v r 4 : , 4 9 h j *.1.U } e.D.!.Q.{.0.` ;.6.0.e.e.0.8.+.N.~./.r.8.r.6.w.7.0.X.9 j 0 j 4 w w : 3 e e ",
"x - t r : 4 6 g j ` o.U O.| o.Q.^.x.E.[ w.8.m.m.7.f.O.n.~.!.Q.6.f.b.v.9.w.7.[ = h j 9 4 e r t w 3 e ",
"- B w w r y 9 7 h ` k U @.w.|.0.R.).!.`.9.6.7.e.w.5.M.W._.W.y.<.z  . .c.w.6._ 9 9 9 7 yXyXy w S $X%X",
"%XL w D w 5 & 7 9 P j I 9 8.=.@.T.R.!.E.^.R.W.N.R._.~.Y.!.q.} >.z z a.d.f.X.7 y 9 9 7 nXLXFXnXzXFXPX",
"HXzXrXyXyXP 9 6 0 9 j I 9 | 5.o.P i.x.~.U.R.~.Q.E.!.R.Y.| `  .I A f W f } ' 7 = 7 8 6 yXMXmXVXGXZXZX",
"GXDXDXPXKXGX6 6 = 7 0 h 8 j | ..U 7 ' r.n.U.U._.q.T.5.o.T 6.X.j f f z l ` 0 = = o = ; XX:X:X;X<XtXaX",
"pXeXpXyXbXpXh 6 o 8 9 9 0 4 ` 6...:.+.@.L n I y t j _ O.9.r.4.>.@.P k ` 0 & . = o & n OX.X.XXXXXXXXX",
"^ .X>X X.X.XC & 6 o = 7 4 X 4 ' | r.9.6.6.] | ..>.| 6.r.9.6.5.X.9.{ U 7 q X 6 & & & n V V V ! E Q Q ",
"Q Z Z Z J J C 1 & 6 & 4 & X & q j ] 5.6.5.5...>.6...| 9.9.r.| X.' _ o X & u & + & 1 p b b c V f V V ",
"b C c p p p < ; & &   + X & & X 6 = l ] ] | | | X.' O.O._ _ 0 0 q & & & X X & % X 4 , > d d ; N s i ",
"s ; 3 d * 2 1 - O g 7 & * l  .d.z o 6 6 7 7 j h 8 9 9 9 7 6 X g z g & . l 8   O : 1 4 * * i , 1 ; ; ",
"a * s n - - % - z g.# z { V.].J.k.@ . % & & 7 6 6 6 6 & X X ` g.H.F.$ # b.F.{ l : % ; - : 3 - a 1 1 ",
"L U P 1 w % X ` r.r.B.c.S.H.K.K.lXf.X.j._ X   6 X = . @  ...V.V.lXlXF.I.G.G.F.S. .O . 1 & & = * 4 1 ",
"+XeXeX#X$XT ' 9.8.0.8.8.D.S.J.J.J.`.E.G.6...' + & X 8 w.G.8.H.K.u.G.n.].H.G.E.m.8.5.[ @.$XeX#XeX+X+X",
"! ! ! ! OX+Xh.h.kXZ.D.M.`.`.'._.T.8.S.H.].M.T.n.q.M.0.m.m.0.n.z.N.`.'.`.F.8.0.i.<.Z.kX%X+XXXOX! ! Z ",
"J J V Z S v v D Z OX#X:.-.+XrXF.G.].T.U.U.R._.q.S.r.u.q.q.T.T.M.].D.kXeX$X3.#X XY ! V V V V J S Y K ",
"/ I A A A N m N x i i x c c c m W I %.4.3.%.$.-.) W ) ) -.3.3.=.Z C C C N c x c c c N Y / / Y I C N ",
"s i i i x i , , N N m N C C C C J S n N C N v M b b J b m i m N C C C K K C N N N c x x m s s s c i ",
", , , i i , , ; > > > ; > > i x x i i i p p i n B M v x x i x p > > i x x , > i x i > > i i x m i i ",
", s i , ; ; ; ; ; ; ; ; , ; , , * ; 4 4 - * - ; = = ; ; = = - ; i , , , , , , , , , , i i , , , ; ; ",
"; ; ; ; ; ; ; ; ; ; ; ; ; ; ; ; i , 3 3 : - 1 1 * - - - - 2 3 3 ; ; ; ; ; ; ; , a ; ; ; ; ; ; ; 2 ; ",
"; ; ; ; ; ; 3 3 ; ; 2 3 3 3 3 s a ; < , , 2 4 4 3 3 : : e , , , , , , 3 3 3 ; ; 3 ; - 1 2 2 3 s 3 3 ",
"3 , , , , , , , ; ; , 3 3 , , e r r n M r r e r 3 4 r r B 3 3 3 3 3 , 3 3 3 , ; 3 3 3 3 3 ; ; ; ; ; ",
"e e e M M M r M n n M M M M M M M M n r r B N S N v H H |.Y R r r r e e M M M M n n n n n e n n , n ",
"v H H M F F M U |.T Y t H G M }.F F F F F F F F H |.#XzXbX%X|.Y G T R H G G v F D D D D D D D M r M ",
"D H H D F }.$XbXJXSXBXyX$X+XY G G G G G G G G G $XBXDXPXKXGXBXyXyXnXbXyX$X$XY F F F F G G F D D H G "
};
