/* XPM */
static char *daf76d6ef78240f6c482e92dd8e16b53nboHOJnUQcgEgHkH[] = {
/* columns rows colors chars-per-pixel */
"50 50 254 2 ",
"   c #121E3C",
".  c #09293D",
"X  c #17263A",
"o  c #123138",
"O  c #272D39",
"+  c #295D3E",
"@  c #636A3E",
"#  c #181D51",
"$  c #241C45",
"%  c #082849",
"&  c #14234C",
"*  c #172847",
"=  c #02334B",
"-  c #09374C",
";  c #15354A",
":  c #082957",
">  c #152856",
",  c #0C3454",
"<  c #0D3B55",
"1  c #0D345C",
"2  c #0C3C5B",
"3  c #063B58",
"4  c #123453",
"5  c #133A55",
"6  c #113C5C",
"7  c #183659",
"8  c #242847",
"9  c #253749",
"0  c #283957",
"q  c #313250",
"w  c #072964",
"e  c #0A3866",
"r  c #133C63",
"t  c #163C68",
"y  c #113074",
"u  c #273C6A",
"i  c #47296E",
"p  c #0C425C",
"a  c #07475A",
"s  c #14435C",
"d  c #164458",
"f  c #06535A",
"g  c #0B4D4B",
"h  c #2B465A",
"j  c #364A5A",
"k  c #2F494A",
"l  c #056B5A",
"z  c #356B55",
"x  c #054563",
"c  c #0C4563",
"v  c #0B4A63",
"b  c #0D446B",
"n  c #084B6A",
"m  c #134164",
"M  c #134B63",
"N  c #14426A",
"B  c #134D6B",
"V  c #1B4566",
"C  c #0B5364",
"Z  c #0B5C6C",
"A  c #075868",
"S  c #14536C",
"D  c #135C6D",
"F  c #175466",
"G  c #0A4C74",
"H  c #144A74",
"J  c #154B79",
"K  c #194E7B",
"L  c #174675",
"P  c #085876",
"I  c #165774",
"U  c #2A4865",
"Y  c #374A65",
"T  c #275868",
"R  c #395568",
"E  c #285778",
"W  c #385775",
"Q  c #2D4C74",
"!  c #06666B",
"~  c #16646B",
"^  c #086875",
"/  c #156677",
"(  c #087678",
")  c #14747C",
"_  c #067065",
"`  c #366878",
"'  c #2F6E71",
"]  c #4C5255",
"[  c #50704F",
"{  c #656F59",
"}  c #475865",
"|  c #50546A",
" . c #48676A",
".. c #576B6C",
"X. c #45756C",
"o. c #596876",
"O. c #4F7374",
"+. c #6C7270",
"@. c #6A4C54",
"#. c #B5593C",
"$. c #D86E32",
"%. c #EC792C",
"&. c #F07E1B",
"*. c #8A3F53",
"=. c #864C4F",
"-. c #8F7454",
";. c #A57856",
":. c #AE7550",
">. c #927A6D",
",. c #A87B66",
"<. c #B45479",
"1. c #D25A45",
"2. c #C87353",
"3. c #E97163",
"4. c #2F915C",
"5. c #0E8375",
"6. c #34886F",
"7. c #4E8D59",
"8. c #718753",
"9. c #508F70",
"0. c #738974",
"q. c #53A369",
"w. c #73A46F",
"e. c #F4871B",
"r. c #EA8D18",
"t. c #F7B71B",
"y. c #F8A61C",
"u. c #DE8438",
"i. c #E98525",
"p. c #F58527",
"a. c #EB9729",
"s. c #F69526",
"d. c #F58835",
"f. c #F49D38",
"g. c #EDA927",
"h. c #F7AA28",
"j. c #EABA28",
"k. c #F7B728",
"l. c #F7A835",
"z. c #EBBB36",
"x. c #FAB935",
"c. c #EBA934",
"v. c #F7C62C",
"b. c #F7C337",
"n. c #F1CF32",
"m. c #948E59",
"M. c #B88458",
"N. c #AF8754",
"B. c #908B70",
"V. c #B58766",
"C. c #AB9767",
"Z. c #B5976A",
"A. c #A69A78",
"S. c #BB9777",
"D. c #A98A70",
"F. c #8EAD70",
"G. c #B1AE71",
"H. c #BEB45D",
"J. c #CB8C4F",
"K. c #ED9245",
"L. c #F0B74F",
"P. c #C99764",
"I. c #CB906A",
"U. c #CDAD6B",
"Y. c #E2B857",
"T. c #BDC07D",
"R. c #F9C646",
"E. c #F0CB48",
"W. c #07318E",
"Q. c #0833A9",
"!. c #5B3891",
"~. c #0C5087",
"^. c #345A85",
"/. c #086985",
"(. c #097888",
"). c #167587",
"_. c #067594",
"`. c #15738D",
"'. c #347388",
"]. c #0947B5",
"[. c #0A71AD",
"{. c #447587",
"}. c #4F738F",
"|. c #6C768D",
" X c #7250B5",
".X c #645EA6",
"XX c #1648C6",
"oX c #6159CF",
"OX c #9857B2",
"+X c #A958AB",
"@X c #9165B4",
"#X c #A7639D",
"$X c #CA7594",
"%X c #8C65C6",
"&X c #0A868B",
"*X c #12878B",
"=X c #0C8799",
"-X c #168A96",
";X c #179698",
":X c #159492",
">X c #278A9A",
",X c #399A9B",
"<X c #2B999B",
"1X c #19A59C",
"2X c #2BAB9C",
"3X c #1898A6",
"4X c #0F8DA6",
"5X c #259BA4",
"6X c #298DA6",
"7X c #1CA3A6",
"8X c #26A5A8",
"9X c #36A7A8",
"0X c #29AFAF",
"qX c #508D96",
"wX c #738B8C",
"eX c #45A19D",
"rX c #519DA4",
"tX c #7193AB",
"yX c #51ACB0",
"uX c #77B9B9",
"iX c #6BAFB4",
"pX c #79A085",
"aX c #71C2BC",
"sX c #33AFC4",
"dX c #78BCC7",
"fX c #42B3C3",
"gX c #68C4CA",
"hX c #908F86",
"jX c #B18F89",
"kX c #95A785",
"lX c #B1AD84",
"zX c #8A9AAA",
"xX c #AE8EA7",
"cX c #8EB0B8",
"vX c #A3AABD",
"bX c #D09E8D",
"nX c #8DC2B8",
"mX c #8EAFC5",
"MX c #A8BCC7",
"NX c #93CBCB",
"BX c #A8CAD4",
"VX c #B8CCD4",
"CX c #B9D6D9",
"ZX c #AECBCE",
"AX c #B8E1E6",
"SX c #C7D7DB",
"DX c #CAD0D9",
"FX c #D3E1D5",
"GX c #C8D8E5",
"HX c #D3D9EC",
"JX c #C8E4E4",
"KX c #D7E5E8",
"LX c #D9EAF5",
"PX c #E2E9EC",
/* pixels */
"3X3X5X9XeXNXBXLXPXPXHXJXPXKXAXyX8X0X7X3X5X8X1X1X5X9XdXVXFXFXJXBXSXKXJXJXSXNXdXyX8X5X5X3X7X7X8X8X3X3X",
",XrXBXLXPXPXSXZXCXCXNXuXNXBXGXHXFXVXcX,X3X4X6X6XeXGXGXKXNXdXdXyXaXaXyXNXCXCXLXCXyX5X:X-X>X>X-X*X>X>X",
"DXSXSXVXSXBXiX2X9X0X0X1X0X8XyXuXBXBXSXDXCXnXnXVXGXSXnXNXyX0X0X2X0X9X9XyXyXyXmXNXGXBXcXcXMXZXZXBXCXJX",
"iXiX,X,XyXyX<X;X;X:X;X;X3X;X;X:X5X8X9XyXiX2X8XyX9X8XyX9X;X;X1X;X3X-X;X;X;X3X;X<XrX,X;X9XuXuXrX<XrXiX",
"&X*X(.-X&X*X(.).&X*X(.&X*X( *X=X*X&X=X_.4X=X&X:X&X&X*X5.&X&X=X`.*X*X( *X*X*X*X*X&X=X=X=X-X&X*X-X&X*X",
"(.).) ) ( ( ( ) / ) ^ ( ( / )./.( (.(.(./.( '.|.hXkXkX0.9.{.( ) ( ( / ) ( ( ( ) ) ) ( ( ) ) ( ( (.(.",
"D ~ ^ ! ) / ! ! / D ~ D Z ^ / ! ^ ! ' 0.B.F.F.G.T.G.lXF.w.kXw.9.X.~ P P ^ / ! ^ ! ^ / ~ ! ! ^ / ! ~ ",
"D A ^ Z C D D Z Z A F B P P f X.X.X.0.B.lXS.A.w.U.A.9.kXbXH.U.G.F.9.F P A f A S / D Z Z Z D Z Z S S ",
"F M S C C F s f B M f n d T ' q.q.5.{.pXG.L.R.E.E.R.R.E.L.Y.Y.U.U.B.9.R g x f n Z C M M S C v C M s ",
"a M M C a < M v g d M a z 7.7.4.6.0.Y.v.n.x.b.v.n.E.b.b.R.n.E.E.H.P.U.>.Y x 5 n r V V v f M d d s s ",
"a s d d d d V 2 a , d ` 6.q.6.6.B.E.v.z.k.E.xX%X%XoX X@XxXU.x.R.b.Z.hXU.bX} 2 g a a a a s 6 6 x d d ",
"3 d  .}.7 V = m 4 R X.X.' ' ).W Y.b.R.b.z.9.].W.Q.W.W.Q.XX.XU.v.x.R.O.m.U.B.>.j > 1 2 6 5 - - 5 5 ; ",
"j o.SXKXVX}.j 9 0 X.7.7.6./ G .XL.z.k.b.F.l 1 e : % w & w Q.bXx.x.v.0.' 0.C.m.0.hXcXzX|.R d - * 6 5 ",
"VXSXSXKXCXBXVXMXo.X.q.q.6.T = +Xh.x.j.z.5.a % % : # % > w W.$Xj.z.b.0.).9.jX>.B.pXnXAXHXHXVXZXMXMXvX",
"sXfXsXsXsXsXfX,X .' 9.9.~ 5 1 +Xz.k.t.l.5.x A Z A 5 X % = w  XOX+X#Xo./ 4.7.' +.+.qX9XsXsXsXsXsXsX0X",
"3X3X3X3X3X4X>X'.T ' 7.9.! & : @Xk.L.t.k.( ^ _ /.( ! - : > 1 w y w e ( 9.m.9.+.O.+.+.}.4X4X3X3X3X3X3X",
"4X=X=X=X4X[.'.R E z { 0.S = : OXl.k.k.j.( / _ ^ /./ C > % * : % = P / 0.C.wX>.+.X.....' _.4X-X=X=X=X",
"_._.(._._.`.E R  .O.B.Z.R . > @Xx.k.x.j.( P ^ _./.( ( /./ x a P P / A D.Z.|. .O. ...o.` _._.`._._._.",
"/./.^ /./.P R }  .+.B.C.| % : @Xt.k.l.l.( ~ N.x.v.wX( ^ 8.B.O./.l ( /.o.P.>...o. .....W /././ /././.",
"I P I I P B U }  .+.>.B.| 7 w #Xh.k.k.k.( x :.k.x.C.Y.R.b.v.x.z.H.+.! ^ ..P.W `  .} } U G P I P P P ",
"J G G H G m h R  .{ hX>.] % : #Xk.z.c.y._ = 2.j.z.x.t.j.x.b.b.k.x.x.B.~ ) } ` | R R j U G G B G G G ",
"H G b N b r 0 Y  . .+.A.j ; : @Xh.g.c.h.( = 2.k.z.t.L.x.h.l.h.j.t.g.v.O.I ^.} } R R j U b b m b b N ",
"N b N t r 7 0 j W  .....Y % w @Xh.g.j.h./ > 2.k.h.xX@X.X%XjXc.x.b.h.k.J.D h U j R R j 0 e e m L m m ",
"r b t t 6 7 0 j ] D... .0 % w +Xh.g.l.h.^ , :.K.K.~.y W.W.].$Xl.c.g.h.c.f V W U Y U h 0 t e 6 e r r ",
"b t 7 1 2 7 0 h R ..+.` 7 & : OXf.g.t.g.l , W.Q.W.: : > % W.oXl.g.g.h.y.L p u j j h Y 7 e e 1 5 r r ",
"c : t t 1 7 9 k h } | R 0 & : OXy.c.s.h.( > : : : > = % % # [.K.l.g.a.a.T 2 0 h h h ; 0 t y t e 6 r ",
", V e e t u 9 9 0 Y Y Y 0 % % OXy.l.g.h._ a ; = = : % % > : ].K.a.l.a.s.F 7 9 7 0 0 9 zXtXQ t G }.|.",
"|.U r H e > * 9 0 Y Y Y 0 % > OXa.a.y.g.[ Z ! A C e : & = > XXK.a.h.a.s.2 7 ; 7 u 0 9 MXLXVXvXzXSXPX",
"HXzXwXtXtXY 0 8 9 h h U 0 % >  Xa.f.s.a.m.G f ! Z P C >   1 |.a.a.e.e.$.e 7 > 0 9 q q tXNXBXVXSXZXZX",
"JXJXSXPXKXGX9 8 9 9 h h 0 & > !.%.e.a.d.J./ G ^ n P A : : l J.a.a.&.s.;.4 > > 8 ; * < -X;X*X:X,XrXeX",
"uXqXiXtXmXtXh 8 9 9 0 0 9 * & y $Xs.a.a.s.-.! x A n c 3 f -.s.d.i.p.J.] * & * * o 8 m /.(.`.`.`.).).",
") (.>X/.(.(.S * * 8 q 0 ; X * w !.$.d.p.r.e.:.' ! f ^ z :.d.i.&.d.&.=.& * * * * * 8 s A A A / ^ ^ ^ ",
"^ Z D Z P P S , * 8 * 5 * X X > : !.3.&.i.s.e.p.J.$.u.i.&.i.%.&.%.=.% % > $ o & * 4 a n x v C f C C ",
"n S v a a a 3 < * *   O X * * X * & i <.%.%.i.i.r.r.e.&.%.%.$.#.q * * X X   8 & X 7 2 3 s d < B s p ",
"s < 6 d ; 5 5 , o k 9 * = j { 7.+ > # 8 i *.#.1.$.$.1.1.#.=.O k ] k 8 . + k $ o 4 4 7 - = p 2 4 < < ",
"d - d m , , % , [ 8.[ z [ B.S.A.m.k X & # O O * & 7 . * # 8 [ 8.C.m.{ [ m.m.[ g , = , , 1 6 , d 5 5 ",
"U R Y 4 e : X ] >.>.m.m.D.Z.S.S.jX8.[ { ] & & & 8 X % h [ @ m.A.kXjXS.U.Z.Z.D.N.{ o . 4 & * ; - 5 5 ",
"'.qXqX{.}.W ] -.;.;.-.-.V.D.A.A.C.S.P.Z.>.{ @ q   $ O m.C.-.S.D.>.C.N.P.D.I.P.;.;.-.@.| }.qX{.qX'.'.",
"/ ~ / / ).'.9.9.hXD.V.M.I.I.I.I.V.,.N.N.V.J.J.2.I.M.;.,.,.N.M.M.M.I.P.P.Z.;.,.0.+.B.hX|.'.`.)./ / Z ",
"G Z A S n b b H S `.}.+.O.'.wXC.I.P.M.J.I.J.J.M.N.-.;.N.M.J.M.J.S.V.hXqX}.}.{./ E / A A A Z P G E I ",
"' T F I I B M B c x p c v v v v ~ T ..+.+... .O.' ~ ' ' O.+.+.o.D S S S C v x v v v B E ` ` ' T S B ",
"s p p p c p 2 2 B B v B B S S S P b b B S B b N x x G n M p M B S S S I I S B B B v c c M s s s v p ",
"2 2 2 p p 2 2 2 3 3 3 3 2 2 p p c p p p a a p m V N b c c p x a 3 3 p c c 2 3 p c p 3 3 2 p c M p p ",
"2 6 p 2 < < < < 2 2 < 2 2 2 2 2 = < 7 7 , - , 5 ; ; < 5 ; ; , < p 2 2 2 2 2 2 2 2 2 2 p p 2 2 2 < < ",
"< < < < < < < < < < < < < < < < p 2 6 6 1 , 4 4 - , , , , 5 6 6 < < < < < < < 2 d < < < < < < < 5 < ",
"< < < < < < 6 6 < < 5 6 6 6 6 s d < < 2 2 5 7 7 7 6 1 1 r 2 r 2 6 2 2 6 6 6 < < 6 < , 4 5 6 6 6 6 6 ",
"6 2 2 2 2 2 2 2 < < 2 6 6 2 2 r t t m N t t r t 7 7 t t V 6 6 6 6 6 2 6 6 6 2 < 6 6 6 6 6 < < < < < ",
"r r r N N N t N m m N N N N N N N N m r t N B G B b L L ^.E Q t t t r r N N N N m m m m m r m m 2 m ",
"b L L N J J N R ^.W E t L L N ~.J J J J J J J J L ^.{.zXmX|.^.E K W Q L K K b J H H H H H H H b t N ",
"H L L H J ~.}.mXHXGXBXtX}.'.E K K K K K K K K J }.BXDXPXKXGXZXtXtXMXMXtX}.}.E J J J J J K J H H L K "
};
