/* XPM */
static char *e7a70cc078114137a8d3b03ff43c0d8aimI9oZGauFGeSt3S[] = {
/* columns rows colors chars-per-pixel */
"50 50 255 2 ",
"   c #08253C",
".  c #18263B",
"X  c #173339",
"o  c #2F3438",
"O  c #191D3E",
"+  c #4B393C",
"@  c #2E4C3D",
"#  c #2B6733",
"$  c #4E4D36",
"%  c #705830",
"&  c #516F3B",
"*  c #736E38",
"=  c #131E45",
"-  c #141E49",
";  c #1A2B45",
":  c #1B2B4A",
">  c #162746",
",  c #09364C",
"<  c #13334C",
"1  c #1B334C",
"2  c #1A3647",
"3  c #192855",
"4  c #0C3554",
"5  c #0D3B55",
"6  c #0C3C5B",
"7  c #083A5A",
"8  c #123553",
"9  c #123A55",
"0  c #1B3B55",
"q  c #113C5B",
"w  c #173559",
"e  c #082C4F",
"r  c #242C47",
"t  c #26374A",
"y  c #353B4B",
"u  c #233B52",
"i  c #283956",
"p  c #2D3052",
"a  c #0B3764",
"s  c #133C63",
"d  c #173C67",
"f  c #0F3A74",
"g  c #263B64",
"h  c #0B425C",
"j  c #07475A",
"k  c #14435B",
"l  c #154558",
"z  c #0B5156",
"x  c #284549",
"c  c #284558",
"v  c #36485A",
"b  c #345152",
"n  c #16685C",
"m  c #116B52",
"M  c #336F57",
"N  c #0B4462",
"B  c #0B4A63",
"V  c #0D446A",
"C  c #084967",
"Z  c #134164",
"A  c #134B63",
"S  c #14436A",
"D  c #134D6B",
"F  c #1B4567",
"G  c #0C5264",
"H  c #0C5B6C",
"J  c #075769",
"K  c #14536C",
"L  c #135C6D",
"P  c #165666",
"I  c #0B4A73",
"U  c #144A74",
"Y  c #154B79",
"T  c #194E7B",
"R  c #174675",
"E  c #095777",
"W  c #155875",
"Q  c #2C4568",
"!  c #374C65",
"~  c #295969",
"^  c #3A5569",
"/  c #275879",
"(  c #375875",
")  c #244D76",
"_  c #09686C",
"`  c #17666A",
"'  c #1B7667",
"]  c #096776",
"[  c #156675",
"{  c #097579",
"}  c #14747C",
"|  c #276869",
" . c #356968",
".. c #277566",
"X. c #39756B",
"o. c #276676",
"O. c #32697A",
"+. c #2C7A77",
"@. c #4E5051",
"#. c #665946",
"$. c #6E534D",
"%. c #53714D",
"&. c #71714F",
"*. c #465866",
"=. c #51546C",
"-. c #4A686A",
";. c #556768",
":. c #487568",
">. c #596B74",
",. c #517573",
"<. c #697477",
"1. c #6B736E",
"2. c #887138",
"3. c #B7742E",
"4. c #937350",
"5. c #A87850",
"6. c #847E79",
"7. c #91756C",
"8. c #A87863",
"9. c #865244",
"0. c #768A37",
"q. c #338452",
"w. c #34876B",
"e. c #538E56",
"r. c #708951",
"t. c #478A66",
"y. c #549666",
"u. c #558677",
"i. c #6B8770",
"p. c #50A16C",
"a. c #78A56E",
"s. c #52A85D",
"d. c #8D9316",
"f. c #B19615",
"g. c #888827",
"h. c #959434",
"j. c #91902B",
"k. c #B0952D",
"l. c #D69619",
"z. c #D58F15",
"x. c #E89A19",
"c. c #F69D18",
"v. c #EC9B04",
"b. c #F6A316",
"n. c #EBA117",
"m. c #DA9427",
"M. c #CA902B",
"N. c #E89727",
"B. c #EF962B",
"V. c #D9A531",
"C. c #F7A524",
"Z. c #EAA328",
"A. c #869741",
"S. c #8C8957",
"D. c #B98749",
"F. c #B38B59",
"G. c #9A876A",
"H. c #8F8D72",
"J. c #A88869",
"K. c #B28969",
"L. c #B69669",
"P. c #B89A78",
"I. c #AB9172",
"U. c #91AE74",
"Y. c #B3B374",
"T. c #93A046",
"R. c #C78657",
"E. c #D49155",
"W. c #C89468",
"Q. c #CB916E",
"!. c #D0AC74",
"~. c #0F5482",
"^. c #365C86",
"/. c #096786",
"(. c #087787",
"). c #167587",
"_. c #087693",
"`. c #0C6D8E",
"'. c #34748A",
"]. c #0B7FA3",
"[. c #457788",
"{. c #4E7190",
"}. c #6A7890",
"|. c #947F88",
" X c #09868A",
".X c #12878B",
"XX c #0B8798",
"oX c #178996",
"OX c #179798",
"+X c #159693",
"@X c #278A9A",
"#X c #279C9C",
"$X c #3B979B",
"%X c #14A09C",
"&X c #1587A4",
"*X c #1998A6",
"=X c #0990A9",
"-X c #269BA6",
";X c #2D8BAE",
":X c #1BA6A6",
">X c #0AA2B0",
",X c #26A7A8",
"<X c #35A7A7",
"1X c #2AAFAF",
"2X c #2FA89B",
"3X c #4F8C96",
"4X c #728E8E",
"5X c #5097A6",
"6X c #7393AA",
"7X c #50ACAF",
"8X c #77B9B8",
"9X c #6CADB3",
"0X c #48A19B",
"qX c #71C2BC",
"wX c #0B89C1",
"eX c #33AFC4",
"rX c #75B3C6",
"tX c #4FA8C3",
"yX c #77C6C3",
"uX c #48C3D2",
"iX c #929289",
"pX c #B4988A",
"aX c #90A586",
"sX c #ADA889",
"dX c #8DAFB5",
"fX c #AAB3AB",
"gX c #AEB2B1",
"hX c #8F9EAE",
"jX c #D0AE99",
"kX c #92C3BA",
"lX c #B5CAB9",
"zX c #C9C7B5",
"xX c #8CB2C7",
"cX c #A8BCC7",
"vX c #93CCCF",
"bX c #A8C6C9",
"nX c #B4C7CD",
"mX c #A8CAD4",
"MX c #B7CCD4",
"NX c #BAD7D9",
"BX c #B2D5D6",
"VX c #B8E1E6",
"CX c #C7D8DB",
"ZX c #C9D1CE",
"AX c #D6E4D5",
"SX c #FAF8DA",
"DX c #E9ECC9",
"FX c #C8D9E6",
"GX c #D7D9E8",
"HX c #CDD7ED",
"JX c #CAE5E5",
"KX c #D8E5E8",
"LX c #DBEDF0",
"PX c #E2E7EA",
"IX c #F1F0EA",
/* pixels */
"*X*X#X<X0XvXbXLXPXPXGXJXLXKXVX7X-X1X:X*X-X-X%X:X#X<XyXmXGXGXJXbXCXKXJXJXCXvXrX7X,X-X-X-X:X:X,X,X*X*X",
"$X7XBXKXPXLXCXbXNXBXvX8XvXbXFXGXAXMXdX$X*X&X&X;X0XFXCXJXvXrXxX7XqXyX7XvXNXNXLXBX7X-XOXoX@X@X@XoX@X@X",
"CXCXCXMXCXmX9X2X<X,X1X:X1X,X7X8XmXmXCXZXZXkXkXnXFXCXkXvX7X1X1X:X1X<X<X7X7X7XdXvXFXmXdXdXcXnXbXmXNXJX",
"9X8X$X$X7X7X#XOXOX+XOXoX*XOX+X+X;X*X<X9X9X2X,X7X<X,X7X<X+X+X%XOX*XoXOXOXOX*XOX#X5X$XOX<X8X8X7X#X5X9X",
" X.X(.oX XoX(.). X.X(. X.X{  XXX.X XXXoX&XXX X.X.X XoX X X X X_..X.X{ .X.X.X.X.X XXXXXXXXX.X.XoX(..X",
").).} } { { { } { } ] { { [ )./.{ (.(.(.] { '.}.H.aXaX4X3X'.{ { { { [ } { { { ).} { { { } } { { { { ",
"L [ _ _ } [ _ _ [ L ` L H ] ] _ ] _ +.i.H.a.U.Y.Y.Y.sXU.a.aXa.y.:.` E E ] [ ] ] _ _ [ [ _ _ _ [ _ _ ",
"L J ] H G L L H H J G B E E z :.X.:.i.H.sXpXU.a.P.I.y.U.!.Y.!.Y.U.u.P E J z J K [ L H H G L H J K K ",
"P A K G G P k z J C z A h P X.s.p...+.X.{.,.,.>.,. .-.H.G.W.!.Y.jXa.y.*.h j A S H G A A K G B G A z ",
"B A A G j 5 A B l B j N X.y.t.w.w.+.] [ / | o. .o.|  .X.' X.i.H.I.G.I.6.*.a C j a F F B j A k l k k ",
"z l l l 9 l F 6 < 4 l O.w.p.w.+.M t.` _ _ ' _ _ ` L o.` _ _ | -.;.1.1.7.K.;.7 j j j j j k q q N l l ",
", l ( {.0 F e Z e ( :.X.X.w.' H ..X.` { ' m n n ` ` [ ` | | n ` M o.>.<.i.S.&.y w q 6 q 9 , , 0 9 9 ",
"v >.CXKXMX{.v t Q -.y.t. .y.t.o.[ m ` H _ ` [ ` _ n m m ....' n ` n ^ >.<.1.G.i.iXdXhX}.^ l , > q 9 ",
"MXCXCXKXNXmXMXcX<.:.y.p...q.w.` _ ..:.,.M lXZXzXzXzXZXzXZXZXlXsXM w.m n  .>.6.H.4XkXVXHXGXMXbXcXcXgX",
"eXuXeXeXeXeXeX$XM  .y.q.+.' t.e.0.T.k.M.* SXSXSXSXSXIXSXSXSXSXfXm m z ..q.%.>.<.1.3X<XeXeXeXeXeXeX1X",
"*X*X*X*X*X*X@X'.~ O.q.y. .r.h.h.k.k.l.x.4.gXgXfXgXfXfXfXlXZXSXzX&.:.z P ..M %.>.1.<.{.&X>X*X*X>X=X*X",
"&XXXXXXX=X].^.^ ^ ..1.i.0.k.k.M.m.x.Z.N.3.$.#.$.$.$.@.a >X6XSXzXh.h.%.M P m ..;.X.>.>.'.].&XoXXXXXXX",
"_._.(._._.`./ ^ -.u.H.H.A.k.M.B.B.x.m.Z.C.Z.C.c.B.V.D.`.wXdXDXpXl.k.f.h.&  .b :.:.>.>.O._.`.)._._._.",
"/./.] /./.E ~ *.*.1.H.S.A.M.m.x.B.b.V.V.C.b.b.b.C.b.pXdXwXZXpXM.l.z.f.k.d.r.%.i.-.>.;.( /./.] /././.",
"W E W W E D ! *.=.;.i.r.A.M.l.n.C.c.c.B.C.b.Z.Z.c.V.DX9X8XzXM.m.m.M.f.j.d.g.* &.;.-.*.! E E W E E E ",
"Y E I U I Z Q *.;.;.6.;.A.k.f.B.Z.x.c.C.b.b.c.b.c.zXZXXXfX4.l.x.l.z.k.j.2.4.%.&.*.^ v c I I I V I I ",
"U I V S V s i ! *.;.<.*.&.h.j.M.z.l.C.C.n.n.b.c.jXIX;X=X7.l.z.z.f.f.j.2.$.&.$.#.! ^ v c V I V S V S ",
"S V S d s w i v ^ 1.-.c ;.&.h.j.M.z.N.c.n.b.v.E.AX8XXX-.m.z.l.f.j.j.2.#.$.#.@.@.c ! ! c s f d Z Z Z ",
"s V d d q 0 i v ^ G.1.v ! #.S.g.h.f.M.l.x.x.V.zXZX&X`.5.m.z.f.d.2.2.% #.$.@.c c c Q v t a f d 6 s s ",
"V d w 7 6 w i c *.;.>.! c c *.=.* j.f.f.M.m.!.KXtX(.$.z.k.f.d.g.* % #.#.b t c 0 i i ! w a a 6 8 s s ",
"N e d d a w r x c *.*.! 0 c v v @.&.j.d.l.5.AXnX=Xv M.f.d.j.j.% $ $ @.@.x t u 1 c ! 1 0 d a f a q s ",
"4 F a a f g i t c ! ^ ^ 0 c c c Q v & 2.g.hXNX5X/.% f.d.g.* $ @ x x y y t 1 1 2 i i t 6X6XQ s V {.}.",
"}.Q s U a 3 : t c v ! ! u u c c c u b 9.:.vX9X_.t h.g.* % $ p x t i t r 2 2 1 : g i ; cXLXMXgXhXCXPX",
"GXhX4X6X6X^ i r i i v v i : u c x x v v rXvX&XD % 2.% @.o o i 0 2 2 2 ; 1 < : 1 r p p 6XvXmXMXCXMXMX",
"FXCXCXPXKXFXr r t t v c i : u u c 2 1 ).vXrXT + * $ o t X r 2 3 2 ; ; ; : : : u 2 ; 5 oX=XXXoX<X5X0X",
"8X3X9X6XxX9Xc r r r u u t : : 1 u u 9 '.5X'.y #.+ X t 2 ; t , r ; ; ; > : > : : X ; F /.(.).).).).).",
"} ).@X`._.(.K ; r ; 2 u : : > : ; t > a f 4 $ o p X r 1 0 . ; X > > : > > ; ; > ; > F J J J [ ] ] ] ",
"] H L H E E K 4 . r > 9 ; . . 3 q ; .   - o o 1 1 1 ; . . t > > > 3 > . .   < O > 4 j C C B G z G G ",
"C K B j j j 5 5 ; : . . . ; > . > > ; 2 < 1 t ; X X ; 1 > ; > > > > 3 3 >   ; > . 0 6 7 k l 5 D k h ",
"k 5 q k < l 8 4 X x t > , b &.e.# 8 3 r > > 2 . ; > w > ; . . y # x .   b x . , 8 8 w , , h 6 8 5 5 ",
"l , l Z 4 4 e 4 M r.& M :.G.W.P.S.b     . : : ; r ; . : - = ;.i.K.L.* & H.J.#.x 7 e 4 4 7 q 4 l 8 8 ",
"Q ^ ! 8 a e . @.7.7.S.S.J.K.P.P.P.&.&.&.@.= = 3 . : > @ %.r.S.J.iXpXJ.P.W.L.L.F.1.X   8 > : < , 9 8 ",
"'.3X3X[.{.( @.4.5.5.4.4.K.J.I.P.I.P.W.L.7.&.#.o 3 . o G.P.4.K.I.I.L.F.K.J.F.F.S.5.4.$.=.{.3X[.3X'.'.",
"[ [ [ [ ).'.u.u.iXI.K.F.W.W.Q.Q.K.8.8.K.L.D.D.R.D.D.5.S.G.J.F.D.F.W.E.W.L.5.8.iX1.6.iX}.'.).).o.[ H ",
"I H J H I V V U K ).[.1.,.'.4XI.W.Q.R.R.E.E.E.F.J.8.5.8.R.R.R.R.Q.Q.iX3X[.<.,.] o.[ J J J J E I / W ",
"o.~ P W W D A D N N h N B B B G ` ~ ;.<.<.;.-.,.o.` o. .<.<.<.>.L K K K G B N B B B D / O.O.o.~ K D ",
"k h h h N h 6 6 D D B D K K K K E I V D K D V S C C I C A h A D K K K W W K D D D B N h A k k k B h ",
"6 6 6 h h 6 6 5 7 7 7 7 7 6 h N N h h h j j h Z F S V N N h N j 7 7 h N N 6 7 h N h 7 6 6 h N A h h ",
"6 q h 6 5 5 5 5 5 5 5 5 6 5 6 6 , 5 0 w 4 , 4 9 < < 5 5 < < 4 5 h 6 6 6 6 6 6 6 7 7 6 h h 6 5 6 5 5 ",
"5 5 5 5 5 5 5 5 5 5 5 5 5 5 5 5 h 6 q q w 4 8 8 , 4 4 4 4 9 q q 5 5 5 5 5 5 5 6 l 5 5 5 5 5 5 6 9 5 ",
"5 5 5 5 5 5 q q 5 5 9 q q q q k l 5 , 6 6 9 w 0 w q q 7 s 6 6 6 q 6 6 q q q 5 5 q 5 4 8 9 q q q q q ",
"q 6 6 6 6 6 6 6 6 6 6 q q 6 6 s d d Z S d d s d w w d d F q q q q q 6 q q q 6 6 q q q q q 6 5 5 5 6 ",
"s s s S S S d S Z Z S S S S S S S S d d d S D I D V R R ^./ ) d d d s s S S S S Z Z Z Z Z s Z Z 6 Z ",
"V R R S Y Y S ^ ^.( / f R R S ~.Y Y Y Y Y Y Y R R ^.[.hXxX}.^./ ) ( Q R Y T V Y U U U U U U S S d S ",
"U R R U Y ~.{.xXHXFXmX6X{.'./ T T T T T T T T Y {.mXCXPXKXFXmX6X6XcXcX6X{.{.~.Y Y Y Y T T Y U U R T "
};
