/* XPM */
static char *e4c819a631f84188be9fa206e37703daJmTvxwaUKLuL5XiJ[] = {
/* columns rows colors chars-per-pixel */
"50 50 256 2 ",
"   c #091B3C",
".  c #1A193D",
"X  c #16263B",
"o  c #15323A",
"O  c #27303B",
"+  c #56383C",
"@  c #337B3D",
"#  c #294E3C",
"$  c #081B49",
"%  c #161848",
"&  c #191B55",
"*  c #081A52",
"=  c #072749",
"-  c #182648",
";  c #0A364D",
":  c #15354A",
">  c #182956",
",  c #0C3554",
"<  c #0D3B55",
"1  c #0C3C5B",
"2  c #08395A",
"3  c #133553",
"4  c #123A55",
"5  c #123C5B",
"6  c #193659",
"7  c #072854",
"8  c #252A49",
"9  c #243849",
"0  c #283957",
"q  c #2B3057",
"w  c #0A3965",
"e  c #133C63",
"r  c #163A67",
"t  c #173877",
"y  c #0D2F6D",
"u  c #273867",
"i  c #2F3470",
"p  c #211B57",
"a  c #542F4A",
"s  c #6B2A48",
"d  c #0C425C",
"f  c #074759",
"g  c #14435C",
"h  c #154558",
"j  c #135054",
"k  c #29464A",
"l  c #2A4758",
"z  c #384A5A",
"x  c #37575B",
"c  c #2D5854",
"v  c #2E724C",
"b  c #0C4463",
"n  c #0B4B63",
"m  c #0D446A",
"M  c #074A67",
"N  c #134164",
"B  c #134A63",
"V  c #14426A",
"C  c #134D6B",
"Z  c #1A4567",
"A  c #0A5769",
"S  c #14536C",
"D  c #155769",
"F  c #0C4B72",
"G  c #144A73",
"H  c #154B79",
"J  c #194E7B",
"K  c #184675",
"L  c #085876",
"P  c #155875",
"I  c #2B4767",
"U  c #354865",
"Y  c #285769",
"T  c #395566",
"R  c #275679",
"E  c #385876",
"W  c #2B4B79",
"Q  c #08666D",
"!  c #18656B",
"~  c #096674",
"^  c #146676",
"/  c #097479",
"(  c #14747C",
")  c #2D6973",
"_  c #1A794D",
"`  c #565353",
"'  c #4B7450",
"]  c #6F7453",
"[  c #465766",
"{  c #4B506D",
"}  c #59696B",
"|  c #496877",
" . c #5C6B74",
".. c #58767B",
"X. c #4A716D",
"o. c #677765",
"O. c #686A76",
"+. c #6F7272",
"@. c #6A4C54",
"#. c #6C6D34",
"$. c #977859",
"%. c #8E754F",
"&. c #AB7A53",
"*. c #867966",
"=. c #917772",
"-. c #A97964",
";. c #9A5555",
":. c #CC7755",
">. c #EB7649",
",. c #EF6562",
"<. c #AD3E4F",
"1. c #4C963C",
"2. c #61923B",
"3. c #57A23C",
"4. c #69A43D",
"5. c #79B136",
"6. c #3B874A",
"7. c #399548",
"8. c #3A8855",
"9. c #329351",
"0. c #398668",
"q. c #33985E",
"w. c #478B48",
"e. c #479648",
"r. c #589949",
"t. c #478B57",
"y. c #569956",
"u. c #518E52",
"i. c #688253",
"p. c #669855",
"a. c #6E8E4E",
"s. c #51A64A",
"d. c #68A449",
"f. c #78A844",
"g. c #76A35E",
"h. c #4E8E6D",
"j. c #6E916F",
"k. c #70A276",
"l. c #92B638",
"z. c #ACB53C",
"x. c #818B31",
"c. c #E9BA37",
"v. c #D89D3A",
"b. c #B6CA39",
"n. c #90C23B",
"m. c #C7C83C",
"M. c #D5C936",
"N. c #CFD231",
"B. c #E5D83B",
"V. c #F3D438",
"C. c #EBE93C",
"Z. c #DBE129",
"A. c #928E53",
"S. c #B8874A",
"D. c #B08E56",
"F. c #9BA954",
"G. c #91B04C",
"H. c #B6B949",
"J. c #ABAF4A",
"K. c #938C71",
"L. c #A8876A",
"P. c #B1906D",
"I. c #95AE77",
"U. c #B6A86A",
"Y. c #C88C5A",
"T. c #CE8F55",
"R. c #EC8E4C",
"E. c #CBB14E",
"W. c #F2B648",
"Q. c #CB916A",
"!. c #C9A46C",
"~. c #E09E6C",
"^. c #B0C357",
"/. c #DED845",
"(. c #D1CB51",
"). c #E6C746",
"_. c #E6D747",
"`. c #E6D954",
"'. c #F5D251",
"]. c #D5E345",
"[. c #EDE556",
"{. c #D0CD6B",
"}. c #F3DC68",
"|. c #0E3786",
" X c #124C85",
".X c #355589",
"XX c #096886",
"oX c #146A86",
"OX c #0A7887",
"+X c #167687",
"@X c #077695",
"#X c #026B92",
"$X c #337188",
"%X c #147FA3",
"&X c #4D738D",
"*X c #6B7490",
"=X c #5A6399",
"-X c #A56788",
";X c #08858A",
":X c #14868A",
">X c #0C8799",
",X c #178A97",
"<X c #169698",
"1X c #109496",
"2X c #278A9A",
"3X c #279A99",
"4X c #399496",
"5X c #2DAC9B",
"6X c #1799A6",
"7X c #0D90A8",
"8X c #249CA8",
"9X c #379FAC",
"0X c #1DA4A5",
"qX c #1DB3AA",
"wX c #28A7A7",
"eX c #33ABAC",
"rX c #1AA59E",
"tX c #4F8C96",
"yX c #718D8B",
"uX c #519DA4",
"iX c #7091AA",
"pX c #50ACAF",
"aX c #71B1B6",
"sX c #48A19B",
"dX c #5CC3B9",
"fX c #33AFC4",
"gX c #62B3C6",
"hX c #73C4C4",
"jX c #48C3D2",
"kX c #908B8A",
"lX c #A68F82",
"zX c #AEAE84",
"xX c #889AAC",
"cX c #8EAFB7",
"vX c #97B0A1",
"bX c #CBA582",
"nX c #8CC3BC",
"mX c #A9CABF",
"MX c #8FB2C5",
"NX c #A8BCC7",
"BX c #93C9CA",
"VX c #A7C6CB",
"CX c #A9C9D4",
"ZX c #B7CCD4",
"AX c #BAD6DA",
"SX c #B0CFD1",
"DX c #BEE1D8",
"FX c #B9DDE4",
"GX c #C8D7DC",
"HX c #C8D1D9",
"JX c #CAD9E6",
"KX c #D7DAE8",
"LX c #D2DBF1",
"PX c #D7E6E7",
"IX c #D5E8ED",
"UX c #E3E7ED",
/* pixels */
"6X6X3XeXsXBXVXIXUXUXPXPXUXPXFXpXwXwX0X0X8X8XwX0XrXeXhXAXPXHXPXVXGXPXIXKXGXBXhXpXwX8X8X8X0X0XwXwX6X8X",
"4XuXSXIXUXUXGXVXAXCXBXaXBXVXJXKXJXAXcXtX2X>X<X2XiXSXIXKXCXhXhXdXhXhXpXBXAXAXIXAXpX8X<X,X2X2X2X,X2X2X",
"HXGXGXZXJXCXaX5XeXwXqXwXeXeXpXaXCXSXAXGXDXnXMXNXAXDXVXBXpXeX0XqXqXwXeXeXpXpXcXVXJXSXcXcXVXVXVXCXAXPX",
"aXaX4X4XpXpX3X<X<X1X3X,X<X<X<X1X3X0XeXpXaX4X5XgX8XeXpX9X1X6X<X,X6X1X<X1X1X6X<X3XuX4X<X9XaXaXuX3XuXpX",
";X1XOX,X;X,XOX+X;X:XOXOX;XOX;X>X:X;X;X,X,X;X;X:X1XOX;X;X;X;X:X;X:X:X( :X:X:X:X:X;X>X>X>X,X:X;X,X;X:X",
"OX+X( ( / / / ( / ( ( / / ( +XOXoX:X/ #X@X#XoXj.K.zXI.k.yX4X( ~ / / ^ ( / / / ( ( ( / / ( ( / / / / ",
"D ^ Q Q ( ^ Q Q ~ Q ! A A Q Q Q XXXX0.k.j.A.(.{.(.(.E.).'.E.g.k.X.Q L L L ^ Q / Q ~ ^ ^ Q Q ~ ^ Q Q ",
"D A ~ A A D P A L A A n L L f ..0.p.F.E.).(.G.r.4.r.9.e.G.(.`.(.I.h.j L A n A S ^ D A A A D A A S S ",
"D B S A A D h f j F f S w Y | 9.=.R.).H.h.s.e.r.8.t.w.d.4.r.5.(.B.G.h.x M M M n A A B B S M n n B j ",
"n B B n f < B n Z b f < X.q.X.;.R.c.l.4.r.G.J.H.F.F.H.J.J.h.s.d.M.[.F.A.{ e M 4 e Z Z n f B h h g g ",
"f h h h h h Z 1 4 ; j X.' q.a >.W.G.u.d.z.B.{..X|.y  XzX`.m.w.9.l.'.N.a.!.` f w f f f f g 5 5 M h h ",
"; h E &X6 Z = N 5 l X.X.) x s >.W.G.3.r.(._.] : - 7 y =XV./.f.7.J._.`.4.j.K.*.h > 5 1 5 h ; ; 4 4 4 ",
"z  .GXPXZX&Xl 9 k X.h.8.) c a >.'.l.a.2.B.M.w.> u 8 > -X).B.d.u.n._.'.i.T U.K.g.kXvXcX*XT j ; - 5 4 ",
"ZXGXGXPXAXCXZXNXo...t.y.0.! a R.).G.r.r.(._.1.i u > > =.V.B.r.7.z.}._.i.E +.A.kXyXnXFXJXKXHXVXNXNXcX",
"fXjXfXfXfXfXfX4XE ) h.h.( j s >.W.l.8.3.N.).' 6 K 0 3 -X).'.p.d.f._._.] i } &Xo.+.tX9XfXfXfXfXfXfXeX",
"6X6X6X6X6X7X2X$X) ) 0.u.g.j.a >.W.J.y.d.z.V.o.> u 8 - -X).B.4.r.z.`.).x I z  .+.o.+.&X,X7X6X6X6X6X6X",
"7X>X>X>X7X>X$XT x ) X.P.!.K.q <.:.E.G.6.p./.z.' u ;  X-X'.b.9.t.H.N.A.> l { T  .X.} } $X@X>X,X7X>X>X",
"@X@XOX@X@XoXR T | O.K.I.U.*.I = y .XK.J.F.i.l.).^.bX{.).z.6.y.J.(.#.3 u t W Y  .| }  .$X#XOX+X@X@X@X",
"XXXX~ XXXXL Y [ [ O.K.K.] O.W p 7   = t *XJ.p.t.p.u.p.u.u.w.p.].A.+ 7 3 x x T o.|  .} R XXL ^ XXXXXX",
"P L P P L C U [ )  .-X=.j.&XR 4 - > y =XU.z.a.8.8.9.8.e.8.w.d.r.b.m.i.i I ..| } | } [ I L L P L L L ",
"H F F G F N I [ | } +.o.*XE q q .XxX{.G.r.r.G.J.D.kXlXI.H.' t.8.f./.`.] I [ | { T T z I F F G M F F ",
"G F m V m e 0 U [  .+.=.{ U ;.,.c.J.r.3.d./.H.c = * $ |.zXN.r.y.e.m.[.m.k U E T T x z I m m V b m m ",
"V m e r e 5 0 z x } .. .{ a :.c.H.e.1.g.b._.i.= = % * g I.'.5.y.y.N.[.Z.] U I k T T z 0 w w r N N N ",
"e m e r 5 6 0 z z K.] [ I s R.W.l.9.y.f._.B.v X > = $ y vX'.J.7.d.N.`._.i.i I { z l l 0 r w r 5 e e ",
"m r 6 2 1 6 0 l x } +.E 5 s R.).G.1.u.l.`.`.v u 6 > * t I.`.G.t.d.b.}.C.i.> U l z k z q w w , 5 e e ",
"b 7 r e w 6 8 k l { [ Y u s >.W.G.6.e.5.V.`.w.X 6 X $  XI._.l.e.d.N.'.].] u u 0 l l 9 6 r r t w 5 e ",
", Z w w r u 0 9 z [ T T q s >.'.f.u.t.p.B.'.^.=Xt  X XyXC.M.a.6.g.M.V.].# 6 i l q 0 9 xXiXI e F &X*X",
"*XI e G w > - 9 9 U U z q a ;.R.H.1.y.u.d.m.M._._.(.].`.H.r.8.g.z./.B.x.5 6 0 0 0 0 9 NXIXHXNXxXGXUX",
"KXxXyXiXiXT q 8 0 U I z 6 & a a K.z.y.7.p.p.w.4.z.z.p.t.e.r.5.l.N.].A.- > 9 > 0 9 q 8 iXBXVXZXJXSXSX",
"JXGXGXUXPXJX9 8 8 0 k l 6 > p % y O.J.z.p.e.e.t.*.i.7.t.y.y.4.m.z.` - - 8 u r o o 9 1 ,X1X1X<X3XuXsX",
"aXtXaXiXMXiXl 8 9 9 9 9 > > - * % $   ` %.*.A.A.%.$.A.A.S.D.x.  . % > > > q X > o 8 Z oX@XoX+X+X+X+X",
"( +X2XoXOXOXS - ; 8 8 q > 3 - & $ %   7 - 4 j ] %.S.` 3 : =   $ = % & > : > - - - 8 Z L A M ^ Q ~ ~ ",
"~ A D A L L S , = - - : - > $ > - j j v ' y.r.4.F.S.A.' y.6.@ j - = $ - = p = % - 3 f M M n D j n n ",
"M S n f f f < < O - - - % - 9 ' 3.3.6.v 6.w.' c z [ v _ 8.t.v ' 8.v j = % .   X X 6 1 2 g h < C g d ",
"g 1 g h : h 3 , X # O X = l c v i.] v v v @ v f p - k _ v i.v 7.v v 6.@ c j - 3 3 3 5 ; ; d 1 3 4 < ",
"h ; g N , , = , v i.i.v v L.~.!.A.A.i.&.' c 6 % 7 % 9 j l %.%.' P.Q.i.v P.F.' k , = ; , 2 5 , h 3 3 ",
"I T U 3 w 7 X ` $.$.K.=.L.L.P.Q.!.%.w.*.z - $ - p > = k 2.a.A.L.K.bXP.U.!.Q.D.P.o.o   3 - - : ; 4 3 ",
"$XtXtX&X&XE ` ;.-.-.$.A.L.L.P.P.P.Q.!.Y.A.] ` O X   O $.P.*.P.P.K.D.L.P.L.D.F.&.$.%.@.{ &XtX&XtX$X$X",
"^ ^ ^ ( +X$Xh.h.=.L.D.S.T.Y.!.Y.P.&.A.L.Q.S.D.T.Y.S.&.-.A.$.Y.S.P.D.T.~.L.-.L.*.+.K.kX*X$X+XoX) ^ L ",
"F L A S F m m C ^ oX| O.tX$XyXP.Q.P.:.T.T.T.Q.S.L.=.-.&.D.T.:.Y.Y.Q.lX4X&X+.&XoX) ^ A A A A L F R P ",
") Y D D D C B C b b d b n n n n ! Y } +.+.} X...) ! ) ) ..O.+. .D S S S C n M n n n C R ) ) ) Y S C ",
"g d d d b d 1 1 C C n C S S S S L F N C S C b V M M F M B d B C S S S P P S C C S n b b B g g g n d ",
"1 1 1 d d 1 1 1 2 2 2 2 1 1 d d b d d d f f d N Z V m b b d M f 2 2 d b b 1 1 d b d 1 2 1 d b B d d ",
"1 5 d 1 < < < < < < 1 1 1 1 1 1 ; < 5 6 , ; , < : : < 4 : : ; < d 1 1 1 1 1 1 1 2 2 1 d d 1 1 1 < < ",
"< < < < < < < < < < < < < < < < d 1 5 5 3 , 3 3 ; , , , < 4 5 5 < < < < < < < 1 h < < < < < < < 4 < ",
"< < < < < < 5 5 < < 4 5 5 5 5 g h < ; 1 1 4 6 6 5 5 5 2 e 1 1 1 1 1 1 1 5 5 < < 5 < , 3 4 5 5 5 5 5 ",
"5 1 1 1 1 1 1 1 1 1 1 5 5 1 1 e r r N V r r r r 5 5 r r Z 5 g 5 5 5 1 5 5 5 1 1 5 5 5 5 5 1 < < < 1 ",
"e e e V V V r V N N V V V V V V V V N r r Z C M C m K K .XR W r r r e N V V V V N N N N N e N N 1 N ",
"m K K V H H V E .XE R t K K V  XH H H H H H H H K .X&XxXMX*X.XW J E I K J J m H G G G G G G G m e V ",
"G K K G H  X&XMXLXFXVXiX&X$XR J J J J J J J J H &XCXHXUXPXJXCXiXiXNXMXiX&X&X.XH H H H J J H G G K J "
};
