/* XPM */
static char *_06f7c9d66ac4fb9aa51218371724b87KNqxSvyYWLoMtM9L[] = {
/* columns rows colors chars-per-pixel */
"50 50 256 2 ",
"   c #151D39",
".  c #121C35",
"X  c #17273C",
"o  c #133339",
"O  c #372735",
"+  c #332D2E",
"@  c #211F27",
"#  c #452A39",
"$  c #49322E",
"%  c #42361C",
"&  c #36503B",
"*  c #36723F",
"=  c #5B513B",
"-  c #161D48",
";  c #141D55",
":  c #0F1954",
">  c #072A47",
",  c #142444",
"<  c #1B2B42",
"1  c #14244C",
"2  c #18294A",
"3  c #09374D",
"4  c #17354A",
"5  c #1B2D54",
"6  c #162958",
"7  c #0D3553",
"8  c #0D3B55",
"9  c #0C3C5B",
"0  c #08395A",
"q  c #123553",
"w  c #123A55",
"e  c #123C5B",
"r  c #193557",
"t  c #072E53",
"y  c #242A47",
"u  c #24364A",
"i  c #243B5C",
"p  c #263956",
"a  c #2F304F",
"s  c #0B3965",
"d  c #133C63",
"f  c #163B67",
"g  c #1B376D",
"h  c #263A63",
"j  c #333863",
"k  c #0B425C",
"l  c #07475A",
"z  c #14435B",
"x  c #164458",
"c  c #124F4D",
"v  c #2C4659",
"b  c #36495C",
"n  c #2E4F51",
"m  c #346F51",
"M  c #0C4463",
"N  c #0B4A63",
"B  c #0D446A",
"V  c #074A67",
"C  c #134264",
"Z  c #134A63",
"A  c #14426A",
"S  c #134D6B",
"D  c #1A4567",
"F  c #0B5264",
"G  c #08586A",
"H  c #14536C",
"J  c #135C6D",
"K  c #175567",
"L  c #0C4B72",
"P  c #144A73",
"I  c #154B79",
"U  c #194E7B",
"Y  c #174675",
"T  c #085877",
"R  c #165876",
"E  c #2B4666",
"W  c #364D65",
"Q  c #285969",
"!  c #3A5466",
"~  c #285779",
"^  c #375875",
"/  c #264C75",
"(  c #09666B",
")  c #186469",
"_  c #086675",
"`  c #156677",
"'  c #087579",
"]  c #14757B",
"[  c #1E7763",
"{  c #286675",
"}  c #316E70",
"|  c #1F6E5B",
" . c #4B5858",
".. c #505253",
"X. c #6A5348",
"o. c #476E4E",
"O. c #717357",
"+. c #465865",
"@. c #4B5269",
"#. c #46666A",
"$. c #57696A",
"%. c #476A77",
"&. c #596973",
"*. c #4F7770",
"=. c #667669",
"-. c #757769",
";. c #697578",
":. c #707173",
">. c #684D60",
",. c #472D5C",
"<. c #B37C32",
"1. c #986631",
"2. c #856A57",
"3. c #987957",
"4. c #8D7350",
"5. c #B07B56",
"6. c #8D7568",
"7. c #A57866",
"8. c #388B59",
"9. c #4A935A",
"0. c #4D8A58",
"q. c #458A66",
"w. c #50906D",
"e. c #769666",
"r. c #68946D",
"t. c #5AA46A",
"y. c #689953",
"u. c #EFA62C",
"i. c #DF9E26",
"p. c #8C8654",
"a. c #B18C55",
"s. c #988479",
"d. c #918B6F",
"f. c #A7886B",
"g. c #B68B6A",
"h. c #AC9768",
"j. c #B79568",
"k. c #AE9277",
"l. c #8FAD6F",
"z. c #A8A56E",
"x. c #B6A15E",
"c. c #C48A55",
"v. c #CC8C51",
"b. c #D7B15C",
"n. c #C79776",
"m. c #C89169",
"M. c #D7AA6E",
"N. c #D7B669",
"B. c #CAA97C",
"V. c #DBAD77",
"C. c #D9B578",
"Z. c #C9B36E",
"A. c #E6B969",
"S. c #EBBB79",
"D. c #F4B772",
"F. c #ECB055",
"G. c #ECC37C",
"H. c #E7C779",
"J. c #F4C77B",
"K. c #F2CA73",
"L. c #DEC66B",
"P. c #125081",
"I. c #365C86",
"U. c #096886",
"Y. c #077687",
"T. c #167687",
"R. c #067895",
"E. c #0C6D8A",
"W. c #347388",
"Q. c #147FA3",
"!. c #4F738E",
"~. c #69758A",
"^. c #587EA5",
"/. c #0B8489",
"(. c #11858A",
"). c #0C879A",
"_. c #168996",
"`. c #179698",
"'. c #129390",
"]. c #278A9A",
"[. c #269B9B",
"{. c #38999A",
"}. c #348E92",
"|. c #2EA79B",
" X c #1798A6",
".X c #098EAB",
"XX c #249CA5",
"oX c #389CA6",
"OX c #19A4AC",
"+X c #27A5A8",
"@X c #31ADAB",
"#X c #1FA19F",
"$X c #518C94",
"%X c #708F8A",
"&X c #519DA4",
"*X c #7191AB",
"=X c #48A6AC",
"-X c #51AFB1",
";X c #77B6B9",
":X c #6FABB5",
">X c #48A19B",
",X c #75C2B9",
"<X c #33AFC4",
"1X c #68A9C7",
"2X c #26C0C8",
"3X c #56C5D5",
"4X c #76C6C5",
"5X c #968E8D",
"6X c #AD9689",
"7X c #8F94AE",
"8X c #B39DB2",
"9X c #90B0B7",
"0X c #AAAAAD",
"qX c #B1A68D",
"wX c #C9AD87",
"eX c #D8B685",
"rX c #CCA992",
"tX c #E6B886",
"yX c #F7BD87",
"uX c #ECB68A",
"iX c #C5A8A2",
"pX c #8FC2B9",
"aX c #DAC486",
"sX c #ECC483",
"dX c #ECC48A",
"fX c #E7C987",
"gX c #F3C484",
"hX c #F3C48A",
"jX c #F5C987",
"kX c #EAD187",
"lX c #F5D484",
"zX c #EAC893",
"xX c #F4C592",
"cX c #F9D193",
"vX c #8EB2C5",
"bX c #A5BAC3",
"nX c #AFBFCF",
"mX c #8E8ECC",
"MX c #96C9C6",
"NX c #8DCCCD",
"BX c #A7C6CA",
"VX c #A9C9D4",
"CX c #B6CCD5",
"ZX c #B9D6D8",
"AX c #B1D0D2",
"SX c #B7D8E3",
"DX c #B2E2E5",
"FX c #C7D7DA",
"GX c #CAD3D9",
"HX c #CBDBE6",
"JX c #D5D9ED",
"KX c #CBE5E6",
"LX c #D8E5E8",
"PX c #D8E8F3",
"IX c #E3E9ED",
"UX c #C3E1D5",
/* pixels */
" X X[.@X>XNXBXPXIXIXLXKXIXLXDX-XOX+XXXXXXX[.+XOX X=X;XZXLXFXKXAXFXLXKXKXFXMX;X=X+XXXXXXXOXOX+X+X X X",
"{.&XAXPXIXIXFXBXZXAXNX;XNXBXZXJXUXFX;X}.XX_._.).>XVXKXHXMX4X4X-X,X4X-XNXZXZXLXZX=XXX`._.].].]._.].].",
"GXFXFXCXFXVX:X|.@X@X@X#X@X@X-X,XBXCXSXFXZXNXMXCXFXSXVXvX@X+X@X+X+X@X@X=X-X-X9XMXHXAX9X9XbXBXBXVXZXKX",
":X;X{.{.=X-X[.`.`.'.`._.`.`.`.'.+XXX=X:X:X{.oX=X|.|.=X=X X X`.'. X_.`.`.`. X`.[.&X{.`.oX;X;X&X[.&X:X",
"/.'.Y._./._.Y.T./.(.Y.' (.Y.(.)./.'./.R. X_./.'.).R.).).T.' Y.).(.(.' (.(._._.(./.).).)._.(.(._./.(.",
"T.T.] ] ' ' ' ] ' ] ] ' ' ] T.Y.Y.Y.Y.Y.Y._ T.$Xs.qXl.9.%X$XY.Y.' ' ` E.' ' ' T.] ] ' ' ] ] ' ' ' ' ",
"J ` ( ( ] ` ( ( ` J ) J G ( ( ( _ T } %Xt.t.l.Z.S.H.A.L.H.Z.e.e.*.) T T T ` _ ' ( ( ` ` ( ( ( ` ( ( ",
"J G _ G F J J G G F K H T T l *.*.e.e.t.r.B.J.K.sXgXfXzXeXzXxXC.l.w.K T G l G H ` J J G F J G G H H ",
"K Z H F F K z l F Z k F l K { 9.} l.t.d.yXhXG.gXhXsXJ.aXmXZ.zXuXdXz.=.@.V V V N G F Z Z H F N F Z z ",
"N Z Z F l 8 Z N N Z k s } r.} ] [ q.d.H.H.lXaXdXH.lXyXD.jXsX7X5XK.sXz.r.+.2 l Z s D D N N Z x x z z ",
"l x x x x x D 9 0 e c } q.9.t.8.` q.tXgXdXC.kXyXyXuXkXK.xXyXH.lXhXgXaX*.j.$.7 0 l l l l z e e M x x ",
"3 x ^ !.r D > C 4 v #.*.{ w.q.} } z.J.zXxXsXJ.A.h.X.a X.k.G.fXyXxXdXsXh.} e.4.j 6 e 9 e w 3 3 w q q ",
"b &.GXLXCX!.v u p *.9.q.{ ) ( G | C.H.5XeXfXG.2.  + + @ . 5.J.dXhXjXsXZ.j.n.s.r.5X9X7X~.! c 3 2 e w ",
"CXFXFXLXZXVXCXnX=.%.w.9.8.( l [ J H.jX5XwXG.S.@ % O + + X 1.D.gXH.A.zXM.} f.d.d.%XpXDXHXJXCXBXbXbX9X",
"<X3X<X<X<X<X<X{.#.m 9.q.} G H #.m H.dXjXK.jXM.@ .   . . X <.A.fXkXxXH.Z.Q $.-.~.:.$XoX<X<X<X<X<X<X@X",
" X X X X X X].W.Q } q.w.e.r.| 9.q.B.0XG.gXH.B.! nXUXVX:X@ i.S.J.sXyXjXV.n ~.;.=.-.;.!._..X X X X X X",
").).).)..XQ.W.! Q #.*.z.b.e.} 0.} wX0XfXJ.H.M.OX2X3X3XNX%Xu.b.hXH.G.gXV.W ^ #.&.%.$.$.W.R.)._..X).).",
"R.R.Y.Y.R.E.~ ! #.~.d.z.h.d.-.| Q yXdXxXS.hXfX.X.X.X.X.X^.u.H.tXiXuXgXC.E / W $.%.$.$.W.R.E.T.R.R.R.",
"U.U._ U.U.T Q +.+.&.d.f.-.f.O.#.H F.D.gXS.eXyX6XE.R.Y.Y.~.A.xXN.7XrXH.N.v E W =.%.$.$.~ U.T ` U.U.U.",
"R T R R T S W +.%.;.6.d.6.6.-.@.n v.jXkX8X7XfXA.rXd.%X5XA.S.D.xXaXlXjXC.h E W &.%.$.+.E T T R T T T ",
"I L L P L C v +.#.$.5X=.&.:.:.&.f 3.V.G.H.tXK.jXS.dXJ.xXsXxXH.H.H.gXhXC.p v b ! ! +.b E L L P V L L ",
"P L B A B d i W  .%.;.:.%.W +.+.p j <.b.dXyXzXdXkXxXfXD.sXG.cXfXK.J.gXC.5 h ^ ! ! ! b E B B A M B A ",
"A B f f C e i b  .$.$.;.@.W.! b j 5 $ 1.M.J.zXD.H.rX1XzXkXxXS.7XrXtXsXC.u p E b ! ! b i s s f Z C C ",
"d B f f e r p b W s.=.+.v ^ ~ v e y r ,.= 4.v.aXK.uXC.J.wX3.F.eXeXkXfXC.p r E W b v v p f s f e d d ",
"B f r 0 9 r i v  .&.&.+.i i h i r 4 5 5 y + % # + # O O % X.S.K.zXH.jXM.5 6 i n b v b 5 s s 7 e d d ",
"M t g f s r u v v +.+.! p i h i h u , 6 6 6 ; < y $ + y @ 1.A.sXiXwXdXM.4 5 i E v v u 5 f g g s e d ",
"7 D s s f h p u p b ! W i i i i 6 r 5 6 1 < X 2 6 1 ; 6 a i.D.hXiXrXdXN.< 2 p h j p u 7X*XE d L !.~.",
"~.E s P s 6 2 u v b W W i i p 5 4 6 1 u , , 2 ; 2 1 1 1 = u.D.gXzXfXsXM.2 1 5 p i p u bXPXGXbX7XGXIX",
"JX7X%X*X*XW p y p v v E r r 5 5 >.2.2.2.2.2.O.O.2.2.O.O.3.A.G.H.J.K.gXV.1 2 2 < u a y :XNXMXCXHXAXAX",
"KXFXFXIXLXHXy y u p p v 5 5 5 5 m.C.S.jXJ.gXhXS.S.V.0XG.sXgXdXH.hXsXhXV.2 1 2 4 o y 9 _.`.'.`.{.&X>X",
";X$X:X*XvX:Xv y u u p i 5 5 2 1 h.5X6XfXkXzXxXK.H.wX8XgXK.yXhXgXhXdXhXV., , , y o y C E.R.E.T.T.T.T.",
"] T.].E.Y.Y.H < < y u u 1 5 1 1 n.sXjXxXsXG.jXK.dXG.hXhXH.yXlXsXG.H.sXV., , - < < y C G G F ` _ _ _ ",
"_ J J J T T H 7 , y X 4 2 1 1 - j.K.zXqXmXC.J.yXsXgXgXhXhXdXsXfXgXfXdXM.  > 1 X 2 7 l V V N F l F F ",
"F H N l l l 8 8 X < X y   - 1   j.G.J.K.tXG.dXfXJ.fXsXjXJ.K.J.gXgXS.G.V.: - . X X r 9 0 z x 8 S z k ",
"z 9 e x 4 w q 7 1 x u 1 > n  .< f.C.S.V.M.C.V.A.N.M.V.eXC.V.V.V.N.C.tXx.c n - 6 7 q e 3 3 k 9 7 8 8 ",
"x 3 x C 7 7 > 7 m y.O.m o.a.m.4.& m * & $ $ # + # + + + O < X ..X.4.O.m a.a.o.n 0 > 8 0 0 e 7 x q q ",
"E ! W q s t X  .1.p.p.4.f.k.k.n.a.p.0.y...O O # O a y & o.p.f.f.5Xh.m.B.M.x.k.a.=.o o q 2 < 4 3 w q ",
"W.$X$X!.!.^ ..2.3.7.3.3.g.k.k.z.6Xn.n.c.6.O...O ; 2 + p.j.4.f.k.5Xn.a.g.7.h.a.5.3.2.>.@.!.$X!.$XW.W.",
"` ` ` ` T.W.w.w.d.s.g.5.m.m.m.v.f.a.5.g.g.c.c.a.a.a.3.f.f.7.c.5.c.a.v.B.g.5.7.%X-.6.5X~.W.T.T.{ ` J ",
"L T F H L B B P R ` %.=.*.W.%Xk.j.m.v.c.v.m.c.c.f.3.7.5.c.v.c.c.k.j.6X}.~.%X!.` { ` G G G G T L ~ R ",
"{ Q K K K S Z S M M M M N N N F ) Q $.;.;.$.#.*.{ ) { } ;.;.;.&.J H H H H N M N N N S ~ { { { Q H S ",
"z k k k M k 9 9 S S S S H H H H T L B S H S B A V V L V Z k Z S H H H R R H S S S N M M Z z k z N k ",
"9 9 9 k k 9 9 9 0 0 0 0 0 0 k k M k k k l l k z D A B M M k M l 9 9 k M M 9 0 k M k 9 9 9 k M Z k k ",
"9 z k 9 8 8 8 8 9 9 9 9 9 9 9 9 3 8 r r 7 3 7 w 4 4 8 8 4 4 3 8 k 9 9 9 9 9 9 9 8 0 9 k k 9 9 9 8 8 ",
"8 8 8 8 8 8 8 8 8 8 8 8 8 8 8 8 k 9 e e q 7 q q 3 7 7 7 7 w e e 8 8 8 8 8 8 8 9 w 8 8 8 8 8 8 8 w 8 ",
"8 8 8 8 8 8 e e 8 8 w e e e e z x 8 3 9 9 w r r e e e 0 e e 9 9 9 9 9 9 e e 8 8 e 8 7 q w e e z e e ",
"e 9 9 9 9 9 9 9 9 9 9 e e 9 9 d f f C A f f d f e e f f D e e e e e 9 e e e 9 9 e e e e e 9 8 8 8 9 ",
"d d d A A A f A C C A A A A A A A A C f f D S V S B Y Y I.~ / f f f d d A A A A C C f C d d C Z 9 C ",
"B Y Y A I I A ^ I.^ ~ g Y Y A P.I I I I I I I I Y I.!.7XvX^.I.~ / ^ / Y I U B I P P P P P P P B f A ",
"P Y Y P I P.!.vXHXSXBX*X!.W.~ U U U U U U U U U !.VXGXIXLXHXVX*X*XnXbX*X!.!.~ I I I I U U I P P Y U "
};
