/* XPM */
static char *_fe763ba28e14e33de30d0ecde14f005AbVgq5wcbM53ooWe[] = {
/* columns rows colors chars-per-pixel */
"50 50 256 2 ",
"   c #130E0E",
".  c #093619",
"X  c #132B13",
"o  c #293B1C",
"O  c #0F352A",
"+  c #263225",
"@  c #191923",
"#  c #0D491B",
"$  c #126F1B",
"%  c #094925",
"&  c #1A4529",
"*  c #0F4E2F",
"=  c #2E4B26",
"-  c #107031",
";  c #25743A",
":  c #366C33",
">  c #34461E",
",  c #724F13",
"<  c #6E5A2B",
"1  c #51712F",
"2  c #6E7028",
"3  c #655818",
"4  c #0D2C49",
"5  c #132B4B",
"6  c #09344C",
"7  c #18354B",
"8  c #132E54",
"9  c #0D3553",
"0  c #0C3B54",
"q  c #0D355C",
"w  c #0D3C5A",
"e  c #043955",
"r  c #123453",
"t  c #123B55",
"y  c #123C5B",
"u  c #183858",
"i  c #0A2D55",
"p  c #243A54",
"a  c #0D3C64",
"s  c #093965",
"d  c #133D64",
"f  c #133D6A",
"g  c #173666",
"h  c #153C75",
"j  c #273869",
"k  c #0C4255",
"l  c #0D435B",
"z  c #0D4A5D",
"x  c #07455A",
"c  c #134155",
"v  c #13435B",
"b  c #124A5E",
"n  c #1A455C",
"m  c #16565B",
"M  c #0F5050",
"N  c #2D4D52",
"B  c #17714A",
"V  c #2F6B49",
"C  c #0C4B62",
"Z  c #0E456B",
"A  c #0D4B6C",
"S  c #084865",
"D  c #134264",
"F  c #124C63",
"G  c #13426A",
"H  c #124C6A",
"J  c #1A4566",
"K  c #0C5364",
"L  c #0C556B",
"P  c #0C5B6B",
"I  c #075867",
"U  c #125264",
"Y  c #13546C",
"T  c #1B556B",
"R  c #135C6D",
"E  c #1B5669",
"W  c #0E4E71",
"Q  c #084777",
"!  c #154B79",
"~  c #194E7B",
"^  c #174774",
"/  c #0E5173",
"(  c #0D5D73",
")  c #0E5979",
"_  c #085876",
"`  c #125D73",
"'  c #155976",
"]  c #294A68",
"[  c #34546C",
"{  c #224973",
"}  c #27577A",
"|  c #375975",
" . c #27566F",
".. c #0A656C",
"X. c #13646E",
"o. c #0C6372",
"O. c #086878",
"+. c #136372",
"@. c #1B6B7C",
"#. c #156879",
"$. c #0B747C",
"%. c #0A777A",
"&. c #15747C",
"*. c #02776D",
"=. c #296479",
"-. c #386675",
";. c #6C7349",
":. c #596C76",
">. c #516F78",
",. c #51695A",
"<. c #5A3C3A",
"1. c #8E4F0E",
"2. c #B55910",
"3. c #916C1A",
"4. c #AC7014",
"5. c #8C5326",
"6. c #89742A",
"7. c #AC6D25",
"8. c #CD651E",
"9. c #937C54",
"0. c #917773",
"q. c #A96B5E",
"w. c #17863A",
"e. c #068E3A",
"r. c #379235",
"t. c #3BA436",
"y. c #2C991C",
"u. c #488936",
"i. c #4D8B2F",
"p. c #73892D",
"a. c #51A12E",
"s. c #168D43",
"d. c #2C9152",
"f. c #0F847F",
"g. c #369176",
"h. c #30A65F",
"j. c #468848",
"k. c #678F74",
"l. c #50A872",
"z. c #59965D",
"x. c #888359",
"c. c #838C73",
"v. c #8E8C27",
"b. c #105687",
"n. c #2D5789",
"m. c #0B6482",
"M. c #066A84",
"N. c #166883",
"B. c #09758D",
"V. c #087886",
"C. c #147483",
"Z. c #167888",
"A. c #166692",
"S. c #0B7491",
"D. c #047A9A",
"F. c #197699",
"G. c #076697",
"H. c #396988",
"J. c #267886",
"K. c #367A8C",
"L. c #2C7193",
"P. c #1479AA",
"I. c #43678A",
"U. c #46788C",
"Y. c #597C98",
"T. c #4E7291",
"R. c #677B8E",
"E. c #5575A7",
"W. c #4B5C90",
"Q. c #0A8589",
"!. c #14858D",
"~. c #0D849D",
"^. c #0A8895",
"/. c #168997",
"(. c #169897",
"). c #0A9597",
"_. c #278A99",
"`. c #378492",
"'. c #24999A",
"]. c #319795",
"[. c #25A59C",
"{. c #39A69D",
"}. c #1789A3",
"|. c #1495AB",
" X c #1499AE",
".X c #1A99A6",
"XX c #169BB1",
"oX c #0A8EAB",
"OX c #269DA3",
"+X c #3584B1",
"@X c #1AA3A8",
"#X c #29A5A9",
"$X c #36A7A6",
"%X c #27B3A8",
"&X c #39ABBB",
"*X c #31ADB3",
"=X c #1EA39E",
"-X c #508D97",
";X c #69869A",
":X c #6C858D",
">X c #4FB092",
",X c #4A99A7",
"<X c #5798AC",
"1X c #688AA9",
"2X c #728FB0",
"3X c #49A4AB",
"4X c #5AA5AB",
"5X c #4FAEB3",
"6X c #75A4AA",
"7X c #77B7BA",
"8X c #6BAFB4",
"9X c #5CC082",
"0X c #3AAFC1",
"qX c #36B3C5",
"wX c #2EB0C3",
"eX c #2A95C9",
"rX c #4891D1",
"tX c #44B5C6",
"yX c #53ABD1",
"uX c #6CB3D1",
"iX c #56BBE9",
"pX c #4BC1C9",
"aX c #70C8C8",
"sX c #8E9092",
"dX c #899AAB",
"fX c #96A8B6",
"gX c #90AEB6",
"hX c #A8ABB8",
"jX c #A69D98",
"kX c #98BAC5",
"lX c #8AB6C7",
"zX c #A8BBC6",
"xX c #AEBFD2",
"cX c #87C8C6",
"vX c #98C9CB",
"bX c #A8C5CA",
"nX c #B6C4CC",
"mX c #A9CAD3",
"MX c #BACBD6",
"NX c #BAD4DA",
"BX c #AED1D1",
"VX c #BBE1DE",
"CX c #BBD9E3",
"ZX c #BBE1E2",
"AX c #C7D5DB",
"SX c #D5DBDA",
"DX c #C4CED8",
"FX c #CBDBE6",
"GX c #D3DEE4",
"HX c #D6DAE6",
"JX c #CEDCF4",
"KX c #D7E4E7",
"LX c #D4E5EC",
"PX c #E4E7EC",
"IX c #E7EBF9",
"UX c #DCE3E5",
/* pixels */
".X.X'.$X,XvXbXLXPXKXAXFXIXPXVX>XOX#XOX.X#X#X@X@X@X$X7XNXKXSXGXbXBXLXSXKXNXcXaX3X#XOXOX.X@X@X@X#X.X.X",
"].4XBXLXPXIXAXbXMXmXcXcXvXbXFXFXFXBX7X]._./._._.-XCXHXFXbX7XaXpXlXaX8XcXNXFXLXNX3XOX/./._._././._._.",
"DXAXAXMXAXmX8X{.$X%X%X[.%X[.5XuXbXBXFXNXZXgXkXbXCXNXmXcX*X%X#X*X*X#X$X&X5X8XcXbXFXBXgXgXzXnXbXmXNXGX",
"7X8X{.].3X5X'.(.(.(.(./.(.(.(.'.#XOX3X4X8X,X{.5X$X].3X3X(.(.).(.(.(.(.(.(.).(.[.<X{.(.$X7X7X4X].,X8X",
"Q.^.V./.Q./.Z.Z.!.Z.!.V.Q.Q.!.Q.!.Q.Q.!././.^.^.Q.(.^.Q.Q.Q.!.Q.f.f.Q.Q.!./.Q.Q.Q././.^./.!.Q./.Q.!.",
"Z.Z.@.&.$.*.%.&.C.#.C.$.O.#.&.%.%.%.%.%.%.%.$.&.$.$.Z.C.C.#.C.%.$.&.C.#.$.$.&.@.%.%.%.$.&.&.%.$.$.$.",
"R +.O...&.#.....O...P R R R +.O.N.#.) @.#.o...O.&...&.X.P @.@.o.o.#.o.o...O...X...O.+.+.....O.+...X.",
"R I o.P I R ` P K X.I U R P I U I I I I I R ` L L ` K X...I P R I P R R P P ` ` +.P P P P R P L Y Y ",
"U C Y K U U z m K U z F F z U F C U C U F F T F K F H F K x K C A T z C E M m _ K L L K U U F b F z ",
"C C F U x x T l z z k b b z z F b F b b z k z z k F F z F U C Z x l K I x F D z C F F C F F F D v v ",
"k b c c c 0 b l 9 t n t 9 n c 0 y n v v v k v v n 0 w D 9 9 w D k x 6 7 4 s A c t c v v 0 0 l v v v ",
"v t [ T.u n 9 y t 9 t t t 9 9 t t t 9 t v 0 c 0 9 v k 9 | t 9 k D 4 @   @ T.6 7 | ] u t y J y 9 t t ",
"N R.GXGXnX:.N p r u 5 r r 4 u r r u r u 4 r 8 u p T.p dXJXhXN >.p * o X   ,.fXsXGXMXfXR.[ 7 O 7 y t ",
"MXDXAXKXMXnXNXzXzXfXnX:X:.dX:.:.:.[ :.:.fXdXzXfXfXGXKXSXSXnXMXMXk.- - % +   :XCXNXNXNXAXFXNXbXkXzXhX",
"0XpXtXtXqX*XqXwXtXtX&X&X&XtXtXtX0X0X0XtXtXtXtXtXtX5Xg.B - s.s.- - w.w.- .   E tXwXwXwXqXqXqXwXwX0X&X",
".X}..X X|. X|..X X X|. XXX XXX|. X|. X XXXoX X X_.B V ; w.h.>Xl.; d.% $ # O /.XX X|.|.|.|.|.|.|.|. X",
"~.~.~.~.~.~.~.~.~.~.~.~.~.~.~.~.}.~.~.P.}.oXD.!.6.2 1 - ; d.l.>X>Xd.$ $ F V.oXP.~.~.~.~.~.~.~.}.~.~.",
"S.S.S.S.S.S.S.S.S.S.S.S.S.S.S.B.V.~.S.V.D.M.L.2 2 i.;.$ , : B h.z.g.- * N.B.D.S.B.B.B.B.B.B.B.S.S.S.",
"m.m.m.m.m.m.m.m.m.m.m.m.m.m.m.m.O.G.O._ G.} 6.3.a.3.3 < , 1.< < 2 w.; B ' M.M.N.m.m.m.m.m.m.m.m.m.m.",
") ) ) ) ) ) ) ) ) ) ) ) ) ) ) ) b.A.A b.E 6.7.3.7.4.< jX0.0.9.2.5.4.5.; M b.b./ ) ) ) ) ) ) ) ) ) ) ",
"/ / / / W W / / W W W W W W W / I W Q F 3.7.0.c.x.dXrXrXiXuXuXlXhX8.2.j.M Q W ^ A A W W W W W W W W ",
"A A A A Z Z Z A H H Z Z Z Z A A A w ] 9.q.sX-X5X+XA.F.L.S.P.+XeXyXhX3.: F J W f Z Z Z H H H Z Z Z Z ",
"G G G G G G G G D d G G G Z Z Z Q k p.sX;XL.A.n.E.T.I.F.m.n.Q P.P.yX3.V f D Z D G G G G G G G f D D ",
"f f f f d d d d g d d d d G d a y : r.d.C.x q { n.L.P.A.] } n.J ) ,X$ N g s g k G f d d d d d d d d ",
"a a d q y d d a q f g f g 8 g s : d.].+Xn.>.K.T.n.n | n.K.<.W.n.A.0.1 a S u h E.I.{ g q g q w w d a ",
"d d q g { q i f D i D d s f c : i.g.j.z.>.g.t.a.k.-XE.I.-.T.:.N U.7.H s j -.2XVXzX;X| ] J g g j q d ",
"q q d f s ^ ^ f d h ^ d f S m : ; r.y.p.4.d.r.u.a.t.-X2XL.=.| n.x.dXT.-XfXAXPXPXKXKXNXkX;X| d d T.R.",
"Y.J d G ^ s ^ d Z G { R.R.N N : ; , < < 3.p.2 6.w.p.p.a.l.1X2Xu.nXIXUXJXSXmXCXMXBXNXAXPXHXMXfXdXSXPX",
"LXfX;X1X1XT.R.dXY.:XDXGXAX& # - % > , 1.3 2.5.2.1.8.v.t.u.V c.6XNXDXmX4X5X%X7X8X$X$X4XvXvXzXnXLXBXBX",
"SXAXGXIXGXGXGXGXPXAXvX4X-X. # % + # 3 <.= , 5.2.8.4.6.2 2 ;.:.).].[.5X_.).(.'.^./././.'.(.!.(.OX,X,X",
"6X-X7X6XgX6XkX6X6X4XF.D.C.O o O * . . X + <.1.3 2.2.8.4.3.;.F.Q.^.$.%.V.$.&.*.F.O.$.V.V.V.V.Z.C.Z.Z.",
"V.Z.!.Z.C.$.C.C.O.o.O.$.( 7 % e.$ % . X . . > 1 t.u.1 i.;.H ) ..' T ` ' I ( O.m P P +.( ( P o.o.o.o.",
"o.P X.P P P I I H C C L Y b * & w.s.. X X O o o 1 i.u.j.m S A n A C F z z z z C U z z F F U U z K K ",
"K C C D l z v v v F F e s S k * # e.s.# X & & = 1 1 k.:.[ J y z c v v t D J w D D F F b 0 k z F b z ",
"l 0 v J v l v 0 t 6 6 w a s 6 6 * - w.- # % = : : ,.AXIXzX;X>.b v v w 6 y v t c y y t y y n v t t 0 ",
"t t u t 9 k 0 v 0 t t 8 8 8 8 r 6 :.N - % & = = ,.SXKXMXFXKXDXnX;Xn r J 0 6 6 6 9 t t t t 9 9 9 r r ",
"] [ [ u r t 4 7 y r 4 5 5 5 8 u dXDXgX* X o = & ,XmX7X8X7XlXmXmXHXnXR.7 5 u i i 5 5 5 5 5 5 5 7 t r ",
"K.-X-XU.U.U.| >.u r r 9 6 6 } -X,X/.&X.XJ...!.#XXX@X[.[.=XOX3X_.6X6X6XY.n 9 r 8 4 5 7 ] I.Y.Y.;XK.K.",
"O.#.@.@.@.J.K.U.U.U.K.H.K.`.J.N.V.B.F.~.~.~.}.~.}.^./.Z.S./._.C.Z.$.J.`.K.-XU.| J.K.K.J.J.J.#.@.+.( ",
"L A S ` I I #.+.X.@.N.#._ _ _ O.O.O.O.M.B.V.@.*...&.O.O.#.O.O.=.Z._ ( P P o.@.J.@.=.` P +.( I P } ' ",
"=.T U T T T T T T Y Y Y Y ' Y L L L L L L P L L L L L L L R L L T =.=.=.Y C I P T T =.=.H.=.=.T Y H ",
"z l l z z z F T T T T T T Y F C S S S S S C C C x C C x z C C C z F T  .=.=.=.J.=.=.T F D F F F C x ",
"0 w l l l w l D b l w l l l l w l l l w w w w w w v v w l l l b z z z b F b b l F F l l w l l l l l ",
"0 0 0 0 0 l 0 0 0 9 9 0 0 0 w w y w 0 0 0 9 9 r r t 9 9 t t 0 0 l l l l w w v v w w 0 w 0 l w w 0 0 ",
"0 0 9 9 0 c 0 9 0 0 0 v v y w w y y t 9 9 r 9 9 9 r 9 9 t t 0 y y y y w 0 0 w w v v 0 y 9 y 0 y t 0 ",
"0 0 0 0 0 0 t t 0 0 w w w w w w y y y y y y w 9 q y y y y q w d q y y y v D l l 9 9 0 y t t t t w w ",
"w w w w w w w w d w w w w w d D D D d d d d d D d d d d J d d a y y w w D a w q v w w w y 9 w y 0 w ",
"D d d D G G G D d d D J D d d G J G G d G G G G G D G { n.} ^ d d D D D D D J J D a D D J d D D w D ",
"Z ^ ^ G ! ! G [ n.| } h ^ ~ G b.! ! ! ! ! ! ! ^ ^ n.I.dXlXY.H.} { | ] ^ ~ ~ Z ! ^ ^ ^ ^ ^ ^ ^ Z f G ",
"^ ^ ^ ^ ! b.I.lXJXCXbX2XT.H.} ~ ~ ~ ~ ~ ~ ~ ~ ~ Y.mXDXPXKXGXmX2X2XxXkX1XE.T.} ! ! ! ! ! ~ ! ^ ^ ^ ~ "
};
