/* XPM */
static char *_2f446201d0845fa992801ffd09c48ebfxe4XIirXVPveY8o[] = {
/* columns rows colors chars-per-pixel */
"50 50 256 2 ",
"   c #2F161F",
".  c #1A0F28",
"X  c #27152B",
"o  c #281537",
"O  c #361938",
"+  c #31132B",
"@  c #382736",
"#  c #19202E",
"$  c #441F3E",
"%  c #502C3A",
"&  c #70202D",
"*  c #3A1C46",
"=  c #35184A",
"-  c #142B4A",
";  c #0A354C",
":  c #18344B",
">  c #0D3553",
",  c #0C3B55",
"<  c #0D3C5A",
"1  c #093759",
"2  c #123553",
"3  c #123A55",
"4  c #123C5B",
"5  c #173857",
"6  c #0B2C4F",
"7  c #342E4C",
"8  c #0D3C64",
"9  c #0A3564",
"0  c #133D63",
"q  c #133E69",
"w  c #173767",
"e  c #143F74",
"r  c #25397D",
"t  c #583848",
"y  c #593457",
"u  c #4D2B4E",
"i  c #5E335F",
"p  c #0D425B",
"a  c #0D4B5D",
"s  c #084458",
"d  c #13435C",
"f  c #16465A",
"g  c #0E4C56",
"h  c #354D57",
"j  c #0C4B62",
"k  c #0D446A",
"l  c #0C4B6D",
"z  c #084766",
"x  c #134264",
"c  c #124B63",
"v  c #13426A",
"b  c #194467",
"n  c #0B5364",
"m  c #0B556B",
"M  c #0C5B6B",
"N  c #065668",
"B  c #135265",
"V  c #1B556B",
"C  c #125C6D",
"Z  c #17556B",
"A  c #0D4D71",
"S  c #054D73",
"D  c #154473",
"F  c #154B79",
"G  c #194E7B",
"H  c #184975",
"J  c #0E5778",
"K  c #0E5A7A",
"L  c #095874",
"P  c #145C75",
"I  c #274868",
"U  c #35546B",
"Y  c #28587A",
"T  c #2F5475",
"R  c #09656D",
"E  c #0C6373",
"W  c #086975",
"Q  c #136273",
"!  c #17697A",
"~  c #0A777A",
"^  c #15737C",
"/  c #11626F",
"(  c #296379",
")  c #356F78",
"_  c #744B53",
"`  c #69675C",
"'  c #724B6D",
"]  c #587077",
"[  c #5C5B6A",
"{  c #9B1C05",
"}  c #AC332A",
"|  c #CA3608",
" . c #A0583D",
".. c #CF4A08",
"X. c #F4560A",
"o. c #CD5237",
"O. c #D96B23",
"+. c #A13853",
"@. c #8E584E",
"#. c #B1725B",
"$. c #8F6A71",
"%. c #A7786D",
"&. c #965E5E",
"*. c #C65C4A",
"=. c #C67B61",
"-. c #CB5D59",
";. c #0C827D",
":. c #8B8F75",
">. c #B18772",
",. c #D28E73",
"<. c #E59172",
"1. c #D89C6D",
"2. c #2C3A93",
"3. c #333CAB",
"4. c #1A4684",
"5. c #0A5884",
"6. c #145390",
"7. c #2F4C8F",
"8. c #0B6381",
"9. c #046687",
"0. c #176783",
"q. c #0A7685",
"w. c #157686",
"e. c #0B7391",
"r. c #007A90",
"t. c #0B6A95",
"y. c #296B86",
"u. c #287586",
"i. c #37788B",
"p. c #2F7190",
"a. c #2F48A6",
"s. c #2470A4",
"d. c #715392",
"f. c #45788B",
"g. c #597A98",
"h. c #4B6F8E",
"j. c #677C90",
"k. c #4C51B0",
"l. c #6E5BB7",
"z. c #5864A6",
"x. c #5B5CC5",
"c. c #6D5FC7",
"v. c #7871C5",
"b. c #906B8C",
"n. c #A77392",
"m. c #8A57AA",
"M. c #8F76BA",
"N. c #B772B7",
"B. c #8F5D8E",
"V. c #CA7AB9",
"C. c #9169CC",
"Z. c #AE77C4",
"A. c #C879C2",
"S. c #0A858B",
"D. c #14868B",
"F. c #0D849D",
"G. c #0A8895",
"H. c #178995",
"J. c #169897",
"K. c #0F9594",
"L. c #25989A",
"P. c #318F98",
"I. c #2EA79D",
"U. c #1797A9",
"Y. c #0E90AB",
"T. c #249CA5",
"R. c #2F85AB",
"E. c #1DA3A8",
"W. c #28A3A7",
"Q. c #36A7A8",
"!. c #2FAFB1",
"~. c #598699",
"^. c #498D97",
"/. c #6B889A",
"(. c #6A908E",
"). c #5995A6",
"_. c #4F95A5",
"`. c #6E92AB",
"'. c #4FACAF",
"]. c #70AFB5",
"[. c #4BA89B",
"{. c #35B5C6",
"}. c #2FAFC2",
"|. c #099EC6",
" X c #4BB5CE",
".X c #79B2C4",
"XX c #74C8C9",
"oX c #48C0D1",
"OX c #B3928C",
"+X c #B2B089",
"@X c #8C99AA",
"#X c #97AAB5",
"$X c #8FB2B6",
"%X c #A9B5B7",
"&X c #B986A7",
"*X c #CF968A",
"=X c #D9A88A",
"-X c #CDB493",
";X c #EEB196",
":X c #D390B5",
">X c #E899B6",
",X c #D7B0A8",
"<X c #E7A6AB",
"1X c #EAB6A4",
"2X c #F5B7A4",
"3X c #F2ABB0",
"4X c #B8C3B3",
"5X c #D6CC99",
"6X c #E8C59B",
"7X c #F8C79C",
"8X c #F0D397",
"9X c #F9E899",
"0X c #D3CDA3",
"qX c #EAC9A8",
"wX c #F7C6A7",
"eX c #F8D5A9",
"rX c #FBCAB8",
"tX c #FADBB9",
"yX c #ECD4AE",
"uX c #F9E8AA",
"iX c #ECE8B8",
"pX c #F9E7B6",
"aX c #F2ECAA",
"sX c #DDE5BE",
"dX c #9994CE",
"fX c #AC99D5",
"gX c #91B2C7",
"hX c #A8BDC6",
"jX c #A7BDD4",
"kX c #E793C8",
"lX c #DAB0D1",
"zX c #97C8CB",
"xX c #87C7C4",
"cX c #A8C5CC",
"vX c #A9CAD5",
"bX c #B9CCD3",
"nX c #BBD5D9",
"mX c #B2CBCE",
"MX c #B4D8E3",
"NX c #B9E0E0",
"BX c #C7D6DB",
"VX c #CFD0D5",
"CX c #F9D4C7",
"ZX c #CFE1DE",
"AX c #F9E9D8",
"SX c #F6E8CB",
"DX c #CADBE5",
"FX c #D4DDE5",
"GX c #D1DEF3",
"HX c #CCE2E7",
"JX c #D8E5E8",
"KX c #DBEAF2",
"LX c #E5E4EA",
"PX c #E8E9F9",
"IX c #EBF0EA",
"UX c #EACDE3",
/* pixels */
"U.U.L.Q.[.zXcXKXIXKXBXHXPXLXNX[.E.W.T.U.W.W.U.E.E.Q..XbXKXBXZXmXnXJXZXJXnXxXXX'.W.T.T.U.E.E.W.W.U.T.",
"P.).vXKXLXPXBXmXbXvXxXxXzXcXDXGXDXvX].P.L.H.H.H.^.MXGXFXvX].XX'.gXXX].xXnXDXJXMX'.T.H.H.P.P.H.H.H.P.",
"BXBXBXbXBXvX].I.Q.!.E.E.!.I.'..XhXmXHXnXNX$X$XcXDXBXvXxX!.!.!.!.!.!.Q.Q.'.].xXcXDXvX$X$XcXmXcXvXnXHX",
"].].Q.P.'.'.L.J.J.J.J.H.J.K.J.L.W.L.'.'.].^.Q.'.I.P.'.'.H.J.K.K.K.K.J.J.J.K.K.L.).P.J.Q.].].[.L._.'.",
"S.G.q.H.S.H.q.w.D.w.D.q.S.S.D.S.D.D.S.D.H.H.H.G.S.J.G.S.S.D.D.;.D.;.S.S.D.H.S.S.S.H.H.G.H.S.S.H.S.S.",
"w.w.! ^ ~ ~ ~ ^ w.! w.~ W ! ^ ~ ~ ~ ;.;.~ ~ ^ w.q.q.q.q.^ ! w.S.~ ^ ! ! ~ ~ ^ ^ ^ ~ ~ ~ ^ ^ ~ ~ ~ q.",
"C Q W R ^ Q R R W R M C C C Q W 0.Q K 0.Q E E E W N ! Q C ! ! L E E E E W W E / R E Q Q R R E Q R / ",
"C N E M n C C M n / n B Z M N B M M N N N L L m L P N N R N N M N M C C M M C P Q C M M M C M m Z Z ",
"B j Z n B B a B l a a c n c m a B a a U #X0X5XaXuXyXyX-X+X] a N l s x m j n C a n n m n B B c a c c ",
"j c c B a p V p g a f s x f f z 4 ] 5X9XuXpXuXaXaXaXaXpXaXaX0X:.k 5 c p C a x d j c c j c c c x d d ",
"s f f f f , d p 2 5 x j d 3 > s +XSXSXuXuXaX-X-X-X8X9XaXuXuXuXuX0X` , z ; f x z f f f d , , p d f f ",
"d 3 U h.5 f > 4 1 > 5 6 ; 3 [ 5XuXpXuXaX:.` X * u t OX5XaXaXaXaXaXsX] g < 6 : f U I 5 3 4 b 4 > 5 2 ",
"h j.FXFXmX] h : : 2 ; 5 > ` 0XuX9X9X8X$.y = . . = = y t 5XaXpXAXAXIXAX:., 5 h /.FXbX#Xj.h : : : 4 3 ",
"bXBXBXJXbXmXnXhX%X%XcXg.(.6X9XuXpXiXOXO ' u + X @ % y ' t eXpXCXuXSXiXtX%X%XVXDXnXnXnXDXDXnXcXgXhX#X",
"{.oX X X{.!.{.}. X!. X XVXSXAXIXAXAX` O * y % t ' y _ * O -X8XuXSXyXpXAXFX X}.{.}.}.}.{.{.{.}.}.{.!.",
"U.H.U.U.U.U.Y.U.Y.|.Y.4XiXtXiXtXiX,X% y u u &.,.u $ O * . OXtXtXCXpXiXSXpX$XY.Y.U.U.U.U.U.U.U.U.U.U.",
"F.F.F.F.F.F.F.F.F.Y.^.8XwX7XeXwXwX` o u u $ =XwX*X_ + X . t ;XyX7XrXeXeX7XqXP.G.F.F.F.F.F.F.F.F.F.F.",
"e.e.e.e.e.e.e.e.t.t.#X8XeXwX6XwX%.  o X O _ =X-X,XqX*X_ t X >.7X7XwXwX7X7XwX@Xt.e.e.e.e.e.e.e.e.e.e.",
"8.8.8.8.8.8.8.8.5.0.,X6XwXwXqX>.t y * X X % =X$.&.=X=X@.  O $.;XqXwXqX7XwXqX,X9.8.8.8.W 8.W 8.8.8.8.",
"J J J J J J J J 5.U 2XwXwX2X2X@.u y y @ @ %.wX,XqXeXqX0X>.+ u ,X1X2X2X2X2X1X1XL J J J J J J J J J J ",
"A A A A A A A l S b.2X2X1X3X;XOXo * u X $.,.<.qXtX6X-XtX>.X X =X2X2X1X2X3X1X;Xh.l l A A A A A A A A ",
"l l l l k k k k l n.1X3X<X3X3XOXO o   + % =.<.wXqXrX;X2X_ O $.3X3X3X<X<X<X3X<Xd.k k v v v v k k k k ",
"v v v v v k v v 8 n.<X3X>X<X>X_ O o X o + #.<.;XqX*X=.*X+ ' >X<X<X>X3X>X3X3X>X' v v v v v v v v x x ",
"q q q q 0 q q q w b.kX,X>X<X:X$.u o X o * %.,.*X6XCXrX@.O ' *XkX<X>XlXUXJX3XlX[ q q q q q 0 q q 0 0 ",
"8 8 0 4 4 0 0 1 5 B.:X>X:X:X&Xt y t $ = o #.qX=X#.#._ . u % $.kXkXVXIXKXLXLXGX/.h.T 0 9 0 1 1 < q 8 ",
"0 0 1 w b 1 6 q 8 d.N.V.V.A.:XB.O @ i $ + ,.rXrX=X@.  u u n.n.V.lXbXjX.XgXKXLXBXjX/.U I I w w w 4 0 ",
"5 4 9 q 9 D D q 9 T Z.N.A.Z.Z.Z.' X O O i  .*.1.;Xn.u i i A.N.A.dXy.p.S.Q.nXIXPXJXJXBXhX/.T q w h.j.",
"g.b x v G 8 D 8 4.9 M.fXM.fXfXdXM.d.7 t & @.,.=.*.n.m.m.C.Z.Z.Z.M.z.7.9.e.gXnXVXcXbXFXLXFXbX#X@XFXLX",
"DX#X/.`.`.g.j.@Xh.g.jXPXJXKXLXFXJXdXl.} *.;XyXrX<.-.c.C.C.v.C.C.v.c.v.z.9.F.].].!.Q.'.xXzXhXmXHXmXmX",
"ZXVXFXKXDXDXFXFXJXKXHXBXcX(.#X`.%XvXm.| ,.7XyXeX6Xo.C.k.c.x.l.k.x.x.v.dXL r.G.J.J.H.H.J.J.H.J.W._._.",
"].~.].`.$X].zX].].gX^.p.p.9.t.6.k.k.+...=X1XtXtXqX*.-.7.k.k.k.k.k.a.k.7.S 6.9.~ W q.q.q.q.q.w.w.w.w.",
"q.w.H.w.w.^ q.q.! 8.K S S K 9.6.4.3.+.o.=XwXCXtX7X*X| d.3.a.7.a.a.a.a.6.N k 5.C C M C m P M E R E E ",
"/ M Q M M M N N m l z l z S 8.L a.I } *.1.2XeXyX7X1.*.o.2.2.2.7.2.2.4.e A z j j B a a c c B B a n n ",
"n j c c p a d d d p d < k z S K 5.e.' } ,.1XeXtX;X,.| X.*.4.r 2.4.4.F F 1 z d d j c c d , , a c a p ",
"s , d b d p d , ; 3 2 > 8 8 9 z F J 5.h.>.;XrXwX2X#.| X.X.' r 4.D 9 1 0 4 4 4 5 4 4 3 4 4 d d 3 , , ",
"3 3 5 3 > p , d 4 4 5 6 1 1 9 8 ; s S 5.9.@X,X1X;X@.{ ..X.o.9 ; 1 4 I 5 2 > 4 > > 3 3 3 3 > > > 2 2 ",
"I U U 5 2 3 - : 1 w > 5 6 2 2 5 v.(.~.R.~.).R.Q.).$.{ | ....4 v i.gX`.- : 5 6 2 - - - - : : : : 3 2 ",
"i.^._.f.f.f.U ] b > 5 - : : U jXzXs.s.e.y.u.p.^._.)./.$.-.$.( w.u.).].~.I 6 6 2 - - : I h.g.g.~.i.i.",
"W Q ! ! ! u.i.f.f.f.).).`.f.MX~.e.9.0.0.w.p.p.) 9.L s.y.f.R.u.8.W ! u.i.i.~.f.Y u.i.i.u.u.u.! ! Q P ",
"m l l P N N ! Q ! y.u.u.Q Q 0.! E y.! i.9.W E 5.E W L W 9.L ! w.w.E M N / / ! u.! ( C M Q P N M Y P ",
"( V B V V V V V Z B B B V V ( y.C m m m m M N N m m N N m m m N V ( ( ( Z j n M Z V ( ( y.( ( V Z B ",
"a s s d a a c Z V V B V V V c a j j j j j l j j s j j s j j j j a c V Y ( ( ( y.( ( V c c c c c j p ",
", < p p p < p x p p p p a a p p p p p p p < < < < d d < p p p d a a a a c d d p c c p p < p p p p p ",
", , , , , p , , > > , , , > , p , , , , , 2 2 2 > 3 > > 3 , , , s s p p < < d d < < , < , < < < , , ",
", , > > , f , > 4 3 , 4 d 4 , , , , , > 2 2 > 2 > 2 > > 3 3 3 4 4 4 4 < , , < < d d , 4 > 4 , 4 3 , ",
", , , , , , < , , > 1 4 4 4 4 4 < < 4 4 5 5 5 5 1 4 4 4 4 > 1 4 5 4 4 4 d x p p > > , 4 3 3 3 3 4 < ",
"< < < < < 1 1 < < < 0 4 1 1 8 x x x 0 0 0 0 0 0 4 0 4 0 x 0 < 4 0 4 < < x 8 < 1 d < 1 1 4 > 1 4 , 1 ",
"x 0 0 x v v v x x x x x v v v v v v v b v v v v b v v H 7.Y H q 0 x x x x x b b x 8 x x b 0 x x < x ",
"k D D v F F v U 7.T T e D H v 4.F F F F F F F H D 7.h.@XgXg.p.Y G T I H G G k F D D H H H H D v q v ",
"H H H H F 4.h.gXGXNXcX`.h.i.Y G G G G G G G G F g.vXBXLXKXDXvX`.`.jXgX`.h.h.Y F F F G G G F H D H G "
};
