/* XPM */
static char * enemym_xpm[] = {
"50 50 252 2",
"  	c #189BA8",
". 	c #28A4A9",
"+ 	c #1BA4A9",
"@ 	c #239AA4",
"# 	c #49A5AB",
"$ 	c #70C8C8",
"% 	c #98C9CB",
"& 	c #B9D4DA",
"* 	c #D8E5E8",
"= 	c #D4D8DA",
"- 	c #B1D2D3",
"; 	c #AAC6CB",
"> 	c #D2E4DF",
", 	c #77B5BA",
"' 	c #37A6A5",
") 	c #4BA89B",
"! 	c #BAE1E1",
"~ 	c #E5E7EA",
"{ 	c #ECF4F8",
"] 	c #C9E2E5",
"^ 	c #E8ECF3",
"/ 	c #DAE7F2",
"( 	c #25999A",
"_ 	c #268A9A",
": 	c #138B95",
"< 	c #2A95AA",
"[ 	c #D5D7E5",
"} 	c #85C8C5",
"| 	c #67AFB2",
"1 	c #88B4C4",
"2 	c #4DC1C0",
"3 	c #BCDBE5",
"4 	c #528D98",
"5 	c #198996",
"6 	c #349295",
"7 	c #C9DEF1",
"8 	c #A9CAD5",
"9 	c #B8C9D4",
"0 	c #C3D5DD",
"a 	c #E1EAED",
"b 	c #54A5B6",
"c 	c #B8C7CC",
"d 	c #89B6B8",
"e 	c #C9DBE6",
"f 	c #4EADB2",
"g 	c #35A7B9",
"h 	c #29A5B7",
"i 	c #2FB3AF",
"j 	c #9AB6C5",
"k 	c #98B3BB",
"l 	c #7AB7C5",
"m 	c #2DA79D",
"n 	c #C2CDD8",
"o 	c #4A9BA4",
"p 	c #189797",
"q 	c #5391A2",
"r 	c #0D9595",
"s 	c #139A9A",
"t 	c #7BA9B6",
"u 	c #0C838C",
"v 	c #088688",
"w 	c #0B8696",
"x 	c #13848C",
"y 	c #0F847F",
"z 	c #097688",
"A 	c #127A85",
"B 	c #0B747B",
"C 	c #09777A",
"D 	c #15747B",
"E 	c #146C7A",
"F 	c #147483",
"G 	c #096877",
"H 	c #1A7788",
"I 	c #12626F",
"J 	c #09666D",
"K 	c #146374",
"L 	c #0C6373",
"M 	c #196879",
"N 	c #0C5B6B",
"O 	c #135C72",
"P 	c #126A82",
"Q 	c #125B6D",
"R 	c #15546B",
"S 	c #0C546B",
"T 	c #075866",
"U 	c #0C5464",
"V 	c #135263",
"W 	c #124B5E",
"X 	c #124B63",
"Y 	c #0E535D",
"Z 	c #0C495D",
"` 	c #084759",
" .	c #0C4A62",
"..	c #13435C",
"+.	c #134264",
"@.	c #0E4463",
"#.	c #1B556B",
"$.	c #0D3C5A",
"%.	c #19476A",
"&.	c #0D435B",
"*.	c #0C3B55",
"=.	c #124255",
"-.	c #123A55",
";.	c #0A354C",
">.	c #193858",
",.	c #153965",
"'.	c #1A455A",
").	c #133553",
"!.	c #1A3D55",
"~.	c #063658",
"{.	c #285169",
"].	c #385A77",
"^.	c #13334D",
"/.	c #37566A",
"(.	c #284966",
"_.	c #0D3553",
":.	c #0C3659",
"<.	c #123C5B",
"[.	c #59768B",
"}.	c #496677",
"|.	c #1A3649",
"1.	c #243A49",
"2.	c #6B7D83",
"3.	c #96A6AC",
"4.	c #69859A",
"5.	c #485C64",
"6.	c #4F546E",
"7.	c #7C9398",
"8.	c #0F2B48",
"9.	c #A7B9C7",
"0.	c #ADBACB",
"a.	c #7B8B94",
"b.	c #374957",
"c.	c #627A85",
"d.	c #C8D6D9",
"e.	c #62747B",
"f.	c #304E56",
"g.	c #A4ADB6",
"h.	c #859AA8",
"i.	c #5E7579",
"j.	c #48565A",
"k.	c #727272",
"l.	c #A7B6BD",
"m.	c #98AAB7",
"n.	c #8CA4A9",
"o.	c #37B5C6",
"p.	c #2DB1C3",
"q.	c #675873",
"r.	c #477275",
"s.	c #7896A6",
"t.	c #79A3AB",
"u.	c #85A4B7",
"v.	c #67A8B9",
"w.	c #4DB0C9",
"x.	c #1495AB",
"y.	c #3A708C",
"z.	c #54656A",
"A.	c #536965",
"B.	c #596A6D",
"C.	c #63676B",
"D.	c #677679",
"E.	c #636D76",
"F.	c #6E8486",
"G.	c #72847B",
"H.	c #748689",
"I.	c #85959A",
"J.	c #8B9DA3",
"K.	c #83A19E",
"L.	c #108BA6",
"M.	c #107F9A",
"N.	c #566B72",
"O.	c #5B6C72",
"P.	c #55696D",
"Q.	c #5E7075",
"R.	c #357888",
"S.	c #097593",
"T.	c #2A7686",
"U.	c #536366",
"V.	c #0A6785",
"W.	c #38687A",
"X.	c #556575",
"Y.	c #2A6B82",
"Z.	c #0C5777",
"`.	c #0C5C72",
" +	c #59666D",
".+	c #275779",
"++	c #155281",
"@+	c #165A77",
"#+	c #0D4B71",
"$+	c #0C4C6D",
"%+	c #555B64",
"&+	c #3A4549",
"*+	c #D2DCE3",
"=+	c #F6F8FB",
"-+	c #93ADC4",
";+	c #144A74",
">+	c #15426B",
",+	c #425B76",
"'+	c #4A6669",
")+	c #302324",
"!+	c #DBDEE4",
"~+	c #4A6F8E",
"{+	c #0D446B",
"]+	c #123D63",
"^+	c #333C3B",
"/+	c #083966",
"(+	c #154473",
"_+	c #0E3C62",
":+	c #173C71",
"<+	c #50615F",
"[+	c #EFEFEF",
"}+	c #6B7C8C",
"|+	c #224A75",
"1+	c #E5DCE1",
"2+	c #D5C7CA",
"3+	c #B1AEB3",
"4+	c #AA979C",
"5+	c #92878D",
"6+	c #A98C91",
"7+	c #959CB5",
"8+	c #132F5B",
"9+	c #545559",
"0+	c #6D4C4E",
"a+	c #597C98",
"b+	c #9A7C86",
"c+	c #916B67",
"d+	c #583336",
"e+	c #382324",
"f+	c #33191A",
"g+	c #4D3D44",
"h+	c #7093AE",
"i+	c #643940",
"j+	c #461E25",
"k+	c #472326",
"l+	c #543232",
"m+	c #468795",
"n+	c #1D566B",
"o+	c #CAB6B3",
"p+	c #9C857F",
"q+	c #854E4F",
"r+	c #6C3839",
"s+	c #E1D2D9",
"t+	c #D0B5B5",
"u+	c #E1BBB8",
"v+	c #253B53",
"w+	c #8999B0",
"x+	c #296479",
"y+	c #A1C9E2",
"z+	c #1A4876",
"A+	c #355A84",
"B+	c #154B79",
"C+	c #194E7B",
"    . . + + @ @ @ . # $ % & * = * - ; > > * & , ' + + + . .   @ . @ ) ! ~ { ] ] * ^ / ; % ) ' (     ",
"_ _ : _ _ _ : : < # & * [ & } | $ 1 2 $ , ; [ [ 3 4 _ _ 5 ( 6 , - 7 7 7 ; % } } 8 9 ; 0 ^ a / - b 6 ",
"> & 8 ; c ; d d - e ; } | f g . . h g h i i } 8 & 3 ; j k ! & ] ; ; l f m i m + i ' m | 8 0 9 0 0 n ",
"b o ( # , , ' p 6 q ( r r s s p r r s r s p # # 6 ' f ' o | b # ( . ( p s p 5 p s s s ( f # 6 ' , t ",
"u v 5 u w : : : : u v u 5 x u v y y y x v v v : p u w w : 5 x v u x v u v v z x A u A A : u 5 A : v ",
"B B B C D D C C C D D B B B E F D B B D E F F A B B D B C C C C C C C D E G B F E F D C C B D E H A ",
"I J K L J J K K L J I J G J L K K K L M M N K E J D G J L K M O K P G K Q Q Q N J G J J K D J J K Q ",
"R R S N Q N N N Q K O O N N Q Q N T Q N T J I U O S S O Q T N T T T V N N Q V U I U N O Q U N L T Q ",
"W X W X V U U S U U Y U U S S Q V X V Z U U ` Y V Z V V  .X X R V W V W W W V Y Z V W Z R S T U Y V ",
"......+.X X X X X X ..W W W W ..Z U @.R @.@.#.$.%.%.X ....+.@. .Z Z  .@.%.%.&.&. .@.` R ` `  .X X %.",
"....+...&.*.=.=.-.*.@.@.&.*.....&.$.=.=.;.W *.....*.&.&.&.Z &.$.>.,.=.*.*.*.*.=...*.*.....'.*.=.&.X ",
").!.~.$...>.-.!.{.].^.!.-.-.!.-.-.-./.).(._.-.-.:.<.>.).>.!.!.>.<.<.!.).'.!.^.^.^.).&.;...-.[.}.-.$.",
"-.>.|.|.1./.2.3.c e 4.5.|.^.;.;.|.6.7.|.8.^.^.!.^.^.'.[.9.0.a.b.;.;.^.^.8.>.4.4.^.).1.b.c.c * d.e.f.",
"k 9.k 9.& e e 0 & 0 > c g.k h.i.j.j.k.l.m.g.3.c m.m.d.d.d.* * d.c 0.g.h.n.; / / 9.k 0.9 8 9 / d.d.9 ",
"g o.p.o.o.o.o.p.h h o.o.g o [.q.6.}.r.s.t.t t.t.t u.v.b f h h h g w.w.g g g g h h h i o.h p.o.w.w.b ",
"x.x.x.x.x.x.x.x.x.x.x._ y.z.A.A.A.B.C.D.E.e.D.F.2.2.G.H.I.I.I.J.K.K.I.n.t.t.n.7.s.t.v.b @ x.x.x.x.x.",
"w w L.w w L.M.L.L.w r.r.N.O.O.B.O.O.O.B.P.O.P.O.O.O.Q.O.P.B.O.E.D.D.D.E.E.D.Q.D.D.2.F.7.R.w L.M.w L.",
"S.S.S.z S.S.S.z T.T.r.N.N.B.B.P.P.P.N.B.P.z.z.U.z.z.z.O.O.B.B.P.B.z.B.P.Q.P.z.O.E.D.G.e.R.z S.S.S.z ",
"V.V.V.G P G G M W.X.X.B.B.z.U.z.z.z.z.P.O.z.Q.B.B.O.O.Q.O.O.B.z.N.N.N.N.O.N.2.F.I.m.g.a.Y.V.V.V.V.G ",
"Z.Z.Z.Z.Z.Z.`.W.X.C.U. +U.U.U.P.z.z.P.B.z.O.O.z. +B.z.B.z.P.P.z.O.O.e.e.I.l.0.c ^ { * 9..+V.++Z.Z.@+",
"#+#+$+#+$+$+{.}.z.U.z.U.z.z.P.P.B.B.P.O.5.O.U.U.%+&+j.U.z.z.P.O.e.O.J.*+* a { { =+^ * -+#.#+#+$+Z.;+",
">+>+>+#+$+%.,+X.P.'+P.P.z.P.P.P.z. +B.z.O.z.O.B.)+I.&+U.B.P.Q.H.a.2.3.{ =+{ { { { !+& ~+@.{+>+{+$+>+",
"]++.>++.>+(.X.z.P.z.N.z.U.B.P.z.z.B.z.O.P.Q.z.U.&+^+j.B.E.D.a.3.9.l.g.!+* *+* e c c s.%./+]+>+@.{+(+",
"]+]+_+]+>./.'+P.%+E.z.%+%+ +B.z.z.O.B.O.O.O.z.E.C.C.E.e.2.J.l.n * { ^ d.d.c 9.9.j u.(.$./+,.<.$.>+:+",
"_+]+*.,._.5.<+'+P.B.U.j.U.z.O.O.B.B. +E.O.O.Q.O.2.2.a.k d.{ =+a { =+{ { [+^ / n t./.]+~.<.<.<.]+]+]+",
"]+<.(+/+,.X.%+'+%+C.U.5.j.O.O.U.P.e.E.U.D.2.F.a.J.n.n ^ =+=+[+~ a = e [ & [ [ 3 s.:.:.]+]+~.$._+~.]+",
"}+~+]+,.|+h.j.5.O.U.D.a.e.O.O.i.2.O.Q.D.7.n.3.c 0 ^ { { 1+2+3+4+4+5+6+6+6+6+6+7+^.~.8+8+,.|+,.:+8+,.",
"a [ I.h./.I.j.j.'+5.2.J.a.O.O.i.7.7.7.3.k * a = n 0.3+4+5+4+4+5+k.9+0+9+k.n.j (.8+:+,.]+~./+>+]+%.a+",
"- - * & B.c.9+j.%+5.O.I.I.P.O.a.n.J.3.n a * 3+5+5+b+c+k.9+d+e+f+f+e+e+g+l.a.X.a.].%.~+,+,+}.h+4.m.e ",
"o o q _ ].6 b.f.9+U.z.I.J.O.P.J.n.3.n / * 3+0+i+j+j+k+k+k+e+e+e+e+e+E.l.8 - 7 e 0 e * [ [ / / !+= = ",
"F A S.z Y.u ].f.&+j.z.H.3.a.H.I.g.*+a { [+=+2+6+d+l+l+l+l+l+k+k+j+j+q.7+x : : p v.m+m+, v.t t., 4 t ",
"L L L J Q `.n+j.U.X.U.F.; l.9 l.n * a ^ =+[+[+2+o+p+q+0+0+r+r+0+i+d+r+k.s.G G V.z z z z z F H _ A z ",
"U U T U W f.O.2.O.5.&+O.l.9 c c d.= [ a ^ { =+=+2+s+t+o+c+0+q+q+q+q+c+o+9 %.$+Z.`.T `.T N N U K O N ",
"&.Z ` './.e.D.U.b.j.X.}.s.m.k c c c d.n d.* * a ~ ~ 2+t+t+u+t+o+t+o+u+2+m.'. . .` ` %.+.X X X X  . .",
"*.*.!.v+b.b.&+1.1.f.r.|.b.4.w+7+7+9.j 9.8 8 & 0 e * * a !+= = = s+1+= n f.!.-._.-.!.~.$.~.*...$.&.&.",
").).$.*.-.;.^.-.*.~.|.8.v+f.}.4.h+h+u.u.-+-+9.9.9.0.0.9 n n & 9 ; j w+4.4.!.>.:.:.:.$.&.*.*.>.!.-._.",
").-.).).>.>.).8+_.:.8+8+8.v+X.5.c.s.j u.-+-+k -+k h.t t h+h+h+4.4.4.}+[.4.}+^.^.)._.>.8.).^.^.{./.{.",
"R.R.4.a+[.W.(.>.^.).<.:.).,+j j 9.j f ' ' o o v.l 1 d % - & ; l.l.g.u.4.4.[.}.8.|.!.,+/.~+~+~+q m+R.",
"`.K K M T.R.T.R.R.x+x+R.m+R._ A B C P H A S.u w z w : 5 g b m+v.y+-+u.8 t h+4 4 W.R.m+R.R.x+M M E L ",
"@+.+`.T N `.`.O M M T.M K `.T L L F H G G G G P E G V.z F F F A H E E H K K Y.Y.T.M I I T `.O S $+S ",
"V R n+x+x+Y.x+x+n+R N U  .R x+x+x+n+S S Q S S S S S S S `.N S S Q @+Y.x+n+#.R R R R n+n+n+n+#.R n+x+",
"`  .X %.X +.X n+x+x+Y.x+x+x+.+#.X Z  . . .` `  . .`  . . . . . . . .&.X #.n+#.R #.n+R X &.&.&.` ` &.",
"&.&.&.&.&.$.&.&.+.X &.....X W Z Z Z ..&.&.&.&.....$.*.$.$.&.*.*.&.&.&.&.&.&.&.&.=.=.+.&.$.$.&.&.$.*.",
"*.*.$.$.&.*.$.*.$.$.....$.$.&.&.&.&.*.*.-.-._._.-.)._._._.*.*.*.*.*.&.*.*.*.*.*.*.*.*.*.$.*.*.*.*.*.",
"*.-.<.*.<._.<.*.....$.$.*.*.$.<.<.<.<.*.*.-._._.)._._._._._.-.-.*.*.*.*.<...<.*.-.<.*.*.=.*.*.*.*.*.",
"<.<.-.*.>.-.>.*.*.*.&.&.+...<.<.<.:.+.$.:.<.<.<.<.:.$.$.$.:.<.<.$.$.<.<.<.<.<.$._.*.*.*.*.*.*.*.*.*.",
"$.*.<.$._.<.$.$.$...:.$._+_+$.$.<.<._+]+]+%.]+]+]+]+]+]+]+]+]+]++.+.+._+:.$.<.]+$.$.$.$.$.$.$.$.$.$.",
"+.$.+.+.]+%.+.+._++.%.+.+.+.+.+.+.]+]+z+.+A+|+>++.>+>+>+>+>+>+>+>+>+>+>+>+>++.+.+.+.+.>+>+>++.]+]++.",
">+]+>+;+;+;+;+;+(+(+B++.C+C+z+{.].|+.+A+a+-+u.~+A+(+B+B+B+B+B+B+B+B+++(+z+(+:+.+].A+/.>+B+B+>+(+(++.",
"C+z+;+;+B+C+C+B+B+B+B+.+~+~+h+j 0.h+s.8 e * a n 8 a+B+C+C+C+C+C+C+C+C+.+y.~+h+; 3 7 -+~+++C+;+z+z+;+"};
