/* XPM */
static char *_fe944e3ba9a4d04e4ea69b6ef3ea7a8s6stce74UKxm7OZH[] = {
/* columns rows colors chars-per-pixel */
"50 50 256 2 ",
"   c #332C3D",
".  c #093F3F",
"X  c #49343B",
"o  c #713439",
"O  c #78192F",
"+  c #73463D",
"@  c #192B4A",
"#  c #0A374D",
"$  c #193749",
"%  c #0D3554",
"&  c #0D3B55",
"*  c #053C5A",
"=  c #0D3C5B",
"-  c #053756",
";  c #133552",
":  c #133B55",
">  c #123C5C",
",  c #18385A",
"<  c #092D4F",
"1  c #362B43",
"2  c #26374B",
"3  c #393747",
"4  c #313355",
"5  c #0B3A67",
"6  c #133D63",
"7  c #153868",
"8  c #12366C",
"9  c #452843",
"0  c #463949",
"q  c #443A54",
"w  c #543349",
"e  c #6B2F49",
"r  c #06435C",
"t  c #0B425C",
"y  c #0A485A",
"u  c #13435B",
"i  c #164556",
"p  c #0C535A",
"a  c #384A5A",
"s  c #374755",
"d  c #0C4462",
"f  c #0C4B62",
"g  c #094669",
"h  c #144264",
"j  c #124C63",
"k  c #15436B",
"l  c #18486A",
"z  c #0C5263",
"x  c #0B536C",
"c  c #0B5B6D",
"v  c #055669",
"b  c #14546C",
"n  c #155869",
"m  c #0C4B72",
"M  c #054977",
"N  c #154B79",
"B  c #194E7B",
"V  c #164775",
"C  c #0B547A",
"Z  c #065777",
"A  c #185A74",
"S  c #36566F",
"D  c #265877",
"F  c #2D4E6E",
"G  c #08666C",
"H  c #14656D",
"J  c #096776",
"K  c #156676",
"L  c #087578",
"P  c #15757C",
"I  c #00756D",
"U  c #266577",
"Y  c #2F6975",
"T  c #386058",
"R  c #4A454B",
"E  c #494555",
"W  c #564955",
"Q  c #564F52",
"!  c #655556",
"~  c #714B4D",
"^  c #766354",
"/  c #474D68",
"(  c #565B66",
")  c #4B5570",
"_  c #546B72",
"`  c #67676A",
"'  c #726668",
"]  c #6A6D78",
"[  c #665C64",
"{  c #892638",
"}  c #943333",
"|  c #B83A35",
" . c #AD3732",
".. c #C73A33",
"X. c #89513C",
"o. c #B94438",
"O. c #B7432F",
"+. c #B16E3C",
"@. c #9C7E38",
"#. c #D6582B",
"$. c #C84236",
"%. c #C75935",
"&. c #D75835",
"*. c #CD502B",
"=. c #EA5935",
"-. c #EF4B33",
";. c #DA673A",
":. c #CA7735",
">. c #D77537",
",. c #CD6C2D",
"<. c #E86736",
"1. c #E67734",
"2. c #ED7033",
"3. c #9F2B43",
"4. c #895052",
"5. c #B35347",
"6. c #896C57",
"7. c #B1724E",
"8. c #8E586E",
"9. c #8E7172",
"0. c #AB7779",
"q. c #D37348",
"w. c #F27C46",
"e. c #0B847D",
"r. c #BF833B",
"t. c #CA8A3C",
"y. c #D98839",
"u. c #D2963B",
"i. c #E5973B",
"p. c #EB8E3B",
"a. c #DCA33D",
"s. c #E2A63C",
"d. c #9B9675",
"f. c #908676",
"g. c #A88F6A",
"h. c #AF9767",
"j. c #D68945",
"k. c #D99A45",
"l. c #CF934C",
"z. c #E79843",
"x. c #E98742",
"c. c #D4AB57",
"v. c #E5A845",
"b. c #EBA953",
"n. c #E6B857",
"m. c #EEB34D",
"M. c #D5AC68",
"N. c #E6B56F",
"B. c #EFC652",
"V. c #ECC666",
"C. c #065B84",
"Z. c #124F83",
"A. c #335A84",
"S. c #0B6383",
"D. c #036D8C",
"F. c #046685",
"G. c #166686",
"H. c #067887",
"J. c #157887",
"K. c #066C98",
"L. c #077796",
"P. c #16789D",
"I. c #3A7A8B",
"U. c #277695",
"Y. c #33728B",
"T. c #1178A1",
"R. c #567A8B",
"E. c #4E7190",
"W. c #6E798B",
"Q. c #4D6590",
"!. c #827E8F",
"~. c #0B848B",
"^. c #14868A",
"/. c #078698",
"(. c #168A97",
"). c #179599",
"_. c #109997",
"`. c #2A8999",
"'. c #269898",
"]. c #3A949B",
"[. c #0785A5",
"{. c #0796A9",
"}. c #1799A7",
"|. c #0398B3",
" X c #1496B3",
".X c #269AA5",
"XX c #2F98A7",
"oX c #19A3A8",
"OX c #13A7B8",
"+X c #28A5A7",
"@X c #37A6A5",
"#X c #33ADBC",
"$X c #2BB1B3",
"%X c #2AA89D",
"&X c #468495",
"*X c #518E98",
"=X c #748989",
"-X c #6F8994",
";X c #4E99A8",
":X c #7290AB",
">X c #46A8AD",
",X c #50AEB1",
"<X c #79B7BA",
"1X c #71AEB5",
"2X c #48A19B",
"3X c #6BC6BA",
"4X c #2BB4C6",
"5X c #36B4C8",
"6X c #1AAAC2",
"7X c #4DB8C8",
"8X c #7AB3C0",
"9X c #75C8C4",
"0X c #48C0D1",
"qX c #8A959A",
"wX c #918F8E",
"eX c #A9978A",
"rX c #B0A68F",
"tX c #9199A8",
"yX c #92ACB5",
"uX c #ACB1B5",
"iX c #9CA497",
"pX c #C8B395",
"aX c #CFB195",
"sX c #CAB8AA",
"dX c #E4B4A6",
"fX c #D4C6B7",
"gX c #EED5B7",
"hX c #E8E4BB",
"jX c #ECE5B6",
"kX c #E1C198",
"lX c #93B0C4",
"zX c #A8B7C5",
"xX c #91CCCB",
"cX c #A8C8CA",
"vX c #A9C9D4",
"bX c #B6CBD5",
"nX c #B9D3D8",
"mX c #B5CECF",
"MX c #BAD2E2",
"NX c #BFE2E8",
"BX c #C6D6DA",
"VX c #D4D8D9",
"CX c #C2CBD2",
"ZX c #EDDACA",
"AX c #D4E4DE",
"SX c #EAE3C4",
"DX c #F0E9D3",
"FX c #C7DCE4",
"GX c #D6DBE5",
"HX c #C9DEF1",
"JX c #D6E5E7",
"KX c #D3E3EF",
"LX c #E4E6EA",
"PX c #F8EDE4",
"IX c #EBEFEF",
"UX c #9AC3B1",
/* pixels */
"}.}.'.@X2XxXcXKXJXLXGXVXIXAXGX>XXXXX.X+XoX}..XXXoX@X<XnXKXGXJXcXCXLXKXKXnXyX9X#X+X.X.X.XoXoX+X+X}.}.",
"].;XvXKXLXIXBXcXnXnX9X3XcXcXnXHXnXvX<X`.).(..X).;XMXGXVXxX3X9X,X3X3X,XxXFXVXJXnX>XXX(.(.`.`.`.(.`.`.",
"BXBXBXbXFXvX1X%X$X@X+XoX$X$X,X3XvXnXFXBXFXyXyXvXmXBXcXxX,X$X$X+X+X$X+X>X,X,X9XcXGXvXyXyXcXmXcXvXnXAX",
"1X1X].].>X,X'._.).).).)..X).'.)..X.X>X;X<X@X@X>X@X@X>X@X^._.).}.).).(.).oX_.}.'.;X].).@X<X<X;X'.;X,X",
"~.(.H.(.~.(.J.J.~.^.H.H.^.J.~.(.e.^.(.~././.(.(./././.~.^.(.H./.~.^.^.e.^.^.^.~.~.(.(.(.(.~.~.(.~.~.",
"J.J.P P L L L P L P K P L L H.F.H.J.S.H.H.H.J.H.H.H.H.H.H.I I I H.J P I L P P L P P L L P P L L L P ",
"n H G G P K G G A G H A v c H G Y =Xf.d.g.g.g.d.g.g.d.d.d.wX-XH H v S.F.J J K A G H K H G G H K G H ",
"n v J c z c c c c v z v B x p 8.q.q.;.<.w.z.v.m.m.m.m.m.B.B.n.n.d.T v v x v c c H c c c c n c x b b ",
"n z n z c n y j p f v v i 8.5.5. .| ..-.=.<.<.2.1.1.2.2.p.i.p.v.i.i.6.j x p g v x b b z z p z y j p ",
"f j j j t r j t y l , q 4.5.*.5.O.o.$.-.-.-.-.=.=.=.-.=.=.<.2.x.w.1.x.q.! l g * f r f f j l u h u u ",
"t j i i i & u u 6 % d r i , $ 4 w e } %.*.O.o.| o. .| O...$.$.| +.,.*.%.7.0 8 i t u u u t u & h u u ",
"> > S R.i i % = = ; < # < , 3 3 2 i * d * - 6 % @ > & # , i : 4 @ 7 q 2 . # = < a ) ; : & * d - ; ; ",
"s W.GXGXmX_ s 2 # % , S qXuXqXqXzXyXyXzXtXyXyXa = r < , Q.S # 4 # # ~ @ * - ; R.BXKXyX-Xa $ $ $ > : ",
"nXBXVXJXnXbXMXvXR.tXlXFXNXtX1XW.<XvXbXFXBXBXBXbXyXuXCXmXbXLXUXX 8 a 5.; ; / zXBXvXnXbXFXFXBXzXuXzXyX",
"#X7X7X5X4X#X4X5X4X#X,X7X#XI..X` {.OX{.U.S E a Y 5X7X#XOX4X7X>X] #X#X6.@X.X;XxX4X6XOX4X4X5X5X#X5X5X#X",
"}.}.}.}.{. X{. X|.{.|. X|.I.L.' [.[./.U.4 ! ' ( |.{.{.|.{.{._.]  X{.6.{.|.|.OX|.|.|.{.{.{.{.}.}. X X",
"(.(./.[.[.L.[.[.[./.L.[./.( L.~ K.L.L.U.2 ^ f.` /.L././.P.[.J.9./.P.9.[.[./.L.[.[.[.[.[.[./.[.[././.",
"D.L.L.L.D.F.D.D.K.L.K.K.L.E G.~ G.S.J D 3 6.6.[ D.K.L.L.K.D.H 9.K.D g.D.P.D.K.L.L.L.D.D.D.L.L.L.L.L.",
"F.S.S.S.S.S.S.C.F.F.C.C.G.R a X.) ) ) ) w 6.6.' Q.Q.S.F.C.S.Y 9.C._ 6.S.C.C.K.F.F.D.F.F.S.S.J S.S.S.",
"S.C C C C C C Z C Z Z Z E.] =XrXrXeXf.wXeXh.rXrXrXrXeXwXwX!.] ` A ( ] Z G.F.C.Z Z Z Z C.C.C Z A C C ",
"m m b m M M M C Z.C.M m Q.` W.qX=X=X=XuXLXIXPXPXIXPXDXDXPXPXPXPXIXDXuXZ x Z m b C M M M M m m m m m ",
"g l l g M M g g m g k u E E ( _ ( Q R ! ! 6.aXaXsXpXpXpXpXpXpXsXpXaXwXM M M M Z.M M M M g m m g k k ",
"k k h 5 g 5 > S tX_ ] ( Q R R s W W ! [ Q f.hXjXDXjXgXjXSXjXjXSXSXSXVX> 5 N Z.5 k 5 5 m 5 5 k k h h ",
"k 6 6 6 5 5 ) uXeXR q E W W ! w R wXuXfXfXfXZXSXSXhXSXDXDXhXjXgXSXhXhXiXW.W.W.-XE.V 5 8 8 5 7 , 6 6 ",
"5 7 5 5 5 = uXrX~ rX! X R R ` wXtX:XCXgXaXaXaXaXdXdXfXfXgXgXIXZXDXPXIXDXSXSXSXLXZXLXDXPXmX8 , d 6 6 ",
": , = k - 5 Q.uXuXiXzXuXqXtXqX] ( / 9.M.l.l.k.l.l.k.u.l.l.h.=X] sXsXkXN.M.c.c.M.c.M.M.gXuXk 8 5 = 6 ",
"5 7 5 k 5 5 a ( W.wXtXW.] ( E E 0 0 + j.y.y.y.y.j.k.y.y.p.l.] W.IXfXM.n.n.B.V.B.V.V.m.aX-Xl 5 m Q.W.",
"R.k 7 6 5 7 4 E E R 0 E E E W 3 0 q + q.>.>.j.j.y.t.t.j.y.+.R ! sXM.n.B.n.n.V.V.V.V.B.fXBXCXzXqXVXLX",
"GXtX-XtX:XQ.) / W W W W R R 0 R q q ~ :.:.:.t.y.x.t.l.l.y.7.X X M.k.a.s.v.n.n.n.N.n.m.=XlXcXbXAXmXmX",
"VXBXJXFXKXGXLX' Q 0 R R R R 0 3 0 0 ~ ,.:.:.:.:.>.,.:.>.,.+.w ^ v.a.b.v.v.b.v.b.N.n.M.J.}.(.).XX;X2X",
"<X*X8X1X<XyXvXqXW R R R Q R R 3   9 o %.%.%.%.%.%.,.;.;.,.X.9 6.u.u.k.k.k.v.v.b.m.B.c.L H.L H.J.J.J.",
"P J.U.P J.U.U.A W W R 0 0 0 1 0 3 q ~ ;.,.,.>.,.>.>.>.q.:.X.9 7.k.k.i.z.z.s.k.v.b.s.7.F.Z A H G J J ",
"G c H c c v x x E E R 0 0 R w w 3 0 + %.;.;.#.>.<.1.>.;.>.X.w @.j.y.y.y.y.y.z.i.i.i.^ r p f z z z z ",
"j j j j f g d * 3 s R R 3 3 3 3 3 9 o %.&.*.#.#.&.#.#.;.&.o 9 r.t.u.z.i.i.i.v.m.b.z.R 5 * h * k y t ",
"= > u u = - - = 4 3 q 0 0 0 3 3 1 3 o O.*.*.&.*.&.%.#.&.%.~ 9 t.t.y.y.y.y.i.i.i.k.k.$ > = % i & & & ",
": : : # > = = % @ 2 3 1 1 1 1   1 1 o  .| ....| ..o.$...| 9 9 r.%.&.#.#.<.1.1.1.1.:., @ % : # , ; ; ",
"F F S ; ; < ; < $ 2 3 1   1 3   3 1 o  . . . . .|  .O.O.o.X X t.O.%.&.&.;.;.;.>.2.q.; 2 < # # , : ; ",
"I.&X*XE.Y.l Y E.S S / / / ) E 1 1 4 w { { { { 3.} { { } O   9 7.} }  . . . .$.$.%.5.-X_ *XR.R.R.I.I.",
"K J K J.U.G.G.I.`.I.Y.I.&X&XY.F ( R.' 4.4.o o o 4.8.9.9.e 0 X 4.4.8.0.eXrXiXiXiXwXyX;X&XG.J.G.P K c ",
"v x v x v Z Z v Z Z Z Z Z Z C K K P.].:XlXR.:X:X-XR._ *XR.*XR.wX1X1X1X*X&XY I.E.Y G.n v x x C z D A ",
"Y n n A A b b A x x x b A A n b n U U U A n n n n n H n z n U H U n U H y j U n b b A D U Y D D b j ",
"u t & t d t d d g x b b f r y f r f f t t t r t f r r r r y f r t r f f * r f t r d d d f j j j f t ",
"t & * t t * * * r t t t * * * r * t * - * = & = * * = * - * = * * d r * r t * r d d r * * t t t t t ",
"& t t t * * & & & - - - * t * * * = = % = % % % % % > = = = = = - d = - = t = t t t t * * = t t & & ",
"# & & & & & & & % & & > = = = = & = & % : % % ; ; ; # # : > > = = & & & & = > = = = & & & : & % : & ",
"& & & & & & & & & = > > = = = = > > > > > > : > : : % % > > > > > & : > : > u & > = & : : : : : = = ",
"= = = > = = = = > = = > 6 6 > > 6 6 6 6 6 6 > h > 6 6 6 l h > 6 = = > > > > > = > > = = = = > > & = ",
"6 6 6 k k k k k h h h h h 6 h l l k 6 k k k k k k k k B A.A.l 6 6 k 6 6 k k k k h h h h h 6 6 h = h ",
"g V V k N N k S A.S D 8 V B k Z.N N N N N N N V V A.Q.yXlXR.A.D B S F V B B g N V V V V V V V k 6 k ",
"V V V V N Z.Q.lXHXNXvX:XE.Y.D B B B B B B B B N R.vXCXLXJXGXvX:X:XzXlX:XE.E.A.N N N N N B N V V V B "
};
