/* XPM */
static char *_cf2ab5041fd4ef481cffcea867a5de5NO7mzfvvVt524Keg[] = {
/* columns rows colors chars-per-pixel */
"50 50 256 2 ",
"   c #25121D",
".  c #1A142B",
"X  c #2D132F",
"o  c #322838",
"O  c #44393E",
"+  c #4C2E35",
"@  c #703438",
"#  c #5E1932",
"$  c #744F37",
"%  c #5E5A3F",
"&  c #0A364E",
"*  c #193849",
"=  c #0D3554",
"-  c #0D3B55",
";  c #053C5A",
":  c #0D3C5B",
">  c #063757",
",  c #133552",
"<  c #123B55",
"1  c #113C5C",
"2  c #18375B",
"3  c #102C4E",
"4  c #362B43",
"5  c #27374B",
"6  c #3A3747",
"7  c #323555",
"8  c #0B3A66",
"9  c #133D63",
"0  c #163867",
"q  c #12366C",
"w  c #353A62",
"e  c #452744",
"r  c #473949",
"t  c #463D52",
"y  c #553248",
"u  c #703747",
"i  c #06435C",
"p  c #0B425C",
"a  c #0A4859",
"s  c #13435B",
"d  c #154557",
"f  c #0F545B",
"g  c #354854",
"h  c #0B4362",
"j  c #0C4B62",
"k  c #0D436B",
"l  c #054767",
"z  c #144164",
"x  c #124C63",
"c  c #15436B",
"v  c #18486A",
"b  c #0C5263",
"n  c #0B536C",
"m  c #0B5B6D",
"M  c #055569",
"N  c #15576A",
"B  c #0D4B72",
"V  c #044977",
"C  c #154B79",
"Z  c #194E7B",
"A  c #164775",
"S  c #0B547A",
"D  c #055777",
"F  c #185A73",
"G  c #36566E",
"H  c #244A74",
"J  c #275877",
"K  c #2F4F6D",
"L  c #08666C",
"P  c #13626E",
"I  c #0A6777",
"U  c #166777",
"Y  c #097579",
"T  c #15757B",
"R  c #266476",
"E  c #316B76",
"W  c #4A454B",
"Q  c #484555",
"!  c #564854",
"~  c #525054",
"^  c #684A56",
"/  c #6E504D",
"(  c #7B6E57",
")  c #555A69",
"_  c #4B5470",
"`  c #6C5964",
"'  c #5A6B76",
"]  c #4A6D72",
"[  c #6D6E72",
"{  c #892638",
"}  c #913534",
"|  c #AF3733",
" . c #C63832",
".. c #8B4F37",
"X. c #B34C32",
"o. c #B26E39",
"O. c #9C7E38",
"+. c #D5582A",
"@. c #C95935",
"#. c #D75835",
"$. c #C74C2F",
"%. c #E75631",
"&. c #D8683A",
"*. c #CB7735",
"=. c #D77439",
"-. c #CE6E2E",
";. c #E66C35",
":. c #EB7132",
">. c #DE5F1A",
",. c #912A44",
"<. c #8B5250",
"1. c #B45145",
"2. c #936B4D",
"3. c #B36D50",
"4. c #8E586E",
"5. c #8F7170",
"6. c #AB7673",
"7. c #CC7543",
"8. c #D47842",
"9. c #DF5444",
"0. c #4B9677",
"q. c #BB8A3A",
"w. c #D8893A",
"e. c #D09139",
"r. c #E4983A",
"t. c #EC903B",
"y. c #DEA53D",
"u. c #E0AC3C",
"i. c #B38854",
"p. c #98876F",
"a. c #B29273",
"s. c #B5A373",
"d. c #D68A44",
"f. c #D99945",
"g. c #D59554",
"h. c #CB8745",
"j. c #E69743",
"k. c #E68A48",
"l. c #D5AA55",
"z. c #E5A845",
"x. c #EAA953",
"c. c #E6B758",
"v. c #EAB34C",
"b. c #D6AC6A",
"n. c #E6B56F",
"m. c #C5847E",
"M. c #F0C653",
"N. c #ECC666",
"B. c #085A84",
"V. c #115389",
"C. c #335A84",
"Z. c #066786",
"A. c #156885",
"S. c #0A7886",
"D. c #167987",
"F. c #046C96",
"G. c #077695",
"H. c #137898",
"J. c #3A7A8B",
"K. c #277993",
"L. c #33728B",
"P. c #0476A2",
"I. c #207CA3",
"U. c #567A8B",
"Y. c #4D7190",
"T. c #6D788A",
"R. c #587EA2",
"E. c #877A8B",
"W. c #0A858A",
"Q. c #098699",
"!. c #158A97",
"~. c #179798",
"^. c #138B8F",
"/. c #269797",
"(. c #379B9A",
"). c #2C8A98",
"_. c #0785A5",
"`. c #0895AA",
"'. c #1898A7",
"]. c #0599B3",
"[. c #1290B0",
"{. c #2398A5",
"}. c #328AA5",
"|. c #19A3A6",
" X c #14A6B5",
".X c #25A6AC",
"XX c #33ACBC",
"oX c #30AEAD",
"OX c #1BA89C",
"+X c #468495",
"@X c #4E9194",
"#X c #758799",
"$X c #6E8F91",
"%X c #72B399",
"&X c #4D97A6",
"*X c #7291AB",
"=X c #48A9AC",
"-X c #54ABB1",
";X c #73B0B3",
":X c #4CA89A",
">X c #7CCB9D",
",X c #7AC3A6",
"<X c #70C6B3",
"1X c #56C2B5",
"2X c #33B4C8",
"3X c #13A5C3",
"4X c #4FB4C3",
"5X c #79B8C3",
"6X c #6AB7C1",
"7X c #75C9C5",
"8X c #48C0D1",
"9X c #848C8B",
"0X c #899599",
"qX c #959493",
"wX c #AB9589",
"eX c #96B993",
"rX c #ABB194",
"tX c #919BA9",
"yX c #90ACAF",
"uX c #ABB5B2",
"iX c #A49BB6",
"pX c #D8B198",
"aX c #C8BAB0",
"sX c #E4B8A0",
"dX c #8CCB99",
"fX c #A9C294",
"gX c #87CAA7",
"hX c #8FCAAE",
"jX c #AEC9B3",
"kX c #EDC792",
"lX c #D4CBB6",
"zX c #EED2B3",
"xX c #91B1C5",
"cX c #A3BBC3",
"vX c #B0B9C9",
"bX c #8FCBCB",
"nX c #A8C5CA",
"mX c #ABC8D4",
"MX c #B7CDD6",
"NX c #B9D3D9",
"BX c #B5CCCE",
"VX c #B3D4E3",
"CX c #BFE2EA",
"ZX c #99D7E4",
"AX c #C7D6DB",
"SX c #CCCDD2",
"DX c #EAD6CD",
"FX c #D2E3DD",
"GX c #ECE8D2",
"HX c #C7DAE4",
"JX c #D4DCEA",
"KX c #E5DEE4",
"LX c #D6E6E6",
"PX c #CFE5F0",
"IX c #E4E6E8",
"UX c #ECEEEF",
/* pixels */
"'.'./.oX:XbXnXPXIXIXJXKXUXIXHXoX.X'.|.|.'.'.|.|. X~.{.oX6XKXjXNXAXLXFXKXHXbX5X=X.X{.{.{.|.|..X.X'.'.",
"(.-XmXLXIXUXAXnXNXNX7X<XnXnXNXPXSXAX5X^.!.Q.'.)./.!.-XHXLXyXjX1X5X7X1XbXHXHXPXNX=X{.!.!.).).!.^.).).",
"AXAXAXMXAXmX;XoXoXoXOXOXoX.X=X<XmXVXHXJXNXcXnX;X6 ` HXUXnX%XfXhX|.oXoXoX-X-X7XcXHXmXyXyXnXBXnXmXNXFX",
";X;X(.(.=X-X/.~.~.~.~.~.{.~./.^.(./.=X-X;XxX<X<Xo 6.VXmX$XgXeXdX/.~.~.~.~.^.~.(.&X(.~.(.;X;X-X/.&X-X",
"W.^.S.!.W.^.D.D.W.W.S.S.^.D.W.!.!.^.W.W.!.Q.H.L.u p.@XOX0.hXuXdX@XW.W.W.^.K.^.W.W.!.!.!.!.^.W.!.W.W.",
"D.D.T T Y Y Y T Y Y U T Y Y S.Z.Y D.Z.G.G.A.* O o + u E :XhXrX<X:XY A.U Y S.T Y T T Y Y T T Y Y Y Y ",
"N P L L T U L L F L P F M m I L E 9XwXi.i.a.  X . . X % %XgXrXgX%XN D L L Y I L L I U P L L I U L P ",
"N M I m M m m m m M b M Z n f 4.=.7.&.:.t.:.o.+ . X @ g %X<XrXgXeXG I m f D S N P m m m m N m n N N ",
"N b N b m N a f f j M M d 4.1.1.|  . .%.:.>.8.X.. o X.g ,XdXrXgXfXd.6.M l f M s n N x b b f b a x x ",
"j x x x p i x p a v 2 t <.1.$.1.X. .9.%.%.:.X.} X + @ ~ ;XgXeXhXrX:.:.8.` 9 h V j i j j x v s z s s ",
"p x d d d - s s 9 = h i d 2 * 7 r @ } @.+.;...+ X + <.` ,X>XhXrXhX7.$.X.o.6 8 a p d s s p s - z s s ",
"1 1 G U.d d & : : , 3 & 3 2 6 6 5 K > 5 7 w 7   . X / g ,X,XdXjXgX0 6 0 = 2 = , K _ , < - : h > , , ",
"g T.JXFXBX' g 5 & = 2 G 0XuX0X0XvXtXiX[ g > 0 . . X 5.' %XhXdXeXbX= $ , & 3 2 ] AXLXiX#Xg * * * 1 < ",
"NXAXAXLXNXMXNXmXU.tXcXHXCXtX;XT.6XZXVX0XnX$X5 . ~ . 5.uX%X>XgXrXdX_ o.2 = K uXCXmXNXMXHXHXNXcXcXcXuX",
"XX4X4X2X2X2X2X2X2XXX=X4XXXJ.{.[ `.`. XE -XZX;Xe Y.g ' ).$XhXhXdXhX2X2.=X{.4X7X X3X X2X2X2X2XXXXX2XXX",
"'.'.'.'.`.[.`.[.].`.].3X].J.G.` !._._.G Q.].!.} }.2.wX_.[ fXdXrXrX[.2.].].[. X3X].].`.`.`.`.'.'.[.[.",
"!.!.G._._.G._._._.Q.G._.Q.) G.^ F.G.F.g F.F.] k.F.<.m.S.] dX>XrXeXH.6.G._._.P._._._._._._.Q._._.Q.Q.",
"S.H.G.G.F.Z.F.F.F.G.F.P.G.Q A./ Z.Z.Z.K F.V.G 3.D ^ 6.B.I wXhXeXa.J 5.G.Z.H.G.S.G.G.F.F.F.G.G.G.G.G.",
"Z.Z.Z.A.Z.Z.Z.B.Z.Z.B.B.A.W g .._ ) _ ^ _ _ ) 3.p.2.3._ D E.gXeXE.' 5.F.Z.B.Z.Z.Z.Z.Z.Z.Z.Z.I A.Z.Z.",
"B.S S S S S D D S D D D Y.[ #XrXrXa.p.p.a.s.a.h.pX3.e.a.5.( %XfXE 0XqXB.D B.B.V.D D D B.B.S S F S S ",
"B B B B V V V S B.B.V B C.' T.9X#X$X#X$X#X$X$X$X$XqXrXrXpXzXUXGXIXGXjXV.F l S V S V V V V B B B B B ",
"k v v k V V l k B l c s Q Q ) ' ~ ~ ~ ~ ^ / / / $ $ $ ..q.f.f.f.kXzXqXV V B.V D V V V V l k B k k c ",
"c v z 8 k 8 1 G tX' ' ) ~ W W g ! ` ` ^ / / $ $ @ ..o.h.x.x.c.c.n.zXlXk B l q h c 8 8 k 8 8 c c z z ",
"c 9 9 9 8 8 _ iXwXW t Q ! ! ^ y W 9XuXlXlXSXSXlXlXaXzXlXkXkXkXkXkXzXGXtXE.$XT.E.R.H 8 q 8 8 0 2 9 9 ",
"h 0 8 8 8 : uXrX/ rX^ O W W [ qXtX#XSXzXpXpXpXsXsXlXlXlXzXzXUXDXGXGXUXGXDXGXDXKXDXIXGXUXMX0 0 h 9 9 ",
"< 2 = c > 8 Y.uXuXtXvXuX0XtX0X[ ` ~ 5.b.g.g.g.f.f.f.e.f.g.i.9X' aXaXkXn.b.l.l.b.l.b.b.zXuXv q 0 1 9 ",
"9 0 8 c 8 8 w ) T.9XtXT.[ ) Q Q r r / h.w.w.d.w.k.w.w.t.t.i.T.T.UXlXb.v.c.M.N.M.N.N.v.pX$Xv 8 B Y.T.",
"R.c 0 9 8 0 w Q Q W t Q W W ! 6 6 t / 7.8.=.d.d.w.w.w.f.w.o.~ ` aXb.c.M.c.c.N.N.N.N.M.lXAXSXcX0XAXIX",
"JXtX#XtX*XY._ ~ ! ! ! ! r W r W 6 7 / *.*.*.w.e.d.d.h.g.d.3.+ @ b.f.y.u.z.c.c.c.n.c.v.$XxXnXMXFXBXBX",
"SXHXLXHXPXJXIX[ ! r ! W W W r 6 W 6 / -.*.-.-.*.*.*.-.*.w.o.y <.z.y.x.z.z.x.z.x.c.c.b.D.'.^.!.(.&X&X",
";X@X5X;X;XyXmX0X~ W W W ~ W W r O e u @.@.@.@.@.@.@.-.&.-...e 2.e.e.f.f.f.z.z.x.v.M.l.Y S.Y S.D.D.D.",
"U D.K.T D.K.K.F ! ! W r r r 4 r 6 r / -.-.-.=.-.=.*.=.8.*...y 2.f.d.r.j.j.y.f.z.x.y.3.Z.D F N L I I ",
"L m P m m M n n Q Q W r r t r y 6 r $ @.&.&.+.=.;.:.;.=.=...y O.d.w.w.w.w.w.j.r.r.t.( i a j b b b b ",
"x x x x j k h ; 7 g W r 6 6 6 6 6 e @ @.#.$.+.+.#.#.+.&.#.@ e i.e.e.r.r.r.r.z.z.x.j.Q 8 : z ; c s p ",
": 1 s s : > > : 7 6 t r r r 6 6 o 6 @ X.$.$.#.$.#.@.+.#.@.^ e e.w.w.w.w.w.r.r.r.f.f.* 1 : & d < - - ",
"< < d = 1 : : = * 5 6 4 4 4 4 o 4 4 @ | |  . .|  .X.$. .| e e e.@.#.+.+.;.;.:.:.=.*.2 3 = < & 2 , , ",
"v K G , , 3 , 3 * 5 6 4 o 4 4 o 6 o @ | | | | | | | X.$.X.O O e.X.@.#.#.&.&.&.=.;.7., 5 & & & 2 < , ",
"J.+X@XY.L.v E Y.G G _ _ _ _ Q 4 4 7 y { { ,.{ ,.} { { } # o e 3.} } | | | | $.$.@.1.#X' @XU.U.U.J.J.",
"U P U A.K.A.A.J.).J.J.J.+X+XL.K ) U.[ <.<.@ @ @ <.4.5.5.u r + <.<.4.6.wXwXqXrXqX9XyX&X+XA.D.A.T U m ",
"M n M n M D D M D D D D D D S U I I.}.*XxXU.*X*X$XU.] @XU.@XU.qX;X;X;X@X+XE J.Y.E A.F M n n S b J F ",
"R N N F F N N F n n n F F F N N N R R R F N N N N N P N b N R R R N R R a x R N x N F J R R J J N x ",
"s p - p j p h h l n F n j i a j i j j p p p i p j i i i i a j i i i j j > i j p i h j j j x x x j p ",
"p - : p p ; ; ; i p p p ; > ; i ; p ; ; : : > : : : : ; > ; : ; ; h i ; i p ; i h h i ; ; p p p p p ",
"- p p p : : - > - > > > : p : ; : : : = : = = = = = : : : : : : > h : > : p : p p p p : : : p p - - ",
"& - - - - - - - = - - 1 : : : : - : - = = = = = , = & & < 1 1 = : - - - - : 1 : : : - - < < - = < - ",
"- - - - - - - - - : 1 1 : : : : 1 1 1 1 1 1 = 1 < < = = < 1 1 1 1 - < 1 < 1 s - 1 : - < < < < < : : ",
": : : 1 : : : : 1 : : 1 9 9 1 1 9 z 9 9 9 9 1 z 1 9 9 9 v z 1 9 : : 1 1 1 1 1 : 1 1 : : : : 1 1 > : ",
"9 9 9 c c c c c z z z z 9 9 z v v c 9 c c c c c c v c H C.C.v 9 9 c 9 9 c c c c z z z z z 9 9 z : z ",
"k A A c C C c G C.G J q A A c V.C C C C C C C A A C.Y.yXxXR.C.J H G K A Z Z k C A A A A A A A k 9 c ",
"A A A A C V.Y.xXPXCXnX*XY.L.J Z Z Z Z Z Z Z Z C U.mXAXIXLXHXmX*X*XcXcX*XY.Y.C.C C C C C Z C A A A Z "
};
