/* XPM */
static char *_d998ae0059b465fd756e4ebdb6a4304XkQyNVTKt02gglqG[] = {
/* columns rows colors chars-per-pixel */
"50 50 256 2 ",
"   c #2D130D",
".  c #322F2F",
"X  c #1A2E39",
"o  c #7C0A19",
"O  c #770E13",
"+  c #791827",
"@  c #7D0725",
"#  c #742232",
"$  c #43271C",
"%  c #714D3D",
"&  c #152D4C",
"*  c #0A394C",
"=  c #183549",
"-  c #0C3B54",
";  c #0D3C5B",
":  c #093757",
">  c #133453",
",  c #123B54",
"<  c #13355B",
"1  c #123C5B",
"2  c #1B3956",
"3  c #0F2C52",
"4  c #2D3850",
"5  c #0B2E60",
"6  c #0D3C63",
"7  c #093A68",
"8  c #133C64",
"9  c #133C6A",
"0  c #173867",
"q  c #173C75",
"w  c #162B66",
"e  c #253469",
"r  c #53344B",
"t  c #6D3048",
"y  c #533676",
"u  c #0A4055",
"i  c #0C425C",
"p  c #0C4A5D",
"a  c #05465A",
"s  c #134255",
"d  c #13435C",
"f  c #15485C",
"g  c #08555D",
"h  c #16505E",
"j  c #304758",
"k  c #0C4363",
"l  c #0C4B63",
"z  c #0E456B",
"x  c #0C4A6D",
"c  c #054663",
"v  c #124264",
"b  c #124C64",
"n  c #13436A",
"m  c #1A436B",
"M  c #124B6B",
"N  c #1A4666",
"B  c #0C5365",
"V  c #0B556C",
"C  c #0C5B6C",
"Z  c #055869",
"A  c #125365",
"S  c #135C6D",
"D  c #18556B",
"F  c #0E4E71",
"G  c #0A4677",
"H  c #144A74",
"J  c #154B79",
"K  c #194D7B",
"L  c #184674",
"P  c #0D5172",
"I  c #0E5779",
"U  c #0E5A7A",
"Y  c #095A73",
"T  c #145D75",
"R  c #28476A",
"E  c #275677",
"W  c #395A76",
"Q  c #2D516F",
"!  c #08656C",
"~  c #11626B",
"^  c #0C6473",
"/  c #0A6A77",
"(  c #156777",
")  c #0A767A",
"_  c #15747B",
"`  c #286479",
"'  c #3E6778",
"]  c #4E4E6A",
"[  c #694F67",
"{  c #466479",
"}  c #566C74",
"|  c #6A6A73",
" . c #5F5353",
".. c #850917",
"X. c #8B0F18",
"o. c #880924",
"O. c #871526",
"+. c #921431",
"@. c #953132",
"#. c #964838",
"$. c #AA5535",
"%. c #B36D34",
"&. c #976B3A",
"*. c #C5703B",
"=. c #952D48",
"-. c #A53F51",
";. c #91554E",
":. c #A95349",
">. c #976E4C",
",. c #B67847",
"<. c #AE7250",
"1. c #965567",
"2. c #8F6D6F",
"3. c #B2716B",
"4. c #C87A49",
"5. c #0F847D",
"6. c #7C947E",
"7. c #D18338",
"8. c #B79559",
"9. c #B48A54",
"0. c #BBA057",
"q. c #948E75",
"w. c #B49667",
"e. c #B1926C",
"r. c #BAA671",
"t. c #D5884B",
"y. c #C78B51",
"u. c #D6965B",
"i. c #CC904E",
"p. c #E49B4B",
"a. c #D4A95C",
"s. c #C69966",
"d. c #D4976C",
"f. c #C6A66A",
"g. c #C7A679",
"h. c #DBAA75",
"j. c #D5B778",
"k. c #D3AE70",
"l. c #E5AF6E",
"z. c #E8A65A",
"x. c #075783",
"c. c #125089",
"v. c #355B84",
"b. c #0B6482",
"n. c #096B85",
"m. c #136381",
"M. c #097688",
"N. c #157785",
"B. c #0B7591",
"V. c #0F7991",
"C. c #0D6E92",
"Z. c #3C6985",
"A. c #297784",
"S. c #317589",
"D. c #2673A7",
"F. c #1D61AC",
"G. c #476885",
"H. c #5A7A97",
"J. c #497391",
"K. c #69788B",
"L. c #5066A2",
"P. c #123C92",
"I. c #AB7B85",
"U. c #817889",
"Y. c #0A868A",
"T. c #15848B",
"R. c #0D859D",
"E. c #0B8795",
"W. c #178A95",
"Q. c #159998",
"!. c #0D9694",
"~. c #249899",
"^. c #319199",
"/. c #2DA79D",
"(. c #1385A3",
"). c #0B97AC",
"_. c #1495AB",
"`. c #1899A9",
"'. c #1195AE",
"]. c #239CA5",
"[. c #1BA2A7",
"{. c #18A0B8",
"}. c #28A6AB",
"|. c #2BAAB7",
" X c #38ACBB",
".X c #31AFA9",
"XX c #4F9099",
"oX c #6D8598",
"OX c #5195A5",
"+X c #698AA8",
"@X c #7292AC",
"#X c #48A3A8",
"$X c #50ADB2",
"%X c #71B0B5",
"&X c #4BA89B",
"*X c #4FC2BF",
"=X c #38B3C5",
"-X c #31ADC6",
";X c #2789C8",
":X c #44B6C7",
">X c #59B6C7",
",X c #70BAC8",
"<X c #71C6C7",
"1X c #48C0D1",
"2X c #8B9496",
"3X c #A8999A",
"4X c #B08D8F",
"5X c #B2AB8E",
"6X c #8C99A8",
"7X c #90AFB4",
"8X c #A9B8B8",
"9X c #AEAEB0",
"0X c #B897A8",
"qX c #C48D88",
"wX c #CAA882",
"eX c #D4B785",
"rX c #C8B190",
"tX c #C79CA5",
"yX c #C5B1B1",
"uX c #E7BEA8",
"iX c #B8C8B3",
"pX c #DAC899",
"aX c #D1C587",
"sX c #CFCBB8",
"dX c #E0CBB0",
"fX c #8CB4C6",
"gX c #A8BCC6",
"hX c #ACB8CA",
"jX c #86C7C6",
"kX c #96C7CB",
"lX c #A9C6CA",
"zX c #B6C8CB",
"xX c #A8CAD3",
"cX c #BACBD4",
"vX c #B8D6DA",
"bX c #AFD2D4",
"nX c #BAE1DE",
"mX c #B9DAE2",
"MX c #BEE0E2",
"NX c #C4DBDD",
"BX c #C7D7DB",
"VX c #D3DBD9",
"CX c #CBD0CF",
"ZX c #CAE3DC",
"AX c #D3E3DD",
"SX c #C9DAE5",
"DX c #D3DDE6",
"FX c #C9D6E9",
"GX c #CAE3E5",
"HX c #D6E4E7",
"JX c #DAE9F2",
"KX c #E4E5EA",
"LX c #E6EBF5",
"PX c #E6F1F6",
"IX c #E2D5D7",
"UX c #CFB1CB",
/* pixels */
"`.`.~..X&XkXlXJXLXJXNXGXPXKXnX&X[.}.].].].}.`.}.[.$X%XvXHXVXZXlXvXHXVXHXvXjX<X#X}.].].`.[.[.}.}.`.].",
"^.OXbXJXKXPXBXlXcXxXjXjXkXlXSXFXFXbX%X^.~.W.W.W.XXbXJXDXkX<X<X*XfX<X$XjXvXDXHXvX#X].W.W.^.^.W.W.W.^.",
"BXBXBXcXBXxX%X/..X.X}.[..X/.$X,XgXzXGXMXvX7X7XxXmXNXxXjX X|.|.|.|.}.}. X$X%XfXlXSXbX7X7XgXzXlXxXvXAX",
"%X%X^.^.#X$X~.Q.Q.Q.Q.W.Q.Q.Q.~..X~.#X$X%X#X/.#X/./.#X#X~.Q.!.Q.Q.!.Q.Q.Q.!.Q.~.OX^.Q./.%X%X#X~.#X$X",
"Y.E.M.W.Y.W.V.N.T.N.T.M.Y.Y.Y.Y.Y.Y.W.T.W.E.E.E.W.W.W.Y.Y.Y.T.5.5.5.Y.Y.T.W.Y.Y.Y.W.R.E.W.Y.Y.W.Y.Y.",
"N.N._ _ ) ) ) _ N.( N.) / ( _ ) ) ) ) ) ) ) _ _ M.) N.N.N.( _ ) ) _ N._ ) ) _ _ _ ) ) ) _ _ ) ) ) ) ",
"S ^ ! ! _ ( ~ ! / ^ C S S S ^ / m.U m.m.( ! ^ ( / / ^ ~ S ( ( ^ ^ ( ^ ^ / / ^ S ! ^ ( ^ ! ! ^ ( ! ~ ",
"S Z ^ C B S S C B ~ B A S C C A C B C Z C Y T V Y C B ~ Z Z Z C Z C S S C C S T ( S Y S B S C V S D ",
"A l D B B A p h B B p A A l b l M f D g g Z V M L p B S l b g g p D A l A B A B B B B B A A A p b b ",
"l b b A i i D i p p i p f p b b g c l M ; f p a g u x x b l c N p p b l l b p p b b b b b b b f d d ",
"u f s s s - f i , , s , , 1 , , v d u , R 8 6 N a R i X . X e ; f - d d d N s s * , s s - i f b f s ",
"d , Q J.2 f : 1 * , s , , , - - = * f 2 > - - * - & & . $     - - , , , , * * s W Q 2 , 1 d ; : , > ",
"j K.DXDXzX} j 4 > > 3 > > 3 > 2 2 3 3 { K.| = < , = <   .   &.K.> 2 3 > 2 > W +XSXzX7XK.j = = = 1 , ",
"cXBXBXHXcXzXvXhXgX7XzXK.} 6X} } ' K.9XSXvXJXhX7XgXsX|   ;.<.i.FX7XBX8X2X6X8XBXVXNXvXBXSXSXvXgX7XgX8X",
"=X1X:X:X=X|.=X-X:X:X X X=X=X:X:X>X,X$X=X=X$X7XrXrXj.f.,.*.4.q.>X X=X|. X=X X:X$X|.|.-X=X=X=X-X-X=X X",
"`.(.`.`._.`._.`._.`._.`.{.{.{._.'.).~.7XeXa.l.h.h.7.p.9.%.e.OX).'.'.).).).).{.'.`._._._._._._._._.'.",
"R.R.R.R.R.R.R.R.R.R.R.R.R.R.R.R.R.6XeXa.%.%.4.*.%.i.a.t.*.y.3XXXE.R.(.R.(.(.R.E.R.R.R.R.R.R.R.R.R.R.",
"B.B.B.B.B.B.B.B.B.B.B.B.B.B.B.B.} U.K.4X{ Z.8.%.,.z.i.i.%.$.u.f.qX2X_ M.B.V.n.V.B.B.B.B.B.B.B.V.B.B.",
"b.b.b.b.b.b.b.b.b.b.b.b.b.b.b.b.m.^ Z n./ 6.l.h.<.,.%.<.| } &.,.u.u.f.q.oXG.T C.b.b.b.b.b.b.b.b.b.b.",
"U U U U U U U U U U U I U U U U P x.x.x.{ pXa.t.i.t.$.G.c.U C.] % ;.;.;.h.s.q.Z I I I I I I I U I I ",
"P P P P F F P P F F F x F F F F x.h x.H 5Xj.i.7.%.$.] x.C B Z U c.F I P ] 2.] x.x x F F H F F F F F ",
"x x x x x x x x M M M M M M M G a M k F.L.4Xy.*.$.] P M 7 F K c G M d K 7 z n 7 z z M M M M M z z M ",
"n n n n n n n n n n v v n n 9 9 q G 0 ;X;Xc.P.[ y 5 c.3X2.G 7 0 x c M n 8 d < e n n n n n n n 9 v v ",
"9 9 9 9 8 8 8 8 8 8 8 8 8 8 8 6 9 s : D.-XD.F.3 3 x.| h.l.e.8 0 < 9 9 7 9 9 6 a n 9 9 8 8 8 8 8 8 8 ",
"6 6 8 < < 8 v ; 0 6 ; i : 8 5 0 n 6 0 ;XD.F.F.5 w q q.i.u.k.e.w < 9 9 9 9 8 0 H.Z.R 8 ; w 0 6 - 0 8 ",
"8 8 < 0 R < 5 9 : 8 m 6 L 9 n 8 5 q & q.g.9.;.0 7 5 % ;.<.4.<.1 0 8 9 m N { oXvXhX+XE R m 7 q 9 ; n ",
"< 8 8 9 5 L L 9 n 0 0 0 Q J.H.H.G.L n eXeX7.;.; 0 8 0 R y.p.2.R Z.G.@X@XhXFXLXPXLXGXCX6X+XK.R G W oX",
"H.R 8 9 K 7 L 8 G z N H.@XzXJXcXhX2XoXf.h.t.[ e ; 7 0 2.p.y.yXhXBXBXPXKXCXIXyXtX4XqX4XI.I.4X3X6XSXLX",
"DX7XoX+X+XH.H.6XH.H.FXHXDXLXPXPXPXPXJXj.p.s.H.+XG.v.7XiXp.u.yXiXtXI.3.+ @.$.$.#.;.+ o.......o X.9XhX",
"VXVXHXJXDXSXSXDXKXHXlXkXjX7XvXBXzXCXuXl.,.sXGXVXzX9XtX4Xt.%.#.<.9.8.f.eXeXg.w.g.tX8X3Xo ..o O.+ $XXX",
"%XXX%X@X7X%XkX%X7X%XT.T.Y.T.OXOX+X9Xh.l.qXUX0X3.@.3.8.f.d.>.8.s.wXg.s.8.s.g.eXpXHXHX8Xo...o @ } N./ ",
"M.V.T.N._ N.N.N.V.n.M.n.n.n.n.n.{ e.a.%.@.:.<.0.k.r.8.y.t.,.>.8.0.k.j.pXsXVXVXSXvX7X@.o ....] T ~ C ",
"~ Y m.Z ! D Y C C Z Y ^ Q [ 1.-.:.u.y.8.f.9.<.9.9.8.f.f.u.l.s.s.rXsXCXNXSXNXvXbX3X@ o + @ r ! V B l ",
"b l N a p m k p k Q [ -.:.<.w.eXj.k.9.9.>.w.j.aXg.r.w.9.9.8.9.e.8XzXVXNXNXVXyX1...O.+.t j B : M f i ",
"v ; u s - < p [ 1.-.:.w.eXh.s.w.s.i.y.w.w.8.s.s.g.eXpXdXsXiX8XlXiXZXGXSX9X;.O ..o.# 4 - 0 9 6 8 - - ",
"s = , & 2 4 =.@.3.g.wXs.f.j.aXeXeXd.%.9.g.pXdXIXZXAXBXvXvXZXAXCXVXyX3.O.....+ # 4 * - f a : 2 * > > ",
"j Q W > = =.3.qX5XwXwXg.g.wXrXyXwXg.5XCXvXZXnXmXBXVXHXVXCXyX4X1.o.X.O.O # r = : : : > & * * = = > > ",
"^.XXXXS.| ;.q.5XyXsXVXAXBXNXGXBXiX5X9XcXBXVXIXCX8X3X2.@.O O O.o.t [ } J.* > 3 , & & > 2 Q G.J.XXS.S.",
"( / ( ( j +.;.2.3X8XlXhXlXzXCXsXyXyX0X3X2.#.X.o...o + + t [ ' A.n.M.M.N.J.Z.` A.A.A.S.S.S.A.( ( ~ C ",
"V D g U P j t +.+.@.X...X.O.o.+.O.o.o.o.O.+ # t r ] E Z / Y ^ _ ` C Y / Z Z A.` ( / Y C ! Z V Z ` T ",
"` E D D D D b i 4 r r r r t r r r r 4 j f b l k c V V B V Z B V D ` ` ` D l B C D D ` ` Z.` ` D D b ",
"p i i i l p i ; a c i ; 1 d d i d f p p a i p k i l l a l l c l p b D E ` ` ` A.Z.` D b b b N b k i ",
"- - ; i i i i i 6 8 6 ; ; ; k 6 a a a a a u u u 1 1 1 ; i i i i p p p p b f f i b b i i ; i i i i i ",
"- ; i i - - ; ; , - - - - u u u < < < > > - - - > > > , - - - - u i i i ; ; d d ; ; - ; - ; ; ; - - ",
"- - - - - - - - - - ; ; ; ; 1 1 ; ; - > > > > > > > > > > - 1 1 1 1 1 ; - - ; ; d d - 1 - 1 - 1 , - ",
"- - - - - - - - - - ; ; i ; ; 1 i - ; 1 < < < < 1 1 > ; < 1 < 1 < 1 1 1 d v i i - - - 1 , 2 - , 1 1 ",
"; ; ; ; ; 1 ; ; , , , 1 < 1 2 2 0 8 8 8 8 8 8 8 8 8 ; 8 m v ; ; 8 < ; ; 6 6 ; : d ; ; ; 1 : ; 1 - ; ",
"8 8 8 v v n n 8 n n n n n n n M m m n M M M n n v m m L v.E m n 8 v v v v v N N v 6 v v m 8 v v ; v ",
"k L L n J J n Q v.W E q L L L c.J J J J J J J H L v.G.7XfXH.Z.E K W Q L K K k J H H H H H H H n 9 n ",
"H L L H J c.J.fXFXmXxX@XJ.Z.E K K K K K K K K J H.xXBXKXHXSXxX@X@XhXgX+XJ.J.E J J J J K K J H H K K "
};
