/* XPM */
static char * player_xpm[] = {
"50 50 114 2",
"  	c #7A3C16",
". 	c #648475",
"+ 	c #000000",
"@ 	c #99B8BA",
"# 	c #A4BABA",
"$ 	c #744938",
"% 	c #75412E",
"& 	c #1A2E39",
"* 	c #322F2F",
"= 	c #6B3A3B",
"- 	c #122844",
"; 	c #43271C",
"> 	c #2D130D",
", 	c #304758",
"' 	c #2D3850",
") 	c #242D50",
"! 	c #705E60",
"~ 	c #976B3A",
"{ 	c #CFCBB8",
"] 	c #57575F",
"^ 	c #91554E",
"/ 	c #AE7250",
"( 	c #CC904E",
"_ 	c #5A6162",
": 	c #C8B190",
"< 	c #D5B778",
"[ 	c #C6A66A",
"} 	c #B67847",
"| 	c #C5703B",
"1 	c #C87A49",
"2 	c #948E75",
"3 	c #043948",
"4 	c #D4B785",
"5 	c #D4A95C",
"6 	c #E5AF6E",
"7 	c #DBAA75",
"8 	c #D18338",
"9 	c #E49B4B",
"0 	c #B48A54",
"a 	c #B36D34",
"b 	c #B1926C",
"c 	c #D5884B",
"d 	c #C78B51",
"e 	c #A59595",
"f 	c #704F4B",
"g 	c #6B6372",
"h 	c #B08D8F",
"i 	c #B79559",
"j 	c #E8A65A",
"k 	c #AA5535",
"l 	c #D6965B",
"m 	c #C48D88",
"n 	c #793D1D",
"o 	c #7C947E",
"p 	c #DAC899",
"q 	c #4E4E6A",
"r 	c #714D3D",
"s 	c #C69966",
"t 	c #B2AB8E",
"u 	c #8F6D6F",
"v 	c #1D61AC",
"w 	c #283557",
"x 	c #2789C8",
"y 	c #4A3C7A",
"z 	c #694F67",
"A 	c #533676",
"B 	c #563549",
"C 	c #2673A7",
"D 	c #0E2A4F",
"E 	c #162B66",
"F 	c #D3AE70",
"G 	c #764940",
"H 	c #062047",
"I 	c #C7A679",
"J 	c #202E3B",
"K 	c #0F1837",
"L 	c #C5B1B1",
"M 	c #E2D5D7",
"N 	c #C79CA5",
"O 	c #AB7B85",
"P 	c #A39495",
"Q 	c #9F9B87",
"R 	c #B2716B",
"S 	c #791827",
"T 	c #953132",
"U 	c #964838",
"V 	c #880924",
"W 	c #850917",
"X 	c #7C0A19",
"Y 	c #8B0F18",
"Z 	c #E7BEA8",
"` 	c #B49667",
" .	c #871526",
"..	c #CFB1CB",
"+.	c #B897A8",
"@.	c #D4976C",
"#.	c #976E4C",
"$.	c #CAA882",
"%.	c #7D0725",
"&.	c #A95349",
"*.	c #BBA057",
"=.	c #BAA671",
"-.	c #965567",
";.	c #A53F51",
">.	c #53344B",
",.	c #D1C587",
"'.	c #921431",
").	c #6D3048",
"!.	c #E0CBB0",
"~.	c #770E13",
"{.	c #742232",
"].	c #952D48",
"^.	c #3C3045",
"/.	c #8A9787",
"        .                     .                                                                     ",
"+ + @ + + + + + + + + + + + + + + @ + + + + + + + @ + + + + + + + + + + + + + + + + + + + + + + + + ",
"                                                                                  #                 ",
"+ + + + + + + + + + + + + + + + + + + + + + + + + + + + + + + + + + + + + + + + + + + + + + + + + + ",
"  $                                       $ $ $                                       $             ",
"+ + + + + + + + + + + + + + + + + + + + + + + + + + + + + + + + + + + + + + + + + + + + + + + + + + ",
"                                %   % %                                                             ",
"+ + + + + + + + + + + + + + + + + + + + + + + + + + + + + + + + + + + + + + + + + + + + + + + + + + ",
"                                                                                                    ",
"+ + + + + + + + + + + + + + + + + + + + + + + + + + + + + + + + + + + + + + + + + + + + + + + + + + ",
"                                                      & * & =                                       ",
"+ + + + + + + + + + + + + + + + + + + + + + + + + - - * ; > > + + + + + + + + + + + + + + + + + + + ",
",           , '     )     )       ) )     !           > * > ~       )                   ,           ",
"+ + + + + + + + + + + + + + + + + + + + + + + + + { ] > ^ / ( + + + + _ + + + + + + + + + + + + + + ",
"                                              : : < [ } | 1 2                                       ",
"+ 3 + + + + + + + + + + + + + + + + + + 4 5 6 7 7 8 9 0 a b + + + + + + + + + + + + + + + + + + + + ",
"                                    4 5 a a 1 | a ( 5 c | d e   $   f   f f   $                     ",
"+ + + + + + + + + + + + + + + + + g + h + + i a } j ( ( a k l [ m _ + + + + + + + + + + + + + + + + ",
"n n n n n n n n n n n n n n n n %         o 6 7 / } a / !   ~ } l l [ 2         n n n n n n n n n n ",
"+ + + + + + + + + + + + + + + + + + + + + p 5 c ( c k + + + + q r ^ ^ ^ 7 s 2 + + + + + + + + + + + ",
"                                        t < ( 8 a k q                   q u q                       ",
"+ + + + + + + + + + + + + + + + + + + v w h d | k q + + + + + + + + + + + + + + + + + + + + + + + + ",
"                                      x x   y z A B   e u                     =                     ",
"+ + + + + + + + + + + + + + + + + + + C + C v D D + ] 7 6 b + + + + + + + + + + + + + + + + + + + + ",
"                            B         x C v v B E   2 ( l F b E               G         E           ",
"+ + + + + + H + + + + + + + + + H + - 2 I 0 ^ + + H r ^ / 1 / + + + + + + + + + + + + + + + + + + + ",
"        B                   G G       4 4 8 ^           d 9 u                                       ",
"J + + + + + + + + + + J + + + + + _ + [ 7 c z K + + + u 9 d L + + + + + + M L N h m h O O h P + + + ",
"          G G   G G                   < 9 s G         Q 9 l L Q N O R S T k k U ^ S V W W W X Y     ",
"+ + + + + + + + + + + + + + + + + + Z 6 } { + + + + N h c a U / 0 i [ 4 4 I ` I N + P X W X  .S + + ",
"                                    7 6 m ..+.R T R i [ @.#.i s $.I s i s I 4 p       V W X %.      ",
"+ + + + + + + + + + + + + + + + + b 5 a T &./ *.F =.i d c } #.i *.F < p { + + + + + T X W W q + + + ",
"    %                     z -.;.&.l d i [ 0 / 0 0 i [ [ l 6 s s : {           # e %.X S %.>.        ",
"+ + + + + + + + + + z ;.&./ ` 4 < F 0 0 #.` < ,.I =.` 0 0 i 0 b + + + + + + L -.W  .'.)., + + + + + ",
"              z -.;.&.` 4 7 s ` s ( d ` ` i s s I 4 p !.{ Q     Q         ^ ~.W V {.'               ",
"+ + + - + ' ].T R I $.s [ < ,.4 4 @.a 0 I p !.M + + + + + + + + + L R  .W W S {.' + + + + + + + + + ",
",         ].R m t $.$.I I $.: L $.I t                     L h -.V Y  .~.{.>.          ^.            ",
"+ + + + ] ^ 2 t L { + + + + + + /.t + + + + M + + P u T ~.~. .V ).z + + + + D + - - + + + + + + + + ",
"        , '.^ u e             { L L +.e u U Y V W X S S ).z                                         ",
"+ + + + + , ).'.'.T Y W Y  .V '. .V V V  .S {.).>.q + + + + + + + + + + + + + + + + + + + + + + + + ",
"                ' >.>.>.>.).>.>.>.>.' ,                                                             ",
"+ + + + + + + + + + + + + + + + + + + + + + + + + + + + + + + + + + + + + + + + + + + + + + + + + + ",
"                                                                                                    ",
"+ + + + + + + + + + + + + + + + + + + + + + + + + + + + + + + + + + + + + + + + + + + + + + + + + + ",
"                                                                                                    ",
"+ + + + + + + + + + + + + + + + + + + + + + + + + + + + + + + + + + + + + + + + + + + + + + + + + + ",
"                                                                                                    ",
"+ + + + + + + + + + + + + + + + + + + + + + + + + + + + + + + + + + + + + + + + + + + + + + + + + + ",
"                                                          G                                         ",
"+ + + + + + + + + + + + + + + + + + + + + + + + J + + + + + + + + + + + + + + + + + + + + + + + + + "};
