/* XPM */
static char * playerm_xpm[] = {
"50 50 114 2",
"  	c #7A3C16",
". 	c #648475",
"+ 	c #000000",
"@ 	c #99B8BA",
"# 	c #A4BABA",
"$ 	c #744938",
"% 	c #75412E",
"& 	c #6B3A3B",
"* 	c #1A2E39",
"= 	c #322F2F",
"- 	c #2D130D",
"; 	c #43271C",
"> 	c #122844",
", 	c #304758",
"' 	c #242D50",
") 	c #976B3A",
"! 	c #705E60",
"~ 	c #2D3850",
"{ 	c #5A6162",
"] 	c #CC904E",
"^ 	c #AE7250",
"/ 	c #91554E",
"( 	c #57575F",
"_ 	c #CFCBB8",
": 	c #948E75",
"< 	c #C87A49",
"[ 	c #C5703B",
"} 	c #B67847",
"| 	c #C6A66A",
"1 	c #D5B778",
"2 	c #C8B190",
"3 	c #B1926C",
"4 	c #B36D34",
"5 	c #B48A54",
"6 	c #E49B4B",
"7 	c #D18338",
"8 	c #DBAA75",
"9 	c #E5AF6E",
"0 	c #D4A95C",
"a 	c #D4B785",
"b 	c #043948",
"c 	c #704F4B",
"d 	c #A59595",
"e 	c #C78B51",
"f 	c #D5884B",
"g 	c #C48D88",
"h 	c #D6965B",
"i 	c #AA5535",
"j 	c #E8A65A",
"k 	c #B79559",
"l 	c #B08D8F",
"m 	c #6B6372",
"n 	c #793D1D",
"o 	c #7C947E",
"p 	c #C69966",
"q 	c #714D3D",
"r 	c #4E4E6A",
"s 	c #DAC899",
"t 	c #8F6D6F",
"u 	c #B2AB8E",
"v 	c #283557",
"w 	c #1D61AC",
"x 	c #563549",
"y 	c #533676",
"z 	c #694F67",
"A 	c #4A3C7A",
"B 	c #2789C8",
"C 	c #0E2A4F",
"D 	c #2673A7",
"E 	c #162B66",
"F 	c #764940",
"G 	c #D3AE70",
"H 	c #062047",
"I 	c #C7A679",
"J 	c #A39495",
"K 	c #AB7B85",
"L 	c #C79CA5",
"M 	c #C5B1B1",
"N 	c #E2D5D7",
"O 	c #0F1837",
"P 	c #202E3B",
"Q 	c #8B0F18",
"R 	c #7C0A19",
"S 	c #850917",
"T 	c #880924",
"U 	c #791827",
"V 	c #964838",
"W 	c #953132",
"X 	c #B2716B",
"Y 	c #9F9B87",
"Z 	c #871526",
"` 	c #B49667",
" .	c #E7BEA8",
"..	c #7D0725",
"+.	c #CAA882",
"@.	c #976E4C",
"#.	c #D4976C",
"$.	c #B897A8",
"%.	c #CFB1CB",
"&.	c #BBA057",
"*.	c #BAA671",
"=.	c #A95349",
"-.	c #53344B",
";.	c #A53F51",
">.	c #965567",
",.	c #6D3048",
"'.	c #921431",
").	c #D1C587",
"!.	c #742232",
"~.	c #770E13",
"{.	c #E0CBB0",
"].	c #952D48",
"^.	c #3C3045",
"/.	c #8A9787",
"                                                                    .                     .         ",
"+ + + + + + + + + + + + + + + + + + + + + + + + @ + + + + + + + @ + + + + + + + + + + + + + + @ + + ",
"                #                                                                                   ",
"+ + + + + + + + + + + + + + + + + + + + + + + + + + + + + + + + + + + + + + + + + + + + + + + + + + ",
"            $                                       $ $ $                                       $   ",
"+ + + + + + + + + + + + + + + + + + + + + + + + + + + + + + + + + + + + + + + + + + + + + + + + + + ",
"                                                            % %   %                                 ",
"+ + + + + + + + + + + + + + + + + + + + + + + + + + + + + + + + + + + + + + + + + + + + + + + + + + ",
"                                                                                                    ",
"+ + + + + + + + + + + + + + + + + + + + + + + + + + + + + + + + + + + + + + + + + + + + + + + + + + ",
"                                      & * = *                                                       ",
"+ + + + + + + + + + + + + + + + + + + - - ; = > > + + + + + + + + + + + + + + + + + + + + + + + + + ",
"          ,                   '       ) - = -           !     ' '       '     '     ~ ,           , ",
"+ + + + + + + + + + + + + + { + + + + ] ^ / - ( _ + + + + + + + + + + + + + + + + + + + + + + + + + ",
"                                      : < [ } | 1 2 2                                               ",
"+ + + + + + + + + + + + + + + + + + + + 3 4 5 6 7 8 8 9 0 a + + + + + + + + + + + + + + + + + + b + ",
"                    $   c c   c   $   d e [ f 0 ] 4 [ < 4 4 0 a                                     ",
"+ + + + + + + + + + + + + + + + { g | h i 4 ] ] j } 4 k + + l + m + + + + + + + + + + + + + + + + + ",
"n n n n n n n n n n         : | h h } )   ! ^ 4 } ^ 8 9 o         % n n n n n n n n n n n n n n n n ",
"+ + + + + + + + + + + : p 8 / / / q r + + + + i f ] f 0 s + + + + + + + + + + + + + + + + + + + + + ",
"                      r t r                   r i 4 7 ] 1 u                                         ",
"+ + + + + + + + + + + + + + + + + + + + + + + + r i [ e l v w + + + + + + + + + + + + + + + + + + + ",
"                    &                     t d   x y z A   B B                                       ",
"+ + + + + + + + + + + + + + + + + + + + 3 9 8 ( + C C w D + D + + + + + + + + + + + + + + + + + + + ",
"          E         F               E 3 G h ] :   E x w w D B         x                             ",
"+ + + + + + + + + + + + + + + + + + + ^ < ^ / q H + + / 5 I : > + H + + + + + + + + + H + + + + + + ",
"                                      t 6 e           / 7 a a       F F                   x         ",
"+ + + J l K K l g l L M N + + + + + + M e 6 t + + + O z f 8 | + { + + + + + P + + + + + + + + + + P ",
"    Q R S S S T U / V i i W U X K L Y M h 6 Y         F p 6 1                   F F   F F           ",
"+ + U Z R S R J + L I ` I a a | k 5 ^ V 4 f l L + + + + _ } 9  .+ + + + + + + + + + + + + + + + + + ",
"      ..R S T       s a I p k p I +.p k @.#.| k X W X $.%.g 9 8                                     ",
"+ + + r S S R W + + + + + _ s 1 G &.k @.} f e k *.G &.^ =.W 4 0 3 + + + + + + + + + + + + + + + + + ",
"        -...U R ..d #           _ 2 p p 9 h | | k 5 5 ^ 5 | k e h =.;.>.z                     %     ",
"+ + + + + , ,.'.Z S >.M + + + + + + 3 5 k 5 5 ` *.I ).1 ` @.5 5 G 1 a ` ^ =.;.z + + + + + + + + + + ",
"              ~ !.T S ~./         Y     Y _ {.s a I p p k ` ` e ] p ` p 8 a ` =.;.>.z               ",
"+ + + + + + + + + ~ !.U S S Z X M + + + + + + + + + N {.s I 5 4 #.a a ).1 | p +.I X W ].~ + > + + + ",
"            ^.          -.!.~.Z Q T >.l M                     u I +.M 2 +.I I +.+.u g X ].        , ",
"+ + + + + + + + > > + C + + + + z ,.T Z ~.~.W t J + + N + + + + u /.+ + + + + + _ M u : / ( + + + + ",
"                                        z ,.U U R S T Q V t d $.M M _             d t / '.,         ",
"+ + + + + + + + + + + + + + + + + + + + + + + + r -.,.!.U Z T T T Z '.T Z Q S Q W '.'.,., + + + + + ",
"                                                            , ~ -.-.-.-.,.-.-.-.-.~                 ",
"+ + + + + + + + + + + + + + + + + + + + + + + + + + + + + + + + + + + + + + + + + + + + + + + + + + ",
"                                                                                                    ",
"+ + + + + + + + + + + + + + + + + + + + + + + + + + + + + + + + + + + + + + + + + + + + + + + + + + ",
"                                                                                                    ",
"+ + + + + + + + + + + + + + + + + + + + + + + + + + + + + + + + + + + + + + + + + + + + + + + + + + ",
"                                                                                                    ",
"+ + + + + + + + + + + + + + + + + + + + + + + + + + + + + + + + + + + + + + + + + + + + + + + + + + ",
"                                        F                                                           ",
"+ + + + + + + + + + + + + + + + + + + + + + + + + P + + + + + + + + + + + + + + + + + + + + + + + + "};
