/* XPM */
static char * playerm_xpm[] = {
"50 50 255 2",
"  	c #239CA5",
". 	c #1899A9",
"+ 	c #28A6AB",
"@ 	c #1BA2A7",
"# 	c #48A3A8",
"$ 	c #71C6C7",
"% 	c #86C7C6",
"& 	c #B8D6DA",
"* 	c #D6E4E7",
"= 	c #D3DBD9",
"- 	c #A9C6CA",
"; 	c #CAE3DC",
"> 	c #71B0B5",
", 	c #50ADB2",
"' 	c #4BA89B",
") 	c #BAE1DE",
"! 	c #E4E5EA",
"~ 	c #E6F1F6",
"{ 	c #CAE3E5",
"] 	c #C4DBDD",
"^ 	c #DAE9F2",
"/ 	c #E6EBF5",
"( 	c #96C7CB",
"_ 	c #31AFA9",
": 	c #249899",
"< 	c #319199",
"[ 	c #178A95",
"} 	c #D3DDE6",
"| 	c #8CB4C6",
"1 	c #4FC2BF",
"2 	c #AFD2D4",
"3 	c #4F9099",
"4 	c #C9D6E9",
"5 	c #C9DAE5",
"6 	c #A8CAD3",
"7 	c #BACBD4",
"8 	c #C7D7DB",
"9 	c #5195A5",
"0 	c #D3E3DD",
"a 	c #B6C8CB",
"b 	c #A8BCC6",
"c 	c #90AFB4",
"d 	c #38ACBB",
"e 	c #2BAAB7",
"f 	c #B9DAE2",
"g 	c #BEE0E2",
"h 	c #70BAC8",
"i 	c #2DA79D",
"j 	c #159998",
"k 	c #0D9694",
"l 	c #0A868A",
"m 	c #0B8795",
"n 	c #0D859D",
"o 	c #15848B",
"p 	c #0F847D",
"q 	c #097688",
"r 	c #157785",
"s 	c #0F7991",
"t 	c #0A767A",
"u 	c #15747B",
"v 	c #156777",
"w 	c #0A6A77",
"x 	c #11626B",
"y 	c #08656C",
"z 	c #0C6473",
"A 	c #135C6D",
"B 	c #136381",
"C 	c #0E5A7A",
"D 	c #0C5B6C",
"E 	c #18556B",
"F 	c #0B556C",
"G 	c #0C5365",
"H 	c #095A73",
"I 	c #145D75",
"J 	c #055869",
"K 	c #125365",
"L 	c #124C64",
"M 	c #0C4A5D",
"N 	c #0C4B63",
"O 	c #08555D",
"P 	c #184674",
"Q 	c #124B6B",
"R 	c #15485C",
"S 	c #16505E",
"T 	c #13435C",
"U 	c #1A4666",
"V 	c #054663",
"W 	c #0C4A6D",
"X 	c #0A4055",
"Y 	c #05465A",
"Z 	c #0D3C5B",
"` 	c #0C425C",
" .	c #134255",
"..	c #0C3B54",
"+.	c #123B54",
"@.	c #0A394C",
"#.	c #253469",
"$.	c #1A2E39",
"%.	c #322F2F",
"&.	c #28476A",
"*.	c #0D3C63",
"=.	c #133C64",
"-.	c #124264",
";.	c #123C5B",
">.	c #133453",
",.	c #093757",
"'.	c #1B3956",
").	c #2D516F",
"!.	c #395A76",
"~.	c #2D130D",
"{.	c #43271C",
"].	c #152D4C",
"^.	c #183549",
"/.	c #497391",
"(.	c #304758",
"_.	c #69788B",
":.	c #698AA8",
"<.	c #0F2C52",
"[.	c #976B3A",
"}.	c #13355B",
"|.	c #6A6A73",
"1.	c #466479",
"2.	c #2D3850",
"3.	c #566C74",
"4.	c #A9B8B8",
"5.	c #8C99A8",
"6.	c #8B9496",
"7.	c #CC904E",
"8.	c #AE7250",
"9.	c #91554E",
"0.	c #CFCBB8",
"a.	c #ACB8CA",
"b.	c #AEAEB0",
"c.	c #3E6778",
"d.	c #38B3C5",
"e.	c #31ADC6",
"f.	c #44B6C7",
"g.	c #59B6C7",
"h.	c #948E75",
"i.	c #C87A49",
"j.	c #C5703B",
"k.	c #B67847",
"l.	c #C6A66A",
"m.	c #D5B778",
"n.	c #C8B190",
"o.	c #48C0D1",
"p.	c #1195AE",
"q.	c #1495AB",
"r.	c #18A0B8",
"s.	c #0B97AC",
"t.	c #B1926C",
"u.	c #B36D34",
"v.	c #B48A54",
"w.	c #E49B4B",
"x.	c #D18338",
"y.	c #DBAA75",
"z.	c #E5AF6E",
"A.	c #D4A95C",
"B.	c #D4B785",
"C.	c #1385A3",
"D.	c #A8999A",
"E.	c #C78B51",
"F.	c #D5884B",
"G.	c #0B7591",
"H.	c #096B85",
"I.	c #C48D88",
"J.	c #D6965B",
"K.	c #AA5535",
"L.	c #E8A65A",
"M.	c #B79559",
"N.	c #3C6985",
"O.	c #B08D8F",
"P.	c #817889",
"Q.	c #0B6482",
"R.	c #0D6E92",
"S.	c #476885",
"T.	c #6D8598",
"U.	c #7C947E",
"V.	c #0E5779",
"W.	c #C69966",
"X.	c #714D3D",
"Y.	c #4E4E6A",
"Z.	c #125089",
"`.	c #DAC899",
" +	c #075783",
".+	c #0D5172",
"++	c #0E4E71",
"@+	c #144A74",
"#+	c #8F6D6F",
"$+	c #B2AB8E",
"%+	c #0E456B",
"&+	c #093A68",
"*+	c #13436A",
"=+	c #194D7B",
"-+	c #0A4677",
";+	c #5066A2",
">+	c #1D61AC",
",+	c #0C4363",
"'+	c #133C6A",
")+	c #173867",
"!+	c #0B2E60",
"~+	c #533676",
"{+	c #694F67",
"]+	c #123C92",
"^+	c #2789C8",
"/+	c #173C75",
"(+	c #2673A7",
"_+	c #162B66",
":+	c #5A7A97",
"<+	c #D3AE70",
"[+	c #1A436B",
"}+	c #275677",
"|+	c #C7A679",
"1+	c #CBD0CF",
"2+	c #7292AC",
"3+	c #AB7B85",
"4+	c #C79CA5",
"5+	c #C5B1B1",
"6+	c #E2D5D7",
"7+	c #8B0F18",
"8+	c #7C0A19",
"9+	c #850917",
"0+	c #880924",
"a+	c #791827",
"b+	c #964838",
"c+	c #953132",
"d+	c #B2716B",
"e+	c #B8C8B3",
"f+	c #355B84",
"g+	c #871526",
"h+	c #B49667",
"i+	c #E7BEA8",
"j+	c #7D0725",
"k+	c #CAA882",
"l+	c #976E4C",
"m+	c #D4976C",
"n+	c #B897A8",
"o+	c #CFB1CB",
"p+	c #BBA057",
"q+	c #BAA671",
"r+	c #A95349",
"s+	c #53344B",
"t+	c #A53F51",
"u+	c #965567",
"v+	c #6D3048",
"w+	c #921431",
"x+	c #D1C587",
"y+	c #742232",
"z+	c #770E13",
"A+	c #E0CBB0",
"B+	c #952D48",
"C+	c #317589",
"D+	c #297784",
"E+	c #286479",
"F+	c #154B79",
"  . + + @ @ .     + # $ % & * = * & - ; = * & > , @ + . +       + @ ' ) ! ~ { ] ^ / ^ - ( ' _ : . . ",
"< [ [ [ < < [ [   # & * } & % , $ | 1 $ $ ( } ^ 2 3 [ [ [ : < > 2 4 4 5 - ( % % 6 7 - 8 ~ ! ^ 2 9 < ",
"0 & 6 - a b c c 2 5 - | > , d + + e e e e d % 6 ] f 6 c c & g { a b h , i _ @ + _ _ i > 6 8 7 8 8 8 ",
", # : # > > i j < 9 : j k j j j k j j k j : # # i i # i # > , # : _ : j j j [ j j j j : , # < < > > ",
"l l [ l l [ m n [ l l l [ o l l p p p o l l l [ [ [ m m m [ o [ l l l l l l q o r o r s [ l [ q m l ",
"t t t t u u t t t u u u t t u r u t t u v r r r t q u u t t t t t t t u v w t r v r u t t t u u r r ",
"x y v z y y z v z y A z w w z z v z z v v A x z w w v z y v B B C B w z A A A D z w y x v u y y z A ",
"E A F D A G A H A v I A D D A A D J D J J J x G D H F I H D J D G D K D D A K G x G D A A G D z J A ",
"L L M K K K G G G G G K G K N K E M O O L N A G M P Q F J O O E R Q N L N K K M G G S M K G G E N K ",
"T T R L L L L L L L M M L N N L M M U V N L W W X O Y M R Z Q N V O L L M R M ` M M ` E ` ` K L L N ",
" .R L R ` .. . .+.@. . .U T T T ..R Z #.$.%.$.` &.Y U *.=.&.+.X T -.+.+.;.+.+. .+.+.` R .. . . .R X ",
">.+.,.Z T ;.+.'.).!. .@.@.+.+.+.+.....~.~.{.%.].]...@.....>.'.R @.^.....+.+.+. .+.@.;.,.R './.).+.T ",
"+.;.^.^.^.(._.c a 5 :.!.>.'.>.<.'.>._.[.~.%.~.}.^.+.}.^.|._.1.<.<.'.'.>.<.>.>.<.>.>.2.(.3.a } } _.(.",
"4.b c b & 5 5 8 & ] = 8 4.5.6.4.8 c 4 7.8.9.~.|.0.b c a.^ & 5 b._.c.3.3.5.3._.a c b a.& a 7 * 8 8 7 ",
"d d.e.e.d.d.d.e.e e , f.d d.d e d.d g.h.i.j.k.l.m.n.n.c , d.d., h g.f.f.d.d.d d f.f.e.d.e d.f.f.o.d.",
"p.q.q.q.q.q.q.q.q.. p.r.s.s.s.s.p.p.s.9 t.u.v.w.x.y.y.z.A.B.c : s.p.q.r.r.r.. q.. q.. q.. q.. . C.. ",
"n n n n n n n n n n m n C.C.n C.n m 3 D.E.j.F.A.7.u.j.i.u.u.A.B.5.n n n n n n n n n n n n n n n n n ",
"G.G.s G.G.G.G.G.G.G.s H.s G.q u 6.I.l.J.K.u.7.7.L.k.u.M.N.1.O._.P.3.G.G.G.G.G.G.G.G.G.G.G.G.G.G.G.G.",
"Q.Q.Q.Q.Q.Q.Q.Q.Q.Q.R.I S.T.h.l.J.J.k.[.3.|.8.u.k.8.y.z.U.w H.J z B Q.Q.Q.Q.Q.Q.Q.Q.Q.Q.Q.Q.Q.Q.Q.Q.",
"V.V.C V.V.V.V.V.V.V.J h.W.y.9.9.9.X.Y.R.C Z.S.K.F.7.F.A.`.1. + + +.+C C C C V.C C C C C C C C C C C ",
"++++++++++@+++++W W  +Y.#+Y..+V.++Z.C J G D  +Y.K.u.x.7.m.$+@+ +S  +++++++++W ++++++.+.+++++.+.+.+.+",
"Q %+%+Q Q Q Q Q %+%+&+*+%+&+=+T Q -+V =+++&+Q .+Y.K.j.E.O.;+>+,+Q Y -+Q Q Q Q Q Q Q W W W W W W W W ",
"-.-.'+*+*+*+*+*+*+*+#.}.T =.*+Q V W )+&+-+#+D.Z.!+~+{+]+Z.^+^+)+-+/+'+'+*+*+-.-.*+*+*+*+*+*+*+*+*+*+",
"=.=.=.=.=.=.=.'+'+*+Y *.'+'+&+'+'+}.)+=.t.z.y.|. +<.<.>+(+e.(+,. .'+*.=.=.=.=.=.=.=.=.=.=.=.'+'+'+'+",
"=.)+..*.)+_+Z =.&.N.:+)+=.'+'+'+'+}._+t.<+J.7.h./+_+!+>+>+(+^+)+*.*+)+!+=.,.` Z *.)+Z -.=.}.}.=.*.*.",
"*+Z '+/+&+[+&.}+:.a.& T.1.U [+'+=.)+;.8.i.8.9.X.!+&+)+9.v.|+h.]./+!+=.*+'+P *.[+=.,.'+!+}.&.)+}.=.=.",
"T.!.-+&._.:.5.1+{ / ~ / 4 a.2+2+S.N.&.#+w.E.&.)+=.)+Z 9.x.B.B.*+P S.:+:+/.).)+)+)+*+'+P P !+'+=.=.}.",
"/ 5 5.D.O.3+3+O.I.O.4+5+6+1+! ~ 8 8 a.5+E.w.#+)+&+Z #.{+F.y.l.T.6.a.7 ^ a 2+:+U %+-+=.P &+=+'+=.&.:+",
"a.b.7+8+9+9+9+0+a+9.b+K.K.c+a+d+3+4+e+5+J.w.e+c f+S.:.:+W.w.m.^ ~ ~ ~ ~ / } * 4 :+:+5.:+:+:.:.T.c } ",
"3 , a+g+8+9+8+D.4.4+|+h+|+B.B.l.M.v.8.b+u.F.O.4+b.a = { 0.k.z.i+1+a 8 & c % ( - * ! } 5 5 } ^ * = = ",
"w r 3.j+8+9+0+4.* * `.B.|+W.M.W.|+k+W.M.l+m+l.M.d+c+d+n+o+I.z.y.b.:.9 9 o l o o > c > ( > c 2+> 3 > ",
"D x I Y.9+9+8+c+c & 5 = = 0.`.m.<+p+M.l+k.F.E.M.q+<+p+8.r+c+u.A.t.1.H.H.H.H.H.q H.s r r r u r o s q ",
"N G F y s+j+a+8+j+D.2 & ] 5 ] 1+0.n.W.W.z.J.l.l.M.v.v.8.v.l.M.E.J.r+t+u+{+).z H J D D H E y J B H x ",
"` R Q ,.G (.v+w+g+9+u+5+= ] ] = a 4.t.v.M.v.v.h+q+|+x+m.h+l+v.v.<+m.B.h+8.r+t+{+).,+M ,+[+M Y U N L ",
"....=.*.'+)+..2.y+0+9+z+9.b.5 { ; e+- 4.e+0.A+`.B.|+W.W.M.h+h+E.7.W.h+W.y.B.h+r+t+u+{+M }... .X Z -.",
">.>.@.'.,.Y R ..@.2.y+a+9+9+g+d+5+= 1+0 ; & & 8 0 ; 6+A+`.|+v.u.m+B.B.x+m.l.W.k+|+d+c+B+2.'.].+.^. .",
">.>.^.^.@.@.].>.,.,.,.^.s+y+z+g+7+0+u+O.5+1+= * = 8 f ) ; & 1+$+|+k+5+n.k+|+|+k+k+$+I.d+B+^.>.!.).(.",
"C+C+3 /.S.).'.>.].].+.<.>.@./.3.{+v+0+g+z+z+c+#+D.4.1+6+= 8 7 b.$+e+8 { ] 8 0 = 0.5+$+h.9.|.C+3 3 < ",
"D x v v D+C+C+C+D+D+D+E+N./.r q q H.D+c.{+v+a+a+8+9+0+7+b+#+D.n+5+5+0.1+a - a.- 4.D.#+9.w+(.v v w v ",
"I E+J F J y D H w v E+D+J J w H D E+u z H w J }+Y.s+v+y+a+g+0+0+0+g+w+0+g+7+9+7+c+w+w+v+(..+C O E F ",
"L E E E+E+N.E+E+E E D G N E E+E+E+E F G J F G F F V ,+N L R (.2.s+s+s+s+v+s+s+s+s+2.` L E E E E }+E+",
"` ,+L U L L L E E+N.D+E+E+E+}+E L M N V N N Y N N ` ,+M ` Y M M R T ` T T ;.Z ` V Y Z ` M N ` ` ` M ",
"` ` ` ` ` Z ` ` L L ` R R L M M M M ` ` ` ` Z ;.;.;.X X X Y Y Y Y Y *.,+Z Z Z *.=.*.` ` ` ` ` Z ....",
"....Z Z Z ..Z ..Z Z T T Z Z ` ` ` X ........+.>.>.>.......>.>.}.}.}.X X X ........+.Z Z ....` ` Z ..",
"..+.;...;...;...T T Z Z ....Z ;.;.;.;.;...>.>.>.>.>.>.>.>.>.>...Z Z ;.;.Z Z Z Z ....................",
";.;.+...'.+.;.......` ` -.T ;.;.;.}.;.}.;.}.Z >.;.;.}.}.}.}.;.Z ..` ;.Z Z ` Z Z ....................",
"Z ..;.Z ,.;.Z Z Z T ,.Z *.*.Z Z }.=.Z Z -.[+=.Z =.=.=.=.=.=.=.=.=.)+'.'.;.}.;.+.+.+.Z Z ;.Z Z Z Z Z ",
"-.Z -.-.=.[+-.-.*.-.U U -.-.-.-.-.=.*+[+}+f+P [+[+-.*+*+Q Q Q *+[+[+Q *+*+*+*+*+*+*+=.*+*+-.-.=.=.=.",
"*+'+*+@+@+@+@+@+@+@+F+,+=+=+P ).!.=+}+N.:+| c S.f+P @+F+F+F+F+F+F+F+Z.P P P /+}+!.f+).*+F+F+*+P P ,+",
"=+=+@+@+F+=+=+F+F+F+F+}+/./.:.b a.2+2+6 5 * ! 8 6 :+F+=+=+=+=+=+=+=+=+}+N./.2+6 f 4 | /.Z.F+@+P P @+"};
