/* XPM */
static char *eacf5b024bc640a4d4a62713b72ea1bfAJodPB6OPEKEIX31[] = {
/* columns rows colors chars-per-pixel */
"50 50 229 2 ",
"   c #102D4E",
".  c #12334F",
"X  c #0F3553",
"o  c #0D3C56",
"O  c #0E3C59",
"+  c #123553",
"@  c #123B55",
"#  c #113C5B",
"$  c #163959",
"%  c #0F2D50",
"&  c #213C57",
"*  c #0F3961",
"=  c #123761",
"-  c #123C64",
";  c #133E69",
":  c #183F68",
">  c #0C435B",
",  c #0E4A5E",
"<  c #114057",
"1  c #11435B",
"2  c #10495E",
"3  c #1D435D",
"4  c #2A465D",
"5  c #0D4C62",
"6  c #0F446A",
"7  c #0F496E",
"8  c #0D4563",
"9  c #124166",
"0  c #114C62",
"q  c #13426B",
"w  c #10496E",
"e  c #1B486B",
"r  c #0E5265",
"t  c #0C556A",
"y  c #0D5B6C",
"u  c #07556A",
"i  c #105365",
"p  c #12566B",
"a  c #105B6C",
"s  c #1C566B",
"d  c #0E4D72",
"f  c #164573",
"g  c #144974",
"h  c #1C4A74",
"j  c #164C7B",
"k  c #194C7B",
"l  c #1B4574",
"z  c #0E5274",
"x  c #0C5D71",
"c  c #0D597A",
"v  c #0C5679",
"b  c #105275",
"n  c #1C5C72",
"m  c #2A4A64",
"M  c #25556B",
"N  c #395569",
"B  c #234C73",
"V  c #235A71",
"C  c #295779",
"Z  c #375B7B",
"A  c #324860",
"S  c #0D636F",
"D  c #0E6473",
"F  c #0E6975",
"G  c #0D647B",
"H  c #0D6C7B",
"J  c #116574",
"K  c #126B7D",
"L  c #19697B",
"P  c #0E747D",
"I  c #10757F",
"U  c #216D7F",
"Y  c #2A6678",
"T  c #33657A",
"R  c #336679",
"E  c #44596A",
"W  c #475D72",
"Q  c #4A6578",
"!  c #566B7C",
"~  c #5C707F",
"^  c #355D83",
"/  c #2D5883",
"(  c #0C6583",
")  c #0C6A88",
"_  c #0D7482",
"`  c #0E7A84",
"'  c #0C738E",
"]  c #0E7D89",
"[  c #117683",
"{  c #117986",
"}  c #127D8A",
"|  c #1E7182",
" . c #0C7491",
".. c #0B7992",
"X. c #1E6F80",
"o. c #287687",
"O. c #377B8B",
"+. c #3C6B88",
"@. c #466888",
"#. c #477989",
"$. c #597589",
"%. c #497395",
"&. c #597995",
"*. c #526D80",
"=. c #677986",
"-. c #637C95",
";. c #0F8186",
":. c #0F868A",
">. c #11858C",
",. c #12888E",
"<. c #108187",
"1. c #0D859E",
"2. c #0E8895",
"3. c #128591",
"4. c #138C93",
"5. c #1A8C96",
"6. c #1C8B97",
"7. c #149396",
"8. c #169599",
"9. c #1A959A",
"0. c #19989A",
"q. c #36818E",
"w. c #2B8F9D",
"e. c #219B9E",
"r. c #2A979D",
"t. c #33979F",
"y. c #318996",
"u. c #0E89A1",
"i. c #1296AC",
"p. c #1399AD",
"a. c #1E9DA4",
"s. c #149BB0",
"d. c #0F97AD",
"f. c #239DA5",
"g. c #2A9CA3",
"h. c #389BA1",
"j. c #1EA2A3",
"k. c #22A2A5",
"l. c #24A1A8",
"z. c #2BACAA",
"x. c #2AA6A6",
"c. c #38A6A8",
"v. c #2AB0AD",
"b. c #2EAEBD",
"n. c #3DAEBE",
"m. c #36B3B8",
"M. c #37B2AF",
"N. c #548896",
"B. c #64819A",
"V. c #6C8398",
"C. c #748899",
"Z. c #6E808A",
"A. c #459CA2",
"S. c #559BA5",
"D. c #698AA6",
"F. c #768DA2",
"G. c #7892A8",
"H. c #6996A3",
"J. c #49A8AC",
"K. c #59A7AC",
"L. c #58B4B4",
"P. c #4CAFB1",
"I. c #6BA5AE",
"U. c #6EAEB4",
"Y. c #78ABB3",
"T. c #67B5B7",
"R. c #78B6BA",
"E. c #77A4AD",
"W. c #4CC1BA",
"Q. c #64C3BF",
"!. c #2CAEC0",
"~. c #31AFC0",
"^. c #3BAFC1",
"/. c #35B1C2",
"(. c #3BB2C2",
"). c #2BB0C3",
"_. c #49B3C3",
"`. c #54B4C4",
"'. c #4EAFC0",
"]. c #76BAC2",
"[. c #65B8C8",
"{. c #76C3C3",
"}. c #83939E",
"|. c #879DAB",
" X c #859EB2",
".X c #94A3AB",
"XX c #98A7AE",
"oX c #8BA6B5",
"OX c #93A6B4",
"+X c #99ACB8",
"@X c #86B8BC",
"#X c #9BB6BC",
"$X c #A3B5BC",
"%X c #84BCC3",
"&X c #96BDC5",
"*X c #ACBAC2",
"=X c #A8B9C7",
"-X c #B1BEC4",
";X c #98C6CA",
":X c #8AC2C5",
">X c #A4C4CA",
",X c #AAC6CC",
"<X c #A8C9CD",
"1X c #B4C6CD",
"2X c #ACCDD1",
"3X c #A6CFD3",
"4X c #BBCCD3",
"5X c #B4CAD3",
"6X c #BBD1D6",
"7X c #BDD5DA",
"8X c #B7D4D7",
"9X c #A6D0CF",
"0X c #C1CFD7",
"qX c #C4D4DA",
"wX c #C4D9DC",
"eX c #CCDADD",
"rX c #C5D3D7",
"tX c #D1DCDF",
"yX c #CDDCE1",
"uX c #C6DDE1",
"iX c #D3DEE2",
"pX c #D5E2E4",
"aX c #D9E3E6",
"sX c #DCE5E9",
"dX c #DEE9EA",
"fX c #CEE0E4",
"gX c #E2EBED",
"hX c #E8EFF1",
"jX c #E7F0EF",
/* pixels */
"a.a.f.c.J.>X;XdXgXsXpXeXjXdXyXJ.x.l.l.l.f.f.l.l.l.c.].5XpXiXpX2XqXpXaXpX7X:X].J.l.f.l.a.l.l.l.f.a.f.",
"t.K.6XpXsXgXwX;X8X8X{.{.9X;XwXyXwX7XR.w.w.6.6.6.h.7XpXyX3XQ.{.W.{.{.W.;XwXeXsX7XK.w.5.5.5.6.5.6.6.y.",
"qXwXwX6XwX8XL.M.M.z.M.k.z.z.P.R.>X8XwXwXwX%X&X2XwX7X;X;XM.v.v.z.z.z.z.M.L.P.%X<XwX7X@X@X;X,X,X,XwXaX",
"U.U.h.h.J.J.e.8.8.7.7.7.7.7.8.0.x.e.J.K.R.x.c.J.x.x.J.c.8.0.0.7.8.7.0.0.0.8.0.e.A.c.e.c.R.U.K.t.h.U.",
"3.,.:.,.,.,.,.] ;.;.;.` <.;.,.:.,.,.,.,.,.,.,.4.,.,.,.,.<.,.,.<.<.;.<.;.,.:.,.,.,.,.,.,.3.,.,.,.,.,.",
"_ P P _ P P P H P P K H H P P P P _ _ P _ _ _ [ P P [ P P P P I P P H P P P P P [ P I _ P P P P P I ",
"D D D F F D D D D D a D S J D J D D F F D D D D D D F D D F D F S D D S D F D D J F F F F D F D D J ",
"y y y y y y y y t p r p y y p p y y t t y p y a y a y y y y y y y y y p y y y a a y y y y y t p p p ",
"i r r r r r r 5 r 5 5 0 5 0 0 r 0 r r 5 0 , 5 i 0 i r r r r r r r p i i i i p r r t r p i i 5 0 0 0 ",
"0 0 0 2 0 2 2 , 2 > 2 2 2 2 > 2 0 2 2 2 2 2 > 2 2 0 2 , 0 , , , 2 2 2 , , 5 , , 2 5 0 , 2 2 2 2 2 2 ",
"1 1 1 1 1 1 1 1 @ 1 < @ @ @ 1 < 1 1 1 2 1 1 1 2 2 1 1 1 @ 1 1 1 1 1 1 2 1 1 > 1 O 1 1 1 1 1 1 1 1 @ ",
"@ @ Q *.$ @ o @ + + @ + @ + + @ @ @ @ @ @ @ @ @ @ @ @ @ N $ + + + o @ @ @ + + @ E 4 # @ X O @ @ @ $ ",
"4 $.rXsX1X~ A & . . + + . + + . + + + @ + + + + @ ! A Z.rX*X.X~ . 4 . . @ . E C.eX0XXX=.N $ + + + @ ",
"1XyXyXyXqX1X0X*X*X$X-X=.=.C.! $.~ Q Q ! XX}.*X.XXXiXtXsXeXiXiXqX+X6XOX|..X+XqXfXwX6X8XwXqXqX$X#X,XOX",
"^._._.(.b.b.^./.`./.n././.'.`._.(.b.n.'.`.n._.`././.].{.%X[.`.'./._.b./.~./._././.!.)./._.~././.!.^.",
"i.i.p.p.p.i.i.d.p.s.i.s.i.p.s.i.s.p.p.s.p.d.i.p.p.p.p.s.p.p.p.p.p.p.i.i.i.p.i.p.p.p.i.p.i.i.p.i.i.p.",
"1.1.1.1.1.1.1.1.1.1.1.1.1.1.1.1.1.1.1.u.u.u.u.u.1.1.1.1.1.1.1.1.1.1.1.1.1.1.1.1.1.1.1.1.1.1.1.1.1.1.",
"'  .'  . .' '  .'  .' ' '  ..... ...' ..'  .' .... .' ' ' ' ' ' '  ...' ' ' '  .' ..' ' ' '  . .' ' ",
"( ( ( ( ( ( ( ) ( ( ( ( ( ( ( ( ( ( ( ( ( ( ( ( ( ( ( ( ( ( ( ( ( ( ( G ( ( ( ( ( ( ( ( ( G ( ( ( ( ",
"c c c c c c c c c c c c c c c c c c c c c c c c v c c c c c c c c c c c c c v c c v v c v c c c v v ",
"z b d z d z d d z d d d d 7 d z d z z z d b b g d z z d d 7 g d b z d d w d d g d 7 d 7 d d z 7 d d ",
"d w w w 7 6 w w 7 7 w w 9 w d 7 7 7 7 w d g 7 7 w w w 7 w w 6 6 7 q w 9 6 6 6 w 6 w q w 7 w q q w 6 ",
"q 9 9 9 9 9 9 9 9 9 9 9 9 w 9 6 9 q w q 6 q 6 6 q q 9 9 9 6 9 9 9 - - 9 9 9 9 9 9 9 9 9 9 ; 9 9 - - ",
"9 ; 9 - - ; 9 - - - - - q - q - 9 9 ; 9 w h B 9 - - - - - - - - - - - - - - - - q - - - - ; - * - - ",
"- - - - - - - - - - - - * = - * - - e B &.B.&.C - - - - - - - # - # = - - - q &.@.h - # # = - - - - ",
"- - - - = = * - - - - ; - - - - - Z OXoX5XsXeXoX$.@.Z B e - - - - - - - q @.G.rX=XD.Z h : - - - - - ",
"= = = - - ; ; ; q ; ; q ; l ^ Z C.qXuX3XiXeXyXsXsXeX0X=X@.q q q ; ; Z $.OX0XsXhXaXiXqX=XV.C ; q @.C.",
"-.q ; q f f f f f q B B.B.*X1X4X:XT.M.M.T.L.R.yX;XR.qXpX0XF.F.@.$.1XsXyXiX2XeX4X,X6XyXsXaX4X+X|.tXgX",
"iXOXV.F.F.@.-. X&.-.0XiXsX4X,XL.k.k.k.j.j.j.x.M.z.z.P.;X2XqXtXeXeXqX<XT.P.z.T.T.c.J.P.>X&X&X8XeX4X,X",
"tXyXiXsXpXiXiXiXaXiX#XU.R.r.9.7.4.4.,.3.3.3.4.3.0.8.0.g.e.A.I.h.t.t.A.7.7.7.8.7.4.4.5.0.e.7.5.A.S.A.",
"Y.S.Y.I.@XE.&XI.Y.S.3.>.>.} ] _ _ H H P H F H H P _ ` ` ] ] } } ] } { _ _ _ _ _ P P _ _ _ _ ` ` ] ` ",
"{ ` q.` { _ _ _ H H H H D D y y y y y y y r r y r y y y D D x J x y y t y y y D y x x x x y D D D y ",
"D x D y y y y t r r 5 0 5 0 0 2 5 5 2 2 2 2 5 2 , 2 , 0 0 2 0 5 5 5 5 , , 5 5 5 5 5 5 5 0 r 5 r r 5 ",
"5 5 5 , , , , > 2 1 1 1 1 1 1 1 1 1 1 # 1 1 > # 3 -.|.$.m 3 1 1 1 2 1 1 1 > 2 2 > > > 2 1 > > 2 > > ",
"1 # 1 1 @ > @ # # @ @ @ @ # @ @ @ + + @ + @ @ $.+XiXhXiX*XC.Q m @ @ @ @ # @ # # @ @ @ # @ # # @ # o ",
"@ @ @ @ @ @ @ @ @ @ + + + + + + + + + + m Q V.iXaXgXaX0XeXsXqX*XZ.m @ + + # @ + + + + + + @ + @ + + ",
"m m N + + + + + $ + + + + + + 4 Q W ~ }.*XpXiX>X].;X%XL.@X@X5X,XpX1X=.+ + + +       . + + + + $ + $ ",
"O.N.N.#.#.#.m Q 3 + + + + $ W *XtXsXpXiXeX2XL.J.l.x.k.k.k.l.K.5.Y.I.E.&.4 + % %   % X A Q &.$.N.#.O.",
"G L L X.X.o.#.O.O.#.N.H.H.N.4X#XoX>XR.g.K.9.5.5.4.3.>.>.} >.3.{ ` [ o.O.q.N.#.Y T #.O.o.q.| L L D x ",
"t t t y u x x L L U o.U G G U K K O.} { { { _ H K H H G G H J U U x D y x D L o.L J D x x y y t Y n ",
"T V 0 V V n s s p p p t p n Y Y s y y t y y t t t y t t t y t t s Y T n y u u y y n V C +.C T s s 5 ",
"> > > > > > 0 M V s e e C s 8 5 5 > 5 5 5 5 5 8 > 5 , > 5 5 5 5 5 5 M V T Z R R T T M 5 0 5 0 5 , > ",
"> o > > > > > > > > > > > > > > > > > > O > O O > > > O > > > > > > 5 0 > > > > > 8 > > O > > 8 > O ",
"o o O O o O o O O O o O O O O O O O o @ o o X X @ + o @ @ O O O > > > > O > O > > > O O O O O O O O ",
"O o O O o o o O o o o O > O O O O # @ + + + + + + X X X X @ o O # O O O O O > O O O o o O O @ O O O ",
"o O O o o o o O O o o O # O # O # O # @ # # # X + + + @ # # # # # O O O O # O O O @ @ # @ @ # o # O ",
"O O O O O O O O O O O # O # O - - - 9 - - - - - # - ; ; ; - - # # # # # # # O # O O # O @ o o # o O ",
"- - - 9 q q q 9 q q q q 9 9 9 q q q 9 q q q q q q q q h ^ C e ; - - - q q q q 9 ; - 9 9 9 # - - # 9 ",
"9 q q q f f g C ^ / B g f g f g g g g g k g f g k / @. XOX&.^ / h Z k j j k g g g g f g g f f 9 9 q ",
"g g g j j k @.+XyXyX1XD.%.+./ j j k j j j j j j &.1X0XgXdXeX5XG.G.-X=XD.%.%.k k g g k k k j g f g k "
};
