/* XPM */
static char *_1bb481953e54e4cc0fb7772bfbe55556C1mfr6ad8wd0GES[] = {
/* columns rows colors chars-per-pixel */
"50 50 247 2 ",
"   c #0E2E4E",
".  c #172442",
"X  c #192642",
"o  c #1D2B45",
"O  c #182D49",
"+  c #18334B",
"@  c #0E3554",
"#  c #0D3B56",
"$  c #0D3C59",
"%  c #073E5C",
"&  c #113553",
"*  c #123A55",
"=  c #113B5B",
"-  c #1B3758",
";  c #0F2F50",
":  c #23334B",
">  c #27384E",
",  c #28394F",
"<  c #263951",
"1  c #2A3D53",
"2  c #263B56",
"3  c #262F46",
"4  c #0F3766",
"5  c #123C63",
"6  c #133A65",
"7  c #133C70",
"8  c #07425E",
"9  c #0B425C",
"0  c #0F475D",
"q  c #12435B",
"w  c #12495E",
"e  c #274744",
"r  c #285244",
"t  c #2D4156",
"y  c #2E435A",
"u  c #284658",
"i  c #31465B",
"p  c #344A5D",
"a  c #364A5C",
"s  c #375747",
"d  c #3C6E49",
"f  c #064663",
"g  c #0C4560",
"h  c #074964",
"j  c #0C4B63",
"k  c #0B496B",
"l  c #134166",
"z  c #124B63",
"x  c #14426A",
"c  c #174B6A",
"v  c #0E5265",
"b  c #0A556A",
"n  c #0D5C6C",
"m  c #06546B",
"M  c #125366",
"N  c #19556B",
"B  c #0C4D72",
"V  c #154674",
"C  c #164975",
"Z  c #164C7B",
"A  c #1A4D7B",
"S  c #1A4974",
"D  c #0B5877",
"F  c #155875",
"G  c #274C66",
"H  c #354C61",
"J  c #394F62",
"K  c #295A69",
"L  c #3B5365",
"P  c #3B5769",
"I  c #275678",
"U  c #33557B",
"Y  c #0D6473",
"T  c #0B6977",
"R  c #166778",
"E  c #0D737D",
"W  c #10767F",
"Q  c #2C686D",
"!  c #3A676D",
"~  c #37766B",
"^  c #2C6B73",
"/  c #286775",
"(  c #336875",
")  c #367676",
"_  c #2F7275",
"`  c #4D534E",
"'  c #4D704A",
"]  c #6F7252",
"[  c #445B69",
"{  c #455A67",
"}  c #525F63",
"|  c #4B626D",
" . c #47676D",
".. c #53656D",
"X. c #5C6A6E",
"o. c #54686D",
"O. c #48776D",
"+. c #486973",
"@. c #5C6D71",
"#. c #546A73",
"$. c #487A74",
"%. c #597777",
"&. c #56766C",
"*. c #656D6D",
"=. c #77756C",
"-. c #606E70",
";. c #647274",
":. c #6C7472",
">. c #687B76",
",. c #767B74",
"<. c #68706F",
"1. c #634C4F",
"2. c #9A785A",
"3. c #896D58",
"4. c #A67B5C",
"5. c #B37C58",
"6. c #8D7B66",
"7. c #847E73",
"8. c #947A65",
"9. c #A57E62",
"0. c #3D8272",
"q. c #3E8368",
"w. c #718455",
"e. c #45896B",
"r. c #4B9468",
"t. c #549869",
"y. c #448677",
"u. c #5B8778",
"i. c #589474",
"p. c #5B866B",
"a. c #69986D",
"s. c #698A74",
"d. c #758876",
"f. c #659676",
"g. c #789774",
"h. c #6A8D6F",
"j. c #5BA36F",
"k. c #70A372",
"l. c #5F884E",
"z. c #998A5C",
"x. c #BC8559",
"c. c #A9915E",
"v. c #9A866A",
"b. c #9A986D",
"n. c #888576",
"m. c #968A75",
"M. c #8A9A78",
"N. c #989875",
"B. c #87906D",
"V. c #A98768",
"C. c #B88B63",
"Z. c #A89A6A",
"A. c #BA966A",
"S. c #A89777",
"D. c #B59A76",
"F. c #A38C74",
"G. c #8CA773",
"H. c #96A678",
"J. c #90AC73",
"K. c #A8A476",
"L. c #B6A675",
"P. c #B3AF74",
"I. c #C68A58",
"U. c #D0935A",
"Y. c #C4966A",
"T. c #C28F69",
"R. c #C6A877",
"E. c #C7B479",
"W. c #D9B779",
"Q. c #CFAB75",
"!. c #E4BA77",
"~. c #E8C478",
"^. c #DCC279",
"/. c #075D81",
"(. c #345D84",
"). c #2A5882",
"_. c #0B6483",
"`. c #076E8B",
"'. c #0A7587",
"]. c #167784",
"[. c #12718B",
"{. c #31748A",
"}. c #487988",
"|. c #587885",
" X c #4C7190",
".X c #667C8A",
"XX c #0E848A",
"oX c #0F8389",
"OX c #11858B",
"+X c #11868B",
"@X c #0C859E",
"#X c #0C8793",
"$X c #188D98",
"%X c #169496",
"&X c #179799",
"*X c #26999D",
"=X c #2E8B96",
"-X c #1699AB",
";X c #0D8DA9",
":X c #239DA3",
">X c #3A9DA2",
",X c #23A1A7",
"<X c #29A8A9",
"1X c #36A6A8",
"2X c #30AFB5",
"3X c #4A8995",
"4X c #70868C",
"5X c #4B98A3",
"6X c #718FA8",
"7X c #49A5AA",
"8X c #59A6AC",
"9X c #4FB0B2",
"0X c #76ABB4",
"qX c #72B0B6",
"wX c #4DC0BA",
"eX c #64C2BF",
"rX c #36B1C3",
"tX c #32AFC2",
"yX c #48B4C4",
"uX c #7BBAC0",
"iX c #74C4C2",
"pX c #858D81",
"aX c #899393",
"sX c #A59880",
"dX c #879DB1",
"fX c #97A8B5",
"gX c #8CB4BC",
"hX c #ACACA0",
"jX c #88BCC2",
"kX c #ABBBC6",
"lX c #99C6CB",
"zX c #8AC2C5",
"xX c #A8C5CC",
"cX c #B5C7CE",
"vX c #A8CDD2",
"bX c #B6CBD4",
"nX c #BAD5D8",
"mX c #B7D8E2",
"MX c #C3D9DC",
"NX c #C7D7DC",
"BX c #CBD7DD",
"VX c #CDDCE1",
"CX c #C7DCE2",
"ZX c #D2DEE1",
"AX c #D5E2E4",
"SX c #DCE6E9",
"DX c #E4ECED",
/* pixels */
"-X-X:X1X7XlXlXSXDXSXAXZXDXSXVX9X<X,X,X,X,X,X,X,X,X1XuXbXAXZXAXvXMXAXAXAXnXzXuX7X,X,X,X-X,X,X,X,X:X:X",
">X8XnXAXSXDXBXlXnXnXiXiXvXlXMXVXMXnXqX=X=X$X$X$X>XnXAXZXvXeXiXwXiXiXwXlXMXBXSXnX8X=X$X$X$X$X$X$X$X=X",
"MXMXMXbXMXbX8X2X1X<X2X,X<X<X9XuXxXbXMXMXBXjXjXvXMXnXlXlX2X2X<X<X<X<X<X1X9X9XjXxXMXnXgXgXxXcXxXxXnXAX",
"qXqX>X>X7X8X*X%X%X%X%X%X&X%X&X&X:X*X7X8XqX<X1X7X1X1X7X1X&X&X&X%X%X%X&X&X&X&X&X*X7X1X:X1XqXqX8X*X>XqX",
"+X+XXX+X+X+X+XoXoXoXoX].oXoXXXXXXX#X#X#X#X#X#X#X#X#X#X#XXXXXXXoXOXoXOXoXXX+X+X+X+X+X+X+X+X+X+X+X+X+X",
"'.E E E E E E E E E E E T E E E '.'.'.'.'.'.].4XpXH.H.f.u.3X'.'.E E E E E E E E W E E '.E E E E E E ",
"Y Y Y T T Y Y Y Y Y n Y n Y Y Y T T _ d.M.g.J.K.E.E.P.J.k.G.k.f.O.n n n Y Y Y Y Y T T T Y Y Y Y Y Y ",
"n n n n n n n n n v b v b m m ~ ~ ~ f.pXsXsXH.k.L.pXi.G.L.P.E.P.J.i.N m m m n n n n n n n n b n M M ",
"M M v v v v v j v j j j j N ~ j.t.) ) u.N.E.K.M.j.=X4XH.K.E.!.E.W.G.p.{ h h h j v v v v v M z z z z ",
"z z z w z w w w w 9 9 9  .t.r.r.e.y.u.g.J.^.~.W.H.y.y.3Xy.S.R.Q.Q.K.S.n.a $ 9 8 8 j j w z w w q q q ",
"q q q q q q q 9 # $ q ! e.t.e._ 0.e.t.j.N.E.!.!.P.g.J.K.i.) u.K.R.R.M.D.D.} # # # $ 9 q q q q q q q ",
"* * +.#.q * * * @ i O.~ ~ e.r.r./ _ 0.j.k.f.M.S.d.pXpXsXM.s.) i.i.g.M.D.d.d.=.u @ * = * * * * * * * ",
"i |.BXSXcX%.y 2 y o.r.e.Q r.e.^ ^ t.y.t.t.) ) $.K.W.W.H.G.f._ >.S.L.Q.S.>.N.m.d.aXfXfX.XP - & & * * ",
"cXVXCXVXnXcXNXkX;.O.t.t.~ e.e._ q.) y.0.a.N.L.!.R.S.W.P.P.H.g.%.m.M.R.g.d.,.n.n.4XlXmXCXMXMXkXgXxXfX",
"rXyXyXyX2XtXrX5X! Q r.e.Q _ ^ e.t.~ ,.g.L.Q.W.~.!.E.f.g.R.W.W.K.f.$.g.N.n.;.>.;.>..X2XtXyXtXrXrX2XrX",
"-X-X-X-X-X;X;X+.K ~ q.r.g.B.O.Q Q d.S.M.H.S.K.R.Q.H.k.y.S.L.R.D.Q.S.,.d.a.p.>.:.:.:.%.;X-X-X-X-X-X-X",
"@X@X@X@X@X@X{.P K ~ &.Z.R.G.$./ ! ,.L.K.h.$.%.m.g.j.t.) n.D.R.m.,.n.g.e.~ r.O.@.O.&.X.{.@X@X@X@X@X@X",
"[.`.`.`.`.`.K { | &.m.b.K.N.s.) s.S.D.R.S.M.b.u.) ~ ) _ y.%.N.K.S.K.Z.p. .~ ! -.! X.=.( `.`.`.[.[.[.",
"_._._._._./.i [ | @.m.m.n.m.#.~ $.h.N.B.a.N.R.L.t.^ _ $.a.K.L.R.D.b.b.n.;.P [ *.o.@...P /._._._._._.",
"D D D D D F i L | ;.7.n.,.;. .s.d.G.P.P.L.R.S.h.u.s.^ $.s.M.D.S.D.F.n.,.;.{ | o.| ..{ H D D D D D D ",
"B B B B B x y L | @.n.@.;.o.B.h.>.L.W.!.!.W.!.L.h.;. .~ &.n.n.n.:.7.,.:.X.L [ { L L H y B B B k B B ",
"V x V k k 5 t H [ o.:.7...{ v.D.m.,.D.R.!.Q.L.S.a.B.| Q ! ;.%.:.v.=.:.X.<.{ L L P L H y k k x x k x ",
"x x x x 6 - 1 a L ..X.-.{ L :.n.d.d.7.D.Q.m.d.p.a.h.%.K K ! ;.;.*.*.=.*...L L J H L y 1 4 4 x x 5 5 ",
"x x x 6 6 - 1 p J v.*.| J J ..F.m.Z.F.7.7.7.:.>.>.>.@.P G K | #...<.*.X.L H L L i i i 2 4 4 6 5 5 5 ",
"5 5 5 5 4 - < y J X.<.[ y i X.;.:.F.m.S.=.!  .+.+...#.| H | +...@.*.| { L i y H a i t - 4 4 4 5 6 5 ",
"5 5 5 5 4 - > 1 y L P L 2 i X...=.v.A.v.:.o.K Q [ #.#.| H P P | | [ [ [ J i 1 i i t 1 - 4 4 5 6 6 5 ",
"5 4 4 5 4 - > > y L L L 1 y J { =.6.n.m.=.:.[ J [ | #.[ H H L P [ L L J p y 1 i t 1 < aX6XI 7 x  X4X",
".Xx 7 7 7 - : > 1 i H H 1 < y { <.X.=.:.-.X...{ [ [ [ J i i H P L L L p y < < < < 1 : kXSXbXfXdXZXDX",
"ZXfX6X6X6XU o : < y p i < : 1 H [ ..@.X...[ [ | H L L L y i p L L J p t 1 , > > > > o 0XvXxXbXBXbXxX",
"ZXBXZXSXAXBXo o > < t y < o 1 i L | | [ [ [ L L H P P L 2 t i H y t i 1 > : : : : : + @X$X%X$X5X5X5X",
"0X5X0X0XgX0XH o : > < 1 > o : 1 p L { L { { L a J L H H t < t t 1 t < > : o o o o o q `.`.'.'.'.'.'.",
"].'.=X'.'.`.F X o o : > : o o > 1 y p a L a a p i a y y 1 : < 1 > > > : o X X o o X w m m n Y Y Y n ",
"n n Y n n m m O X o o : o o X o > < 1 i p i i i i i t 1 < o : : : o o o X . X X . ; g j h h v v v j ",
"j w j 9 9 8 9 # X X o X o X . X o : > 1 t 1 1 t 1 > < > > o o o o X X X . . . . X # $ $ 9 9 9 q q 0 ",
"q q q q # # @ @ O e + X X r ] w.s X o o : > > > > : : : o X X e s e . . r e . O @ @ @ @ @ # = * = * ",
"* * * * @ @ ; ; ' l.l.d d b.D.S.B.r X X o o o o o o o o . . ` w.S.c.] d z.c.' r + ; @ @ @ & * * & & ",
"G H P & @ @   ` 2.8.8.z.v.S.S.D.D.w.' ] s X X X X X X e ' w.v.F.sXD.S.A.Y.A.V.c.]     ;   & & - & * ",
"{.3X3X}.}.L 1.3.4.4.2.2.C.V.D.S.D.T.Y.A.6.] 1.3 X . e z.A.6.C.V.m.Y.V.C.V.C.T.5.2.3.1.` |..X|.3X}.{.",
"T R R ].].{.|..Xn.F.V.x.U.Y.U.U.x.9.5.C.C.I.I.I.x.5.2.4.V.4.x.x.x.I.U.Q.C.4.4.n.=.8.m.4X{.].R R Y D ",
"b b b m m m f j F R +.;.|.{.4XF.A.Y.I.I.U.U.I.x.V.8.4.5.I.U.x.I.T.D.S.3X}.|.}.R R R m m D m n b / F ",
"( K z I N c c z h f f h f h h b / N @.,.>. .o.@./ R / / ;.:.:.%.F n F N h h h f f j c I (.I ( N N j ",
"9 9 9 8 8 8 8 8 c z g c G N N N N j h j M j h f f h k z j k M j z j M K I N z c M g f f j g z j j 9 ",
"9 9 9 9 9 $ $ % % $ % % % % 8 % % 8 9 9 9 9 w q G g x g q 9 9 9 8 8 f 8 8 5 % 8 f 8 9 9 # 9 9 9 9 # ",
"# # # # # # # # # # # # # % $ $ $ $ # @ @ @ @ @ @ @ @ @ @ # # $ $ $ % $ # $ $ 9 $ $ $ # # # $ $ # # ",
"# # # # # # # # # # # $ 9 $ $ $ $ = * & & & & & & @ @ @ & * # $ $ # $ $ # # 9 $ $ $ # # = = # # # # ",
"# $ # # # # # $ $ # # $ = $ = = = = = = = = = & & & = = = = = = = $ $ $ $ $ $ $ $ * # = = * $ $ # # ",
"$ $ $ $ $ $ $ = = $ $ = = = = l 5 5 l 5 5 5 5 5 = 5 5 5 5 5 5 = = = = = = = = = = = = $ = $ $ = $ $ ",
"5 5 5 l l l l l l l l l l l l x x x l l x l l x l x x S (.U S 5 5 5 5 l l l l l l 5 l l l 5 5 5 = l ",
"x x x x V V C I (.).I C V C V C V C C C A C V C V ). XdXfX.X(.I A U A A Z A C C V V V C V V V x x l ",
"C C C A A A  XfXVXVXcX6X X(.).A ).Z Z ).Z /.Z Z  XcXNXDXSXBXbX6X6XxXkX6X X XA A C C Z A Z Z C V C Z "
};
